<?xml version="1.0" encoding="utf-8"?>
<!-- Generator: Adobe Illustrator 28.3.0, SVG Export Plug-In . SVG Version: 6.00 Build 0)  -->
<svg version="1.1" id="Layer_1" xmlns="http://www.w3.org/2000/svg" xmlns:xlink="http://www.w3.org/1999/xlink" x="0px" y="0px"
	 viewBox="0 0 384 636" style="enable-background:new 0 0 384 636;" xml:space="preserve">
<style type="text/css">
	.st0{fill:#42738D;}
</style>
<path class="st0" d="M257.5,176.1v-0.1l0.1-0.1c4.9-4.6,5.1-4.8,3.1-7.7c-0.2,0.2-0.5,0.3-0.7,0.5c-2.8,1.9-5.6,3.8-9.4,3.1
	c-0.5,1.8-1,3.5-1.6,5.2c-1.2,3.7-2.2,7.2-2.8,10.9c3.8,0.6,4.7,0.6,7.8-0.3l0.2-0.2l0,0c0.2-0.2,0.4-0.5,0.6-0.7
	c0.7-0.8,1.4-1.7,2.2-2.4c3.6-3.3,3.6-3.4,0.5-7.1l0,0c-0.2-0.2-0.1-0.5-0.1-0.8C257.5,176.2,257.5,176.1,257.5,176.1L257.5,176.1
	L257.5,176.1z"/>
<path class="st0" d="M46.9,312.6c-0.1-1.3-0.2-2.6-0.8-3.5c-2.7-3.6-5.9-7.6-10.5-10.6l-6.6,8l18,12c0-0.6,0-1.1,0-1.6
	c0-1.3,0-2.3,0-3.2C46.9,313.4,46.9,313,46.9,312.6z"/>
<path class="st0" d="M179.1,521.3c-6.5-0.7-10.1-4.1-11.2-10.6l4.9-5.9l-0.2-0.2c-0.8-0.9-1.6-1.7-2.4-2.5c-1.8-1.9-3.7-3.8-5-5.9
	c-1.3-2.1-2-4.5-2.7-7.1c-0.3-1-0.6-2-0.9-3c2.6-0.8,4.3-0.4,5.7,1.5c0.7,0.9,2.1,1.6,3.3,1.7c1.9,0.2,3.9,0.1,5.9,0.1
	c0.9,0,1.8,0,2.7,0h0.3l1.6-21.9c0.6,0,0.9,0.1,1.2,0.3c0.3,0.3,0.4,0.9,0.3,1.7c-0.1,1.9-0.2,3.8-0.3,5.8L182,478l0.2,0.1
	c2.7,1.2,6.2,2.1,9-1.4c3.7-4.7,8.4-6.1,14.6-4.3c0.4,0.1,0.8,0.1,1.2,0.1h0.8l0.1-0.1c0.1-0.1,0.2-0.2,0.3-0.3
	c0.1-0.1,0.2-0.2,0.3-0.4c1.7-6.3,6.4-10.4,11-14.3c1.4-1.2,2.9-2.5,4.3-3.9c0.6-0.6,2.1-0.8,3.1-0.6c1.9,0.3,3.8,0.8,5.8,1.3
	c0.8,0.2,1.6,0.4,2.4,0.6l0.6,13.6h0c-1.5,0-2.7,0.3-3.6,1c-0.2,0.1-0.4,0.3-0.6,0.4c-0.1,0.1-0.2,0.1-0.2,0.2l-0.1,0
	c-0.1,0.1-0.2,0.2-0.2,0.2c-0.1,0.1-0.1,0.1-0.2,0.2c-0.9,1.2-1.4,2.7-1.9,4.2c-0.1,0.4-0.3,0.8-0.4,1.2l-0.1,0.2l0.1,0.1
	c0.1,0.1,0.1,0.2,0.2,0.3c0,0,0.1,0.1,0.1,0.1c0.7,0.9,1.3,1.6,1.9,2.3l0,0v0l0.1,0.1c0.4,0.4,0.8,0.8,1.2,1.1c0,0,0,0,0,0
	c0.1,0.1,0.2,0.1,0.3,0.2c0,0,0,0,0.1,0c0.4,0.3,0.8,0.5,1.2,0.6l0.2,0.1c0.2,0.1,0.4,0.1,0.7,0.2c0.1,0,0.2,0,0.4,0.1
	c0.2,0,0.5,0,0.8,0s0.5,0,0.8-0.1c0.4-0.1,0.8-0.2,1.2-0.3c0.3-0.1,0.5-0.2,0.8-0.4c0.7-0.4,1.4-0.8,2.2-1.4c0.9,4.6,0,7.6-3.1,10.5
	c-6.3,5.7-12.3,11.9-18.1,17.8c-1.2,1.2-2.4,2.5-3.6,3.7c-1.6,1.6-3.3,2.5-5.5,2.9c-0.4,0.1-0.8,0.1-1.1,0.2
	c-1.9,0.3-3.9,0.5-5.6,2.1c-0.3,0.3-1.2,0.3-2,0.3c-0.2,0-0.4,0-0.6,0c-0.9,0-1.7,0-2.6,0c-2.9,0-6,0-9-0.1
	c-3.2-0.2-5.6,0.7-7.7,2.9c-0.6,0.7-1.4,1.2-2.1,1.8"/>
<path class="st0" d="M222,484.7c-0.9-0.7-2.7-1.4-3.6-0.9c-2.1,1.2-4.8,2.9-6.9,5.1c-2.7,2.8-1.2,5.7,0.3,8.5l0.5,0.9h3.1
	c0.8,0,1.5,0,2.3,0c0.5,0,1.4-0.1,2.1-0.6c1.3-1,2.7-2.1,3.8-3c0.4-0.3,0.8-0.7,1.2-1l0.1-0.1C226.8,489.2,224.4,486.5,222,484.7
	L222,484.7L222,484.7z"/>
<path class="st0" d="M234.2,470.4c-2.2,0.5-2.6,2-3,3.5c-0.1,0.5-0.3,1-0.5,1.5c2.4,2.4,3.8,3.4,5.1,3.2c1.3-0.2,2.6-1.6,4.5-5
	c-0.6-0.4-1.2-0.9-1.7-1.5C237.5,471,236.4,469.9,234.2,470.4L234.2,470.4L234.2,470.4z"/>
<path class="st0" d="M240.5,343.6v0.7c0.2-0.1,0.4-0.2,0.6-0.4c0.6-0.4,1.3-0.8,2-1c1.8-0.4,3.7-0.7,5.4-0.9
	c0.6-0.1,1.1-0.2,1.6-0.2c0.5-1.1,1-2.1,1.4-3.2c1.3-2.9,2.6-5.6,3.7-8.3c0.4-0.9,0.6-2.3,0.2-3.1c-0.8-1.9-1.9-3.8-2.9-5.5
	c-0.3-0.5-0.6-1.1-0.9-1.6c0,0-0.2,0-0.5,0h0c-3.4,0-6.7,0.1-10.3,0.1l-2,0c0.1,0.5,0.1,0.9,0.1,1.4c0.1,1,0.1,1.7,0.5,2.2
	c2.1,2.8,1,5.1-0.4,7.2c-1.6,2.3-3.1,4.6-4.7,7.1l-1.9,2.9l4.6,4.3l2.7-0.9l0-0.1h0.3L240.5,343.6L240.5,343.6L240.5,343.6z"/>
<path class="st0" d="M220.9,486.2c-1.6-1.2-3-0.1-4.4,1c-0.2,0.2-0.4,0.3-0.6,0.5l-0.2,0.1c-0.3,0.2-0.5,0.4-0.8,0.6
	c-3.1,2.6-3.3,3.2-1.4,7c2.6,1.1,4.4,0,6.4-1.2c1-0.6,2.1-1.3,3.2-1.6l0.2-0.9C224,489.7,223.2,487.9,220.9,486.2L220.9,486.2
	L220.9,486.2z"/>
<path class="st0" d="M235.9,383.6l-0.5-0.4c-0.6,0-1.3,0-1.9-0.1c-1.6-0.1-3.2-0.1-4.8-0.2h-0.8c-0.4,0-1.2,0.4-1.3,0.8
	c-0.4,0.9-0.8,1.8-1.3,2.6c-1.3,2.5-2.6,4.9-1.9,8l8.7,4.5v9.5l-7.4,0.5l-0.1-0.2c-1.1-2.7-3.4-3.8-5.8-4.7
	c-2.8-1.1-5.6-2.4-8.4-3.5c-1.8-0.8-3.5-1.5-5.3-2.2c-0.6-0.3-1.3-0.5-2-0.6c-0.2-0.1-0.5-0.1-0.7-0.2l-1.1,6.3l-9.7,0.5
	c0,0.9,0,1.9,0.1,2.8c0.1,2.3,0.1,4.4-0.1,6.5c-0.6,4.1,0.6,7.6,3.8,11.4c1.1,1.3,2.1,1.8,3.5,2c0.4,0,0.9,0.1,1.3,0.1
	c2.1,0.1,4.2,0.3,6,1.1c1.9,0.9,3.8,0.9,5.8,0.9h0.2c0.8,0,1.6,0,2.4,0.1c2.5,0.2,3.4-1.4,4.4-3c0.4-0.8,0.9-1.5,1.5-2.1
	c0.6-0.6,1.1-1.3,1.6-2.3c1.2-2.1,3-3.6,5.8-4.8c5.3-2.2,10.5-4.6,15.4-6.9c1.4-0.6,2.1-1.2,2.2-1.7c0.7-3.2,1.4-6.4,1.4-9.6
	c0-1.6-0.4-3.2-0.8-4.8c-0.2-0.9-0.5-1.9-0.6-2.9c-0.3-1.6-1.1-2.6-2.7-3.5c-1.8-1-3.6-2-5.3-3c-0.4-0.3-0.9-0.5-1.3-0.8l0,0.1
	L235.9,383.6L235.9,383.6L235.9,383.6L235.9,383.6z"/>
<path class="st0" d="M164.1,483.6c0.9,0.2,2.1,0.4,2.7,1.1c2.5,3,5.5,2.6,9.1,2.2c0.5,0,1-0.1,1.4-0.1l2.2-37.2l4.6-1.3l2.2-15.5
	h0.3c1.1,0,2.2-0.1,3.3-0.2c2.4-0.1,4.7-0.2,7-0.2c2.7,0.1,4.3-1.2,6-3.2c-1,0-1.9,0-2.9-0.1c-2.4-0.1-4.7-0.2-6.9,0.2
	c-5.7,0.9-9.9,0.5-13.9-1.3c-2.3-1-4.8-1.7-7-1.7c-6.8-0.1-13.6-0.1-20.3-0.1c-2.2,0-4.4,0-6.5,0c-0.6,0-1.3,0.1-1.9,0.1
	c-0.2,0-0.4,0-0.6,0c-0.4,7-0.2,7.7,3.2,12.8c0.5,0.8,1.1,1.6,1.6,2.4c1.2,1.8,2.4,3.7,3.7,5.4c2,2.5,2.4,4.9,1.6,7.9
	c-0.6,2.3-1.4,5.7-0.6,8.3c1.6,4.9,3.6,9.8,5.6,14.6c0.8,1.9,1.5,3.7,2.3,5.6c0.4,0,0.8,0,1.1,0.1c0.9,0.1,1.8,0.1,2.6,0.3
	L164.1,483.6L164.1,483.6L164.1,483.6z"/>
<path class="st0" d="M143.8,365.7L143.8,365.7c0.3,0.9,1,1.7,2,2.5c0.1,0.1,0.3,0.3,0.4,0.4l3.1-3.3l-1.1-3.4l-4.5,2.2
	c0,0.2,0,0.4,0,0.5C143.7,365,143.7,365.3,143.8,365.7L143.8,365.7C143.8,365.7,143.8,365.7,143.8,365.7L143.8,365.7L143.8,365.7
	L143.8,365.7L143.8,365.7z"/>
<path class="st0" d="M146.9,424c1.9,0,3.9,0,5.8,0.1c5.6,0.1,11.3,0.1,16.9,0h0.7c4.2,0,7.6,0.7,10.7,2.2c4.6,2.3,9.1,1.6,13.1,0.6
	c0-0.1-0.1-0.2-0.1-0.3c-0.1-0.4-0.3-0.6-0.4-0.8c-3.3-2.9-4.6-6.7-4-12.3c0.1-1.3,0.1-2.6,0.1-3.9c0-0.7,0-1.5,0-2.2
	c0-1.1,0.1-2.2,0.1-3.4l0.1-2l9.8-0.6v-6.4l-7.9-0.6l0-0.3l-1.8-16.2c-0.5-0.2-1-0.3-1.4-0.4c-1.1-0.3-2.1-0.6-2.9-1.1
	s-1.6-0.6-2.1-0.5c-0.5,0.2-0.9,0.7-1.2,1.6c-1,3-3.1,4.2-6.4,3.8c-0.7-0.1-1.4-0.1-2.2,0c-0.5,0-1,0-1.5,0
	c-3.7-0.1-4.7-1.3-4.8-5.1c0-2.5-1.9-5-3.7-5c-3.9,0-7.8,0.1-11.9,0.2c-1.5,0-3,0.1-4.6,0.1c0.1,0.3,0.1,0.6,0.2,0.9
	c0.1,0.7,0.2,1.2,0.4,1.7c0.5,2,1.1,4,1.6,6.1c1,3.6,2,7.4,2.9,11.1c1,3.9,1.5,8.9-3.2,12.7c-1.1,0.9-2.1,2.1-3.1,3.3l-0.7,0.8
	c-0.5,0.6-1.1,1.3-1.2,2c-0.4,3.4-0.6,6.8-0.9,10.3c-0.1,1.1-0.2,2.3-0.3,3.4c0.5,0,0.9,0,1.3,0.1C145.1,424,146,424.1,146.9,424
	L146.9,424L146.9,424z"/>
<path class="st0" d="M225,449.8c2.6,0.8,5.1,1.4,7.9,2.1c0.9,0.2,1.9,0.5,2.8,0.7l1.8-2.8c1.8-2.9,3.5-5.5,5.2-8.3
	c0.4-0.6,0.6-1.4,0.6-2.1c-0.1-3.8-0.2-7.7-0.3-11.4l-0.1-3.4c-0.1-0.1-0.2-0.2-0.3-0.3c-0.1-0.2-0.2-0.3-0.3-0.3
	c-2.9-1.5-5.8-3.1-8.8-4.6c-4-2-6.7-1.3-9.3,2.5c-0.3,0.5-0.7,1-1,1.5c-1,1.4-2,2.9-2.8,4.4c-1.2,2.4-3.1,3.4-6.1,3.1
	c-1.2-0.1-2.4-0.1-4-0.1c-0.6,0-1.3,0-2.1,0c0.2,0.4,0.4,0.8,0.6,1.2c0.4,0.8,0.7,1.4,1.1,1.9c4.1,4.7,8.3,9.4,12.9,14.5
	C223.6,449.1,224.4,449.6,225,449.8L225,449.8L225,449.8z"/>
<path class="st0" d="M284.2,404.8c0-0.4,0-0.8,0-1.2c-0.2-2.1-0.4-4.2-0.7-6.4l-0.3-2.6l-27,3.4l-0.4,3.2l-0.9,0.1l-0.9-5.1
	l28.9-3.7c-7.5-11.1-9.1-21.1-5.1-31.2l-5.4-3.4c-7.5-4.7-14.6-9.2-21.8-13.6c-0.6-0.4-1.6-0.6-2.5-0.5c-0.6,0.1-1.3,0.2-1.9,0.3
	c-1.2,0.2-2.4,0.4-3.6,0.7c-0.7,0.1-1.4,0.3-2.1,0.4l-0.2,0.1l-0.2-0.1c0,0-0.1,0-0.1-0.1c-1.3,1.2-2,2.5-2.3,4
	c0,0.2-0.1,0.4-0.1,0.6c0,0.3,0,0.6,0,0.9c0,1.4-0.4,2.7-0.7,4c-0.2,0.7-0.4,1.4-0.5,2.1c-0.5,2.4-1.6,5.6-5.7,6.3
	c0.2,0.7,0.4,1.4,0.6,2.1c0.5,1.7,0.9,3.2,1.4,4.9c0.6,2.5,1.3,5,1.9,7.4c0.4,1.8,0.9,3.5,1.4,5.3c0.3,0.1,0.6,0.2,0.9,0.2
	c0.9,0.2,1.9,0.5,2.7,0.9c3.4,1.7,7.1,3.3,11.2,3c0.3,0,0.5,0.2,0.8,0.5c0.1,0.2,0.3,0.4,0.6,0.6l0.6,0.5l-5.5,0.5
	c0.1,0.5,0.2,1.1,0.3,1.6c0.3,1.3,0.5,2.6,0.9,3.8c1.4,4.8,1.4,8.7,0,12.4c-1,2.6-0.5,4.5,1.7,6.1c2.2,1.6,3.1,3.9,2.9,7.2l-0.1,0.5
	c-0.1,1.5-0.3,3.1,0.8,4.4l0.1-0.1c6.2-5.1,10-8.1,1.6-20.9l-1.1-1.7l1.6,1.2c0.6,0.5,1.2,0.9,1.7,1.3c1.1,0.8,2.1,1.5,2.9,2.3
	c1.4,1.2,2.4,11.3,1.6,12.7c-0.8,1.4-7.6,7.3-9.3,8.1l-0.3,0.1l-0.2-0.3c-1.7-2.8-2.3-5.2-1.9-7.7c0.4-2.4-0.3-4.4-2.3-6.3
	c-0.7-0.7-1.2-1.5-1.7-2.3c-0.2-0.3-0.3-0.5-0.5-0.8l-13.1,6.2c1,0.5,1.9,1,2.7,1.4c2.4,1.2,4.4,2.3,6.6,3.3c2,0.9,2.9,2.2,2.9,4.4
	c0,3.4,0,7.1,0.3,10.7c0.3,3.8-0.6,6.7-2.7,9c-4.3,4.8-6.1,10.4-5.7,18.3c0.2,3.9,1.6,6.2,4.8,7.9c0.8-0.5,1.6-1,2.4-1.5
	c2-1.2,3.8-2.4,5.8-3.4c1.8-0.9,2.6-2.3,2.8-4.3v-0.1c0.4-4.4,0.8-8.9,1.1-13.4c0.1-1,0-2.2-0.1-3.3c-0.1-2.2-0.2-4.4,0.6-6.2
	c1.1-2.2,3.4-3.9,5.7-5.4c0.5-0.3,0.9-0.6,1.4-1c1.3-0.9,2.5-2,3.7-3.1c2.8-2.6,5.7-5.2,10-5.7c0,0,0.1-0.1,0.1-0.1c1-1,2-1.9,3-2.7
	c4.4-3.9,8.6-7.5,6.2-14.8C284.2,406.2,284.3,405.5,284.2,404.8L284.2,404.8L284.2,404.8z"/>
<path class="st0" d="M189.3,475.5c0.8-0.8,1.6-1.5,2.4-2.2c0.8-0.7,1.6-1.4,2.4-2.2c1.4-1.4,2.9-1.9,4.7-1.7
	c1.8,0.2,3.5,0.4,5.6,0.6c0.8,0.1,1.6,0.1,2.5,0.2c0.9-5.6,4.5-8.8,8.1-12c0.6-0.5,1.2-1,1.8-1.6c1.3-1.2,2.5-2.4,3.8-3.5l1.9-1.7
	c-2.2-3.1-4.7-5.8-7.1-8.5c-3.6-3.9-7.3-8-9.8-13c-0.1,0.1-0.3,0.2-0.4,0.2c-0.5,0.3-1.1,0.6-1.4,1c-1.9,2.4-4.4,3.4-7.9,3.2
	c-1.8-0.1-3.5-0.1-5.4,0c-0.8,0-1.5,0-2.3,0l-1.9,15.5l-4.9,1.6v13.1l3.3,1.8v9.9C186.5,477.2,187.9,476.9,189.3,475.5L189.3,475.5
	L189.3,475.5z"/>
<path class="st0" d="M331,278.4c-1.5,0.4-2.9,1-4.4,1.7c-0.6,0.2-1.1,0.5-1.7,0.7c0.1,0.5,0.3,1,0.4,1.4c0.3,1.1,0.6,2.1,0.8,3.1
	c0.6,4.1-0.2,7.2-2.8,9.7l-0.2,0.2c-4.2,4.1-8.6,8.3-12.4,12.8c-4.1,4.8-9.4,9.8-17.5,11c-0.1,0-0.2,0-0.3,0.1
	c-4,1.5-7.4,6.5-7.2,10.8c0,0.7,0.1,1.4,0.1,2.2c0.1,2.1,0.2,4.4,0,6.5c-0.3,3.6,1,5.5,4.4,6.7l0.6-0.7c0.5-0.6,1.1-1.2,1.7-1.9
	c2.8-3,5.6-6,8.4-9c4.9-5.2,9.8-10.5,14.7-15.8c1.1-1.2,2.4-2.5,3.6-3.6c2.9-2.9,5.9-5.8,7.9-9.2c2.3-3.8,3.6-8.3,4.9-12.6
	c0.3-1.2,0.7-2.4,1-3.5c0.8-2.7,1.1-5.5,1.2-8c0.1-1.1-0.2-1.9-0.8-2.4C332.8,278.2,332,278.1,331,278.4L331,278.4L331,278.4z"/>
<path class="st0" d="M283.3,335.4c0-0.7,0-1.5,0-2.2c-0.4-4.2-0.2-9,4.1-12.5v0c-0.5,0.2-1,0.3-1.5,0.5c-1.5,0.5-2.9,1-4.3,1.3
	c-3.9,1-8,1.3-11.3-2.3c-1.4-1.5-3-2.8-4.6-4l-0.7-0.5c-1-0.8-2.2-1.6-3.4-2c-1.8-0.6-5.1-1.3-7,0.7c-1.8,1.8-0.7,4.6,0.3,6.6
	c0.8,1.6,1.6,3.2,2.4,4.8l1.1,2.2l0,0.1c-0.6,2.1-1.6,4.1-2.6,6c-1.4,2.8-2.9,5.7-3.3,9.1l26.9,16.6l8-12.6c-4-4.3-4-4.5-4-10.6
	C283.3,336.1,283.3,335.7,283.3,335.4L283.3,335.4L283.3,335.4z"/>
<path class="st0" d="M243.6,169.3c-0.5,1.4-1,2.8-1.2,4.1c-0.2,1.1,0,2.2,0.2,3.4c0.1,0.5,0.1,1.1,0.2,1.6l1.6,5.9
	c0.1,0,0.1-0.1,0.2-0.1c0.4-0.3,0.8-0.6,0.9-0.9c1.2-4.2,2.3-8.4,3.2-12.3c0.2-0.7,0.1-1.5,0.1-2.3c0-0.3,0-0.6,0-0.9l-4.3-0.2
	C244.1,168.1,243.8,168.7,243.6,169.3L243.6,169.3L243.6,169.3z"/>
<path class="st0" d="M346.4,217.6c0.3-2.3,0.5-4.5,0.7-6.8c0.1-1.5,0.4-2.9,2-3.7c1.6-0.8,2.2-2.1,1.9-4.3h-0.1
	c-3.1,0-4.9,1.7-6.7,4.4c-0.7,1.1-1.3,2-1.7,2.7c-1.9,3-2,3.1-5.3,3.1c-0.9,0-1.9,0-3.3,0.1c-0.7,0-1.8,0.9-2.8,2.1
	c-1,1.3-1.5,2.7-1.5,3.6l16.4,1.4C346.2,219.3,346.3,218.4,346.4,217.6L346.4,217.6L346.4,217.6z"/>
<path class="st0" d="M236.7,176.5c-1.6,0.1-3.5-0.4-4.9-1.2c-3-1.8-5.2-1.5-7.3,0.8c-2.5,2.8-5.6,2.6-8.3,1.9
	c-1.5-0.4-3-0.8-4.5-1.2c-0.6-0.2-1.2-0.4-1.9-0.5c-2-0.6-3.9-0.6-5.8-0.1l0.8,50.7h5.5c1.1,0,2.2,0,3.2,0c3.4,0,6.9,0.1,10.3,0.1
	c7.3,0.1,14.9,0.2,22.3,0.2c1.2,0,2.2-0.3,2.8-0.7c2.2-1.6,3.6-4.2,4-7.1c0.4-2.9-0.4-5.9-2.2-8.1c-1.6-1.9-3.1-3.9-4.7-5.8
	c-2.6-3.2-5.4-6.6-8-9.9c-2.8-3.6-3.9-7.5-3.3-11.7l0-0.2l0.2-0.1c1.2-0.3,2-0.3,2.6,0.1c0.6,0.3,0.9,0.9,1.2,1.8
	c0.7,2.7,1.6,5.3,2.4,7.9c0.5,1.4,1.7,2.2,3.2,2c1.1-0.1-1.5-9.7-1.5-9.7l-2-6.7C239.6,177.3,239,176.3,236.7,176.5L236.7,176.5
	L236.7,176.5z"/>
<path class="st0" d="M381,195.2c0.1-0.5-0.1-1.2-0.8-2.1c-2.1-2.7-4.3-5.3-6.8-7.6c-1.5-1.5-3.2-2.8-5-4.2c-0.8-0.6-1.7-1.3-2.5-2
	l-0.3-0.2l0.3-0.3c0.5-0.4,0.9-0.8,1.3-1.2c1-0.9,1.9-1.7,2.7-2.6c0.6-0.6,1.1-1.6,1-2.1c-0.1-0.4-0.9-0.8-1.9-1.1
	c-1.1-0.3-2.2-0.5-3.4-0.7c-0.5-0.1-1-0.2-1.5-0.3l-0.2-0.1l-3.6-28.7c-0.1-0.1-0.2-0.2-0.3-0.2c-0.2-0.1-0.3-0.2-0.4-0.3
	c-4.6-1.8-9.2-3.6-13.9-5.3c-5.9-2.2-11-0.9-14.9,3.7c-1.2,1.4-2.3,2.5-4.4,2.3c-0.4-0.1-0.8,0.1-1.3,0.2c-0.5,0.1-1,0.3-1.4,0.2
	c-1,0-2,0-2.9,0c-2.5,0.1-5.2,0.1-7.3-0.9c-4.4-2.2-8.4-5.5-12-8.8l-0.6-0.6c-0.4-0.4-0.8-0.7-1.1-1c-2.5-2.2-2.8-2-6.2,0.6
	c-0.1,0.6-0.3,1-0.6,1.2c-0.4,0.3-1,0.4-1.7,0.3c-0.5-0.1-1-0.2-1.4-0.3c-0.6-0.1-1.2-0.3-1.8-0.3c-1.4-0.1-2.4,0.1-3,0.7
	c-0.5,0.6-0.7,1.4-0.6,2.6c0.1,1.1,0.7,2.4,1.7,3.9c1.1,1.6,2.3,3.1,3.5,4.5c0.5,0.6,1,1.2,1.4,1.8l0.1,0.1v0.1l2.4,1.9l-0.5-0.2
	c0.4,0.4,0.8,0.7,1.1,1.1c2.5,2.8,2.3,3.8-0.1,6.6c-0.7,0.9-1.3,2.2-1.4,3.4c-0.1,0.8,1.4,2.9,3.1,4.8c1.4,1.5,2.3,2,2.7,2h0
	c3.8-0.1,5.5,2.5,7,4.8c0.6,1,1.4,1.9,2,2.9c0.8,1,1.5,2.1,2.3,3.2c1.3,2,2.8,3.3,5.6,3.4c4,0.1,6.4,2.6,6.7,6.9
	c0,0.6,0.1,1.3,0.2,1.9c0,0.2,0.1,0.5,0.1,0.8c1.4,0.8,2.9,1.7,4.3,2.5c3.3,2,6.8,4.1,10.3,5.9c3.9,2,7.3,1.8,9.9-0.7
	c2.1-1.9,4.5-1.7,6.6-1.4l0.2,0l3.1,6.3l17.3,2.4c0-0.3,0.1-0.5,0.1-0.8c0.1-0.7,0.2-1.3,0.3-1.9c0.1-0.7,0.1-1.5,0.2-2.3l0.1-1.3
	l1.5-0.6c0.9-0.4,1.7-0.7,2.5-1.1C380.1,196.4,380.8,195.8,381,195.2L381,195.2L381,195.2z"/>
<path class="st0" d="M325.7,399.5c-0.6,0.8-1.1,1.4-1.4,2.1c-0.4,0.9-0.9,1.7-1.3,2.5c-1.6,3-3.2,6.1-4.4,9.3
	c-1.9,4.7-5.2,6.8-10.2,6.2c-0.3,0-0.7-0.1-1-0.1c-2.3,0-4.1,1-5.7,3.2c-1.3,1.7-2,3.2-1.8,5.4c0.1,1.6,0.2,3.2,0.2,4.7
	c0,1.7,0.1,3.5,0.2,5.1c0.3,3.2-0.5,5.5-2.5,7.3c-3.6,3.1-4.8,6.5-3.7,10.6c0.4,1.4,0.3,2.9,0.2,4.6c-0.2,3.1,1.7,4.9,3.7,6.7
	c0.7,0.6,1.4,1.3,2,2.1c0.1,0.1,0.7,0.1,1.1,0.1c0.2,0,0.5,0,0.6,0c4.4,0.4,7.5-2.1,10.9-5c0.3-0.3,0.6-0.5,0.9-0.8
	c-3.4-5.4-0.7-9.8,2-14.1c0.3-0.5,0.5-0.9,0.8-1.3c0.5-0.9,1-1.7,1.5-2.6c0.3-0.5,0.5-0.9,0.8-1.4l8.7-15l-2.9-3.8l3.1-6.4l3.3,0.5
	c1.1-3.6-1-13.9-4.3-21C326.2,398.9,325.9,399.2,325.7,399.5L325.7,399.5L325.7,399.5z"/>
<path class="st0" d="M365.9,218.5c-1.4-0.8-2.9-1.5-4.3-2.2c-4-1.9-8-3.8-10.8-8.2c-0.2,0.3-0.5,0.6-0.7,0.8c-0.6,0.7-1,1.2-1.1,1.8
	c-0.5,2.9-0.7,5.9-0.9,8.1c0,0.7,0.3,1.9,0.8,2.1c1.9,1.2,1.6,2.8,1.3,4.2l0,0.1c-0.1,0.6-0.3,1.3-0.5,1.9c-0.3,1.1-0.5,2.2-0.7,3.3
	c-0.2,1.9-1.2,3.2-3.2,4.3c-2.3,1.2-4.5,2.5-6.9,3.9c-1,0.6-2,1.2-3.1,1.8L342,252c0.6,0,1.3,0,1.9,0c0.7,0,1.3,0,2,0
	c0.9,0,1.8,0,2.6,0c1.5,0.1,2.3-0.7,3-1.8c2.2-3.4,4.5-6.7,6.8-10c3.2-4.6,6.4-9.4,9.6-14.2c1-1.5,1.4-2.8,1.1-4
	C368.8,220.8,367.8,219.6,365.9,218.5L365.9,218.5L365.9,218.5z"/>
<path class="st0" d="M148.4,359.9h0.1l5,3.8c0.8-0.6,1.5-1.3,2.2-1.9c1.7-1.5,3.3-2.8,5-4.1c2.5-1.9,3.4-3.8,3.1-6.6
	c-0.4-4.3,1-7.7,4.1-9.3c4.4-2.4,5.4-6,5.6-10.6c0.1-1.2,0.2-2.4,0.4-3.6c0.1-0.9,0.2-1.7,0.3-2.6c0.1-0.8,0.1-1.6,0-2.4
	c0-0.2,0-0.5,0-0.7c-2.8-0.8-4.6-0.1-5.9,2.3c-0.2,0.5-0.6,0.9-0.9,1.2c-0.3,0.4-0.6,0.7-0.8,1.1c-1.2,2-2.9,3-5.4,2.9
	c-2.2-0.1-4.4,0-6.5,0.1c-0.9,0-1.7,0.1-2.6,0.1c-0.5,0-0.8,0.1-1,0.3c-0.2,0.3-0.2,0.8-0.2,1.4l8,0.9v21l-0.3,0
	c-5.2,1-8.8,0-11.6-3.1l-3,1.9c2.7,4,2.5,5.3-1,8.6c-0.1,0.1-0.2,0.2-0.4,0.3c-0.2,0.1-0.4,0.3-0.5,0.5c-0.2,0.3-0.4,0.6-0.4,0.8
	c-0.1,0.2-0.1,0.5-0.1,0.6v0c0.1,0.3,0.6,0.5,1.4,0.5C144.9,361.1,146.6,359.9,148.4,359.9L148.4,359.9L148.4,359.9z"/>
<path class="st0" d="M341.7,272.5c-1.1,0.3-2.1,0.6-3.3,0.7l2.9,3.4l6-3.5C345.4,271.4,343.7,271.9,341.7,272.5L341.7,272.5
	L341.7,272.5z"/>
<path class="st0" d="M17.5,278.7l-7.2-1c-1.9,2.8-1.1,5,0.9,7.6c0.7-0.6,1.4-1.2,2.1-1.7C15.1,282.3,16.8,281,17.5,278.7L17.5,278.7
	z"/>
<path class="st0" d="M19.1,293.3c1.2-1.2,2.4-2.4,3.8-3.4c1.1-0.8,2.4-1.1,3.8-1.1c2.4,0,4.9,1.1,6.4,3l0.2,0.2
	c0.7,0.9,1.4,1.8,2.1,2.8c1.4,2,3.4,3.5,6,4.5c5.6-6,3.4-11.8,1.3-17.5c-0.3-0.9-0.7-1.9-1-2.8H19.7c-0.2,2.8-2.2,4.2-4.1,5.6
	c-1.2,0.9-2.4,1.8-3.2,3l0.8,1.2c1.4,2.1,2.8,4.3,4.2,6.4l0,0l0,0c0.5-0.5,1-1,1.5-1.5L19.1,293.3L19.1,293.3L19.1,293.3z"/>
<path class="st0" d="M30.1,290.9c-3.7-0.6-6.7,0.4-9.3,3c-0.1,0.1-0.3,0.2-0.4,0.3c-0.4,0.3-0.8,0.5-1.3,0.8
	c-0.2,0.1-0.5,0.2-0.7,0.4c-0.2,0.1-0.5,0.2-0.7,0.4l5.7,5.4c1.3,1.3,2.7,2.5,4,3.9l6.5-8L30.1,290.9L30.1,290.9L30.1,290.9z"/>
<path class="st0" d="M12.8,276c0.4,0,0.8,0.1,1.2,0.1c1.7,0.1,3.4,0.3,5.3,0.5c0.5,0.1,1.1,0.1,1.7,0.2c-3.6-2.6-7.3-2.6-11.2-2.5
	c-1.2,0-2.5,0-3.7,0l1.2,3.4C8.9,275.5,11,275.7,12.8,276L12.8,276L12.8,276z"/>
<path class="st0" d="M6.1,243.5c0,0.6-0.1,1.1-0.1,1.7c-0.1,3.1-0.1,6.1,0,9.4c0,1.2,0,2.5,0,3.8l0.6-0.4c0.7-0.5,1.4-0.9,2.1-1.4
	c2-1.3,3.9-2,5.8-2c2.8,0,5.4,1.5,7.6,4.4c1,1.3,2,2.7,3.1,4.1l1.4,1.8c3.8-4.1,8.5-4,13.1-4c0.7,0,1.3,0,2,0h2.5
	c4-0.1,8.1-0.2,12.4-0.2l3.8-0.1l-6.9-47.2l6.7-0.6l-12.3-9.4L47,210H29.5v12.9l-5.1,0.7l-1,9.4l-20.3,0.8L3,234.1
	C6.5,236.7,6.3,240.2,6.1,243.5L6.1,243.5L6.1,243.5z"/>
<path class="st0" d="M7.7,268.6L7.7,268.6c2.6-0.2,5.2-0.4,7.9-0.5l3.4-0.2l0.3,5.6c0.4,0.2,0.8,0.4,1.1,0.7c3.3,2,6.5,3.8,11.1,2.6
	c-0.1-0.3-0.2-0.7-0.3-1c-0.2-0.9-0.4-1.7-0.9-2.3c-3.7-5-7.5-9.8-11.1-14.3c-1-1.2-3.1-3.2-6.2-2.4c-3.5,1-6.6,3.1-9.3,6.7
	c-0.4,0.5-0.6,1.2-0.7,1.8c-0.2,1-0.2,1.8,0.2,2.3c0.4,0.6,1,1,2,1.1C6.1,268.7,7,268.7,7.7,268.6L7.7,268.6L7.7,268.6z"/>
<path class="st0" d="M13.5,272.1c1.2,0,2.4-0.1,3.6-0.1v-2.1L6,271.3l0,0.7C8.5,272.3,10.9,272.2,13.5,272.1L13.5,272.1L13.5,272.1z
	"/>
<path class="st0" d="M159.8,275.3v0.3c0,0.7,0,1.4,0,2.1c0,1.4,0,2.7,0,4c0.1,3,0.3,6.5-3.2,8.6c-0.1,0.1-0.2,0.3-0.2,0.5
	c0.6,0.8,1.1,1.6,1.6,2.4c1.2,1.7,2.3,3.3,3.3,4.9c1.2,1.9,3.6,2.7,5.9,1.8c1.2-0.5,2.6-0.8,3.9-0.9c1.2-0.1,2.4-0.1,3.7-0.1
	c0.5,0,0.9,0,1.4,0c0.2-3.2,2-5.1,3.8-6.8c1.9-1.8,4.1-3.9,6.1-6.1c2.3-2.6,4.6-3.6,7.5-3.2c0.5,0.1,1,0,1.7-0.2
	c0.2,0,0.5-0.1,0.7-0.2l-0.8-1.6c-0.7-1.4-1.3-2.6-1.9-3.9c-1.6-3.1-1.2-6.5-0.9-9.6c0-0.4,0.1-0.7,0.1-1.1c0.1-1.2,1.2-2.2,2.3-3.2
	c0.5-0.5,1.1-1,1.5-1.5c0.2-0.3,0.4-0.5,0.7-0.8c0.8-0.9,1.6-1.7,1.6-2.5c0.2-4.2,0.2-8.5,0.1-12.7c0-1.4,0-2.9,0-4.3
	c-0.1-0.1-0.2-0.2-0.3-0.2c-0.2-0.2-0.4-0.4-0.6-0.5c-3.4-1.8-6.9-3.6-10.3-5.4c-7.7-4-15.6-8.1-23.3-12.2c-2.1-1.1-3.5-0.3-5.1,1.1
	c0.4,0.7,0.7,1.4,1.1,2.1c1,1.9,2,3.8,2.9,5.7c0.6,1.5,1,3.2,0.9,4.9c-0.1,1.3-0.3,2.7-0.4,4c-0.2,1.6-0.5,3.3-0.5,5
	c0.1,5.7-2.2,10.3-7.1,13.9c-1.6,1.1-2.2,2.4-2.1,3.9c0.1,2.3-0.8,4.2-2.8,5.5c-0.6,0.4-1,0.8-1.1,1.2c-0.1,0.3,0,0.6,0.3,0.9
	c0.2,0.1,0.3,0.2,0.5,0.4l0,0c0,0,0,0,0,0l2.6,2.1l-0.1-0.5l0.8,1L159.8,275.3L159.8,275.3L159.8,275.3z"/>
<path class="st0" d="M143.8,356.8c0.5-1,0-1.5-0.9-2.4c-0.7-0.7-1.5-1.5-1.6-2.7v-0.2l5.5-3.8l0.2,0.1c0.4,0.3,0.9,0.6,1.3,0.9
	c2.5,1.8,4.9,3.6,8.1,2.1V334l-7.7-0.5l-1-3.7l-4.6,0.3l-0.9,4h-2.5c-1.6,0-3.1,0-4.6,0c-1.4,0-2.4,0-3.1,1.4
	c-1.1,2.4-2.3,4.6-3.6,7c-0.5,0.9-0.9,1.8-1.4,2.7l13.7,15c0.3-0.4,0.7-0.7,1-1C142.6,358.4,143.3,357.7,143.8,356.8L143.8,356.8
	L143.8,356.8z"/>
<path class="st0" d="M86.8,289.9c0-0.8-0.1-1.6-0.2-2.4c0-0.3-0.1-0.6-0.1-0.8c-3.9-2.1-8-1.9-12.3-1.6l-1.1,0.1
	c-0.2,1.3-0.4,2.6-0.6,3.9c-0.4,3-0.9,5.9-1.5,8.8c-0.8,3.9-0.1,7.5,2.4,11.4l0.1,0.2c2.9,4.5,6.6,5.5,11.2,2.8L85,312
	c1.7-1,2.3-2,2.2-4c-0.2-3.9-0.2-7.9-0.3-11.8C86.9,294.2,86.8,292,86.8,289.9L86.8,289.9L86.8,289.9z"/>
<path class="st0" d="M126.6,313.7c0.2-0.7,0.5-1.4,0.6-2.1c0.2-2,1.2-3.5,3.2-4.8c2.4-1.6,4.9-3.2,8.2-2.8c1.9,0.2,3.1-0.5,4.2-2.6
	c2.6-5.1,5.3-10.3,8.3-15.2c0.9-1.4,1.5-2.8,2-4.1c0.2-0.5,0.3-0.9,0.4-1.4c0.5-1.9,0.6-3.8,0.3-5.8l-3.2-2.7
	c-0.2-0.1-0.4-0.3-0.5-0.4c-2.1-0.7-3.9,0-5.5,0.9c-5.3,3-11,4.2-16.9,3.4c-0.5-0.1-1-0.1-1.6,0c-3.6,0.4-7-0.5-10.3-2.9
	c-1.2-0.9-2.9-1.5-4.3-1.4c-3.8,0.1-5.9,2.4-6.3,6.7c-0.3,2.9-0.3,5.9-0.2,9c0.1,2.6-0.6,4.6-2.1,6.3c-2.7,3-2.7,6.3-2.7,9.9
	c0,0.9,0,1.8,0,2.7c0.3,0,0.5,0.1,0.8,0.1c0.6,0.1,1,0.1,1.4,0.1c0.3,0,0.7-0.1,1-0.1c2.4,0,4.4,1.1,6.1,3.3
	c0.9,1.2,1.9,2.3,2.9,3.4c0.5,0.5,0.9,1,1.4,1.5c1.5,1.7,3.5,2.3,5.6,1.8c1.6-0.4,3.2-0.9,4.9-1.4c0.7-0.2,1.3-0.4,2-0.6
	C126.4,314.2,126.5,314,126.6,313.7L126.6,313.7L126.6,313.7z"/>
<path class="st0" d="M135.4,330.3c-0.5,0-1,0-1.6,0c1,2.1,1.9,2.2,6.6,1.6c0.1-0.4,0.2-0.9,0.1-1.1c-0.2-0.3-0.7-0.4-1.1-0.4
	C138.1,330.2,136.9,330.2,135.4,330.3L135.4,330.3L135.4,330.3z"/>
<path class="st0" d="M161.5,327.4c1.8,0,2.9-0.8,3.8-2.7l-1.8-2c-1.6-1.8-3.3-3.5-4.9-5.3c-3.2-3.5-3.3-4.7-1.2-8.7
	c0.9-1.7,1.8-3.4,2.7-5.1l1.2-2.2c-0.5-0.7-1-1.4-1.5-2.1c-1.2-1.8-2.4-3.4-3.8-4.9c-1.3-1.3-1.8-2.2-1.8-3.2c0-0.9,0.6-1.8,1.8-2.9
	c0.7-0.6,1.7-1.5,1.7-2.2c0.2-2.3,0.1-4.6,0.1-6.8c0-0.8,0-1.5,0-2.2c-0.8-0.3-1.4-0.4-1.7-0.2l0.4,0.5l-0.5-0.4
	c-0.4,0.3-0.4,1-0.3,1.5c0.3,2.9-1,5.3-2.3,7.6l-0.2,0.3c-0.7,1.3-1.4,2.6-2.2,4c-2.1,3.9-4.4,8-6.3,12c-1.3,2.6-2.9,3.7-6,3.8
	c-6.8,0.4-8.9,2.2-10.5,9.3c4.5,2.7,6.2,6.9,5.1,12.1c0,0,0.1,0.1,0.2,0.2c0.1,0.1,0.1,0.1,0.1,0.2c0.1,0,0.1,0,0.2,0
	c0.2,0.1,0.5,0.1,0.7,0.1c2.9-0.1,5.8-0.1,8.8-0.2C149.4,327.6,155.5,327.4,161.5,327.4L161.5,327.4L161.5,327.4z"/>
<path class="st0" d="M90.1,285.3c-0.2,0.2-0.3,0.3-0.4,0.5c-0.2,0.2-0.5,0.5-0.5,0.6c-0.1,6.3-0.1,12.6,0,19.3v3.8l4.1-2.3
	c0-1.5,0-2.9,0-4.4c0-3.6,0-7,0.1-10.5C93.3,289.9,92.4,287.8,90.1,285.3L90.1,285.3L90.1,285.3z"/>
<path class="st0" d="M101.6,292.1c0.8-1,1.4-2.3,1.5-3.5c0.2-2.3,0.1-4.6,0.1-7c0-0.9,0-1.8,0-2.6c-4.4-0.5-6.3,0.5-10.8,5.5
	c2.9,3.7,2.8,8.2,2.7,12.6v0.2c-0.1,2.1,0,4.3,0,6.5c0,0.9,0,1.8,0,2.8h3.1c0-0.4,0.1-0.7,0.1-1.1c0.1-1,0.2-1.9,0.1-2.7
	C98,298.5,99,295.1,101.6,292.1L101.6,292.1L101.6,292.1z"/>
<path class="st0" d="M340.5,256c0.4-1,0.3-2.2-0.4-3.5c-1.3-2.6-2.7-5.2-4.2-7.8c-0.6-1.1-1.2-2.2-1.9-3.3c-1.3,0.4-2.6,0.8-3.9,1.2
	c-3.5,1.1-6.8,2.1-10.1,3.3c-1.5,0.6-3.1,1.5-4.4,2.6c-1.9,1.6-3.6,3.4-5.5,5.2c-0.8,0.8-1.5,1.5-2.3,2.2l-0.2,0.2l-11.3-6.5
	l-5.7,5.1c0.1,0.3,0.2,0.6,0.2,0.9c0.2,0.8,0.4,1.5,0.5,2.2c0.1,0.7,0.3,1.4,0.4,2.1c0.4,2.1,0.8,4.3,1,6.5c0.1,2.1,0.5,3.6,2.1,4.7
	c0,0,0,0,0,0c0.1,0,0.1,0.1,0.2,0.2h0c0.3,0.3,0.5,0.7,0.7,1c0.1,0.1,0.2,0.3,0.3,0.4h0c1.8,1.4,3.6,1.5,6.2,0.3
	c8.2-3.5,16.6-6.9,24.8-10.2c3.5-1.4,6.9-2.8,10.4-4.2C339,258.1,340,257.2,340.5,256L340.5,256L340.5,256z"/>
<path class="st0" d="M282.8,264.9c-6.2-3.7-9.6-8.4-10.5-14.7c-0.1-0.8-0.6-1.6-1.1-2.5c-0.2-0.3-0.4-0.6-0.5-0.9
	c-6.9,5.6-8.6,10.6-5.9,17.3c0.8,0,1.5,0,2.3,0c2,0,4,0.1,6-0.1c0.2,0,0.4,0,0.7,0c2.3,0,4.1,0.8,5.9,2.4c2,1.9,4.1,3.6,6.3,5.4
	c0.9,0.7,1.7,1.4,2.6,2.2l2.5-3.1c-0.8-0.6-1.6-1.3-2.4-1.9C286.6,267.6,284.8,266.1,282.8,264.9L282.8,264.9L282.8,264.9z"/>
<path class="st0" d="M288.8,281.4h5.6l0.8-8l-2.6-0.8C289.9,274.9,288.6,277.7,288.8,281.4z"/>
<path class="st0" d="M257.2,309.3c-1-1.4-2-2.8-2.8-4.3c-1.5-2.8-3.4-3.9-6.3-3.5c-0.3,0-0.5-0.1-0.8-0.3c-0.1-0.1-0.3-0.2-0.5-0.3
	l-0.1-0.1l-1.2-7.1l0.4,0c3.3-0.2,4.3-2.4,5.4-4.8c0.1-0.2,0.2-0.5,0.3-0.7c0.4-0.9,0.8-1.8,1.2-2.7c1.1-2.5,2.2-5,3.6-7.4
	c4.3-7.9,5.9-14.7,4.9-21.5c-0.3-2.4,0.9-4.1,2.1-5.4c1.4-1.5,2.6-3,3.9-4.5c0.5-0.6,1-1.1,1.4-1.7c-3.4-6.6-11-18.6-13.6-21.1
	c-0.2,0.2-0.4,0.4-0.6,0.6c-0.6,0.5-1.2,1.1-1.7,1.7c-1.9,2.5-4.3,3.6-8.1,3.5c-9.4-0.2-18.9-0.3-28.1-0.3c-2.4,0-4.7,0-7,0
	c-1,0-2.1,0.1-3.2,0.2c-0.4,0-0.7,0.1-1,0.1v10.6l-3.9,0.5c0,1.6-0.1,3.1-0.1,4.7c-0.1,4.3-0.3,8.3-0.3,12.4c0,1.6-0.3,3.7-2.4,4.8
	c-3.5,1.9-4.8,5-4.3,9.9c0.1,1.2,0.3,2.6,0.9,3.8c0.2,0.5,0.5,1,0.7,1.5c1.8,3.8,3.4,7.3,8.2,8.6l0.4,0.1l-2.3,7.4
	c1.5,1.5,3,3.1,4.6,4.6c4.1,4.1,8.3,8.4,12.3,12.9c2.4,2.6,4.8,3.7,7.9,3.6c0.3,0,0.6,0,0.8,0c2.8-0.1,5.9-0.3,8.1,2.7
	c0.3,0.3,1.4,0.3,2.2,0.3h0.7c2.8,0.1,5.7,0.1,9.5,0.1h0c0.8,0,1.6,0,2.4-0.1c0.2,0,0.5,0,0.7,0c0.9-5.2,1.1-5.4,6.7-7.1
	C258,310.3,257.6,309.8,257.2,309.3L257.2,309.3L257.2,309.3z"/>
<path class="st0" d="M233.4,359.1c1.1-2,1.6-3.8,1.6-5.6h-5.9c-0.8,1.6-0.8,3.2,0.1,5.2l0,0c0.4,0.9,1.2,1.7,1.4,1.7l0,0
	C231.6,360.3,233,359.8,233.4,359.1L233.4,359.1L233.4,359.1z"/>
<path class="st0" d="M232,343.4c-0.2-0.1-0.4-0.3-0.6-0.5c-2.5,2-3.3,4.5-2.5,8h6.3C236.7,347.1,234.4,345.3,232,343.4L232,343.4
	L232,343.4z"/>
<path class="st0" d="M294.8,283.8l-8.5-0.4l0-0.4c0-0.4,0-0.8,0.1-1.1c0-0.6,0-1.2,0.2-1.8c0.8-3.3-0.1-5.7-2.8-7.4
	c-0.3-0.2-0.5-0.4-0.7-0.6c-0.1-0.1-0.2-0.2-0.3-0.2c-4.5-4-9.6-5.9-15.4-5.9H267c-2.3,0-3.4,0.7-4.3,2.9c-1.8,4.3-3.8,8.5-5.6,12.7
	c-1.2,2.7-2.4,5.4-3.6,8l-0.2,0.4c-1,2.4-2.1,4.8-5.4,5.1l0.5,4.3c5,0.6,5.2,0.8,8.1,5c0.3,0.4,0.6,0.9,0.9,1.3
	c0.7,1,1.4,2.1,2.1,3.1c0.1,0.2,0.2,0.3,0.4,0.5c0.4,0.6,0.9,1.3,1.4,1.5c3.5,1.4,6.1,3.8,8.8,6.1c0.8,0.8,1.7,1.5,2.5,2.2
	c1.2,1,2.4,1.4,4.3,1.5c3.1,0.2,6-0.8,8.8-1.7c0.8-0.3,1.5-0.5,2.3-0.8c1.4-0.4,2.8-0.8,4.2-1.1c3.4-0.9,6.9-1.8,9.8-3.5
	c2.8-1.8,5.1-4.5,7.3-7.1c1-1.1,2-2.3,3-3.4c1.3-1.4,2.5-2.7,3.8-4.1l1.6-1.7l-0.1-0.4c-5.9,0.8-10.4-2-14.8-4.6
	c-0.8-0.5-1.5-0.9-2.3-1.4C297.3,289.4,294.8,287.7,294.8,283.8L294.8,283.8L294.8,283.8z"/>
<path class="st0" d="M305.4,291.7c3.9,3.2,8.5,3.5,12.5,3.5c2.5,0,4.8-1.6,5.7-3.9c1.5-3.7,0.4-7-1-9.8c-0.3,0.1-0.5,0.1-0.8,0.2
	c-0.7,0.2-1.4,0.4-2.1,0.6l-2,0.7c-3.4,1.2-7,2.4-10.5,3.6c-2.5,0.9-4.3,0.6-6.1-0.9c-0.9-0.7-1.9-1.3-3-2c-0.4-0.2-0.8-0.5-1.2-0.8
	c-0.1,2.4,0.3,4,2.4,5C302,289.3,303.9,290.5,305.4,291.7L305.4,291.7L305.4,291.7z"/>
<path class="st0" d="M51.9,204.1c15.5,11.4,31,23.4,45.3,34.6c3.3,2.6,6.7,3.9,10.7,4.1c2.3,0.2,4.1-0.4,5.8-1.7
	c5.8-4.6,11.7-9.2,17.5-13.7c3-2.3,5.9-4.6,8.9-6.9c0.5-0.4,0.9-0.8,1.3-1.2l0.4-0.4c-1.3-2.7-3.2-4-6.1-4.1c-1,0-2.3-0.5-2.8-1.2
	l-0.3-0.4c-1.5-2.2-3.1-4.5-2.9-7.6c0.2-5.2,0.1-10.6,0.1-15.7l0-3c0-1.1,0-2.5-0.6-3.1c-1.8-1.9-1.8-4-1.5-6
	c0.2-1.6-0.2-2.8-1.3-3.7c-0.4-0.4-0.8-0.8-1.2-1.2c-0.5-0.5-0.9-1-1.4-1.4c-1.8-1.3-2.1-3.2-2.4-5c-0.1-0.5-0.2-1-0.3-1.5
	c-0.5-2.1,0.7-3.3,1.8-4.2c0.3-0.2,0.5-1,0.4-1.5c-0.6-3.1-1.3-6.2-2.1-9.2c-0.1-0.5-0.6-1.1-1.1-1.2c-0.4-0.1-0.8-0.3-1.2-0.5
	c-2.4-0.9-4.7-1.8-7.3-1.2c-3.9,0.8-7.9,1.6-11.7,2.3c-4.1,0.8-8.4,1.6-12.6,2.4c-1.2,0.2-2.3,0.8-3.4,1.4c-0.3,0.2-0.7,0.4-1,0.5
	c-3.4,1.7-4.3,4.1-3.2,8c0.9,3.3,1.5,6.6,2.1,10.1c0.3,1.6,0.5,3.1,0.8,4.8l0.1,0.4l-0.4,0c-1,0.1-1.9,0.1-2.8,0.2
	c-2,0.1-3.9,0.3-5.8,0.2c-2.1-0.1-3.3,0.7-4.3,2.5c-0.7,1.4-1.6,2.7-2.4,3.9c-0.6,0.9-1.2,1.8-1.7,2.8c-0.9,1.5-2,2.3-3.8,2.7
	c-3.4,0.7-6.8,1.6-10.1,2.4c-1.3,0.3-2.5,0.6-3.8,0.9C46.5,197.8,47.8,201.1,51.9,204.1L51.9,204.1L51.9,204.1z"/>
<path class="st0" d="M34.8,191.5l-1,0.6c-2.8,1.6-5.8,3.3-8.5,5.2c-1.3,0.9-3,2.3-4.2,4.1c-4.7,7.5-9.3,15.2-13.8,22.6l-2.9,4.8
	c-0.3,0.6-0.6,1.2-0.9,1.9c-0.1,0.1-0.1,0.3-0.2,0.5h18.4l1.1-9.5l4.8-0.5V208h17.7v-16.8l0.2-0.1c0.5-0.1,0.9-0.3,1.3-0.4
	c0.8-0.3,1.5-0.5,2.2-0.6l1.7-0.4c3-0.7,6.1-1.5,9.2-2.1c1.8-0.4,3-1.2,3.9-2.8c0.5-1,1.1-1.9,1.7-2.8c0.7-1.1,1.5-2.3,2.1-3.5
	c1.2-2.3,2.9-3.3,5.6-3.1c1.6,0.1,3.2,0.1,4.9,0.1c0.7,0,1.4,0,2.1,0l-3.5-18.1c-1.6,0-3.1,0-4.6,0c-3.7,0.1-7.2,0.1-10.8-0.1
	c-3.3-0.2-5,0.9-5.7,3.7c-1,3.7-3.3,6.1-7,7.3c-0.2,0.1-0.5,0.2-0.7,0.3c-0.2,0.1-0.5,0.3-0.8,0.4c-1.8,0.6-2.9,1.8-3.7,4.1
	c-0.9,2.7-1.9,5.4-2.9,8c-0.8,2.2-1.7,4.5-2.5,6.8C37.3,189.3,36.4,190.5,34.8,191.5L34.8,191.5L34.8,191.5z"/>
<path class="st0" d="M129.6,180.4c0.4,0.6,1,1,1.7,1.4c0.2,0.1,0.4,0.2,0.6,0.4c0.1-0.1,0.2-0.3,0.3-0.4c0.4-0.5,0.7-0.9,0.8-1.4
	c0.2-0.8,0.2-1.6,0.2-2.5c0-0.4,0-0.8,0-1.2v-0.2l0.2-0.1c2.6-0.9,3.8-3,5-5.2c0.5-0.9,1-1.9,1.7-2.8l-6.6-2.8l0.1-0.3
	c0.2-0.4,0.4-0.8,0.5-1.2c0.3-0.7,0.6-1.2,0.6-1.7c0.1-0.6,0.2-1.2,0.2-1.9c0.3-1.8,0.6-3.7,0-5.1c-0.9-2.2-1.3-3.8-0.2-6
	c0.4-0.8,0.2-2.4-0.3-2.9c-0.7-0.7-2.3-1.3-3.3-1.1c-2,0.6-4,1.4-5.9,2.2c-0.7,0.3-1.4,0.6-2.1,0.9c0.2,0.9,0.4,1.8,0.5,2.6
	c0.4,2.1,0.8,4.1,1.3,6l0.1,0.3c0.4,1.8,0.9,3.7-1.4,5.2c-0.5,0.3-0.6,1.8-0.7,2.3c-0.3,3.1,1.8,5,3.8,6.6c2.5,2,3.4,4.1,2.8,6.7
	C129.6,178.6,129.3,179.9,129.6,180.4L129.6,180.4L129.6,180.4z"/>
<path class="st0" d="M174.7,319.2c0.1-3.7,2.8-5,5.3-6.3c0.3-0.1,0.5-0.3,0.8-0.4l0.2-0.1l10.8,7.1l0.8-1c0.7-0.9,1.3-1.7,1.9-2.5
	c1.4-1.9,3.2-2.6,6.1-2.4c4.1,0.3,8.3,0.4,12.3,0.6c1.2,0,2.5,0.1,3.8,0.1c0.6,0,1.1,0,1.8-0.1c0.2,0,0.4,0,0.7,0l-19.8-20.6
	l2.9-6.1c-0.6-0.3-1.1-0.6-1.6-0.8c-1-0.5-1.8-0.9-2.6-1.1l-0.3-0.1c-2.8-0.7-6.2-1.5-8.1,0.3c-1.2,1.2-2.5,2.3-3.8,3.4
	c-3.6,3-7.3,6.1-7.9,11.4l0,0.3h-0.3c-0.9,0-1.8-0.1-2.6-0.2c-1.9-0.2-3.6-0.4-4.6,0.3c-1.7,1.2-3.5,1.2-5.1,1.3
	c-0.8,0-1.6,0-2.4,0.1c-0.4,0.7-0.8,1.4-1.1,2.2c-1,1.8-1.9,3.7-3.1,5.5c-1,1.6-0.9,3.2,0.2,4.5c1.7,2,3.5,4,5.4,6.1
	c0.7,0.8,1.4,1.5,2.2,2.4C168.4,319.9,171,318.7,174.7,319.2L174.7,319.2L174.7,319.2z"/>
<path class="st0" d="M232.7,377.5c-0.4-1.2-0.7-2.4-1.1-3.6c-1-3.5-2.1-7.1-3.3-10.6c-1.5-4.3-2.1-8.8-1.9-13.5
	c0.1-2.6,0.7-4.5,1.9-6.4c3.4-5.1,6.2-9.5,8.6-13.6c0.8-1.3,1.3-3.3,1-3.7c-1.2-1.3-1.3-2.8-1.4-4.2c0-0.6-0.1-1.2-0.2-1.8
	c-0.1,0-0.2-0.1-0.4-0.1c-0.5-0.1-1.1-0.3-1.3-0.7c-1.4-2.2-3.5-2.3-5.8-2.4c-0.3,0-0.6,0-0.9,0c-2.4-0.1-4.9-0.2-7.3-0.3
	c-5.6-0.2-11.4-0.5-17-1c-4.8-0.4-7.8,0.8-10.1,3.9c-0.4,0.5-0.9,1-1.5,1.4c-0.2,0.2-0.5,0.4-0.8,0.6l-0.2,0.2l-10.4-6.6
	c-3.6,2-3.6,2-3.9,5.3c-0.2,2.3-0.5,4.5-0.8,6.8c-0.4,3.2-0.8,6.5-1.1,9.7c-0.2,2.1-1,3.4-2.5,4.4c-0.6,0.4-1.2,0.9-1.7,1.3
	c-0.4,0.3-0.8,0.6-1.2,1c-2.5,1.8-3.8,4.3-3.4,6.7c0.9,5.3-1.9,8-5.1,10.1c-1.5,1-2.9,2.1-4.1,3.4c-1.6,1.7-3.4,2.2-5.2,1.6
	l-2.6,3.7h3.6c3,0,5.9,0,8.7,0c4.6,0,7.4,2.4,7.9,6.9c0.2,2,1.4,3.1,3.4,3.2c0.4,0,0.9,0,1.3,0c0.7,0,1.3,0,2,0
	c2.2,0.2,3.5-0.5,4.1-2.4c0.7-2.1,2.3-3,4.6-2.4c1.5,0.4,3,0.8,4.6,1.2c0.7,0.2,1.4,0.4,2.2,0.6l0.2,0.1l1.6,16.7
	c0.6-0.1,1.1-0.1,1.7-0.1c3.5,0,6.4,1.2,9.7,3c3.7,2,7.7,3.8,11.5,5.4c1.8,0.8,3.6,1.5,5.3,2.3c0.2,0.1,0.5,0.2,0.7,0.3
	c0.9,0.3,1.8,0.7,2.2,1.4c1.4,2,3.1,1.8,5.3,1.3l-0.4-6.4l-8.4-4.3v-0.2c-0.3-4.9,1.5-8.7,3.3-12.3c0.3-0.6,0.6-1.2,0.9-1.8l0.1-0.2
	l8.1-0.4c-0.1-0.4-0.2-0.7-0.2-1C233,378.8,232.9,378.2,232.7,377.5L232.7,377.5L232.7,377.5z"/>
<path class="st0" d="M60.2,262.7c-1.2,0.1-2.1,0.1-3.1,0.1c-1.8,0-3.6,0-5.4,0.1c-4.9,0.1-9.9,0.2-14.8,0c-3.3-0.1-5.9,0.9-8.7,3.5
	c0.5,1.5,1.6,2.7,2.5,3.9c1.5,1.8,3.1,3.7,3,6.5h9.2l3.3,9l12.2-0.6c0.2-0.5,0.4-1.1,0.6-1.6c0.5-1.3,1-2.5,1.3-3.7
	c0.7-2.6,2.2-4.6,4.6-6.3c4-2.8,8.1-5.8,12.6-9.4c1.7-1.4,3.7-2.1,6.2-2.2c4.7-0.4,9.3-0.8,14.3-1.3c1.8-0.2,3.7-0.4,5.6-0.5
	l1.8-15.4c-4,0-6.7-2.1-9.2-4.1l-0.2-0.1c-3.4-2.6-6.8-5.2-10.2-7.8c-6.2-4.6-12.5-9.5-18.6-14.4c-3.3-2.7-6.7-3.4-11.5-2.5
	l6.6,46.8l-0.4,0C61.3,262.6,60.7,262.7,60.2,262.7L60.2,262.7L60.2,262.7z"/>
<path class="st0" d="M97.1,277.6c-0.8-1.1-1.5-2.1-2.2-3.1c-2.4-3.5-4.7-6.7-7.1-9.9c-0.4-0.5-1.4-1-2.1-1c-3-0.1-5.2,0.6-7.1,2.1
	l-0.1,0.1c-3.5,3-7.2,6-11.1,8.4c-4.2,2.6-5.3,6.7-6.3,10.7c-0.2,0.9-0.1,1.8,0.4,2.4c0.5,0.7,1.5,1.1,2.6,1.2c1.4,0,2.8,0,4.2,0
	c0.5,0,1,0,1.5,0l1.9-5.5l0.2,0c5.2-0.6,9.3-0.4,13.1,0.6c1.3,0.4,3,0.5,3.9-0.1c2.1-1.2,3.9-2.7,6-4.3
	C95.6,278.8,96.4,278.2,97.1,277.6L97.1,277.6L97.1,277.6z"/>
<path class="st0" d="M137.7,213.1c1.3,0.3,3,0.8,3.7,1.9c2.1,3.5,5.4,4.5,8.6,5c1.2,0.2,2.4,0.5,3.6,0.8c1.1,0.3,2.2,0.6,3.3,0.8
	c1.2,0.2,2.3,0.2,2.8-0.2c0.9-0.6,1.7-0.9,2.6-0.9c1.2,0,2.3,0.5,3.5,1.2c3.7,1.9,7.3,3.8,11,5.7c5.9,3.1,12,6.2,17.9,9.4
	c2.4,1.3,4.8,1.7,8.5,1.5c-0.4-10.5-0.5-21.1-0.6-31.3c-0.1-10.3-0.2-21-0.6-31.4c-0.4-0.1-0.7-0.1-1.1-0.2
	c-0.8-0.2-1.4-0.3-1.9-0.3c-3.4-0.1-5.7-1.4-7.1-4c-0.4-0.8-1.1-1.5-1.4-1.5c-0.5,0-1-0.1-1.4-0.1c-2.5-0.2-5.1-0.4-7.5,0.1
	c-1.4,0.3-2.6,1.5-3.8,2.7c-0.3,0.3-0.6,0.6-0.9,0.8c-0.5,0.4-0.7,0.9-0.7,1.4c0,0.6,0.3,1.1,0.9,1.7c1.2,1.1,2.8,2.6,2.1,5.1l0,0.1
	l-0.1,0.1c-0.2,0.1-0.5,0.2-0.8,0.4c-0.6,0.2-1.2,0.5-1.7,0.9c-2.6,1.7-5.2,1.6-8.1-0.1c-1.8-1.1-3.9-1.9-5.8-2.7l-0.5-0.2
	c-2.2-0.9-3.9-2.3-5.1-4.3c-0.6-1-1.4-2.5-2.4-2.9c-3.1-1.1-6.2-2-9.3-2.9c-1-0.3-2-0.6-3-0.9l-1.7,2.3c-1.8,2.4-3.5,4.6-5.1,6.8
	c-0.1,0.2-0.2,0.5-0.3,0.9c0,0.2-0.1,0.4-0.1,0.6c-0.1,0.4-0.2,0.9-0.3,1.4c-0.2,1.5-0.4,3.2-2.7,3.7c-0.1,0.2-0.2,0.8-0.2,1.2
	c0,1.8,0,3.5,0,5.3c0,5.3-0.1,10.8,0.1,16.2C132.2,210.1,134.2,212.2,137.7,213.1L137.7,213.1L137.7,213.1z"/>
<path class="st0" d="M97.4,274.6c0.3,0.4,0.5,0.8,0.8,1.1c0.6,0.6,1.5,1,2.6,1h0c1.1,0,2.1-0.4,2.7-1.1c0.3-0.3,0.5-0.7,0.8-1.1
	c0.1-0.2,0.2-0.4,0.4-0.6c3.3-4.7,7.3-5.6,12.3-2.6c0.3,0.2,0.7,0.4,1,0.6c1.1,0.7,2.1,1.4,3.2,1.5c11.1,1.5,19.1,0.2,26-4.2
	c0.2-0.1,0.4-0.3,0.6-0.4c1.9-1.2,4-2.4,3.9-5.1c0-2.8,1.5-4.6,3-5.9c1.3-1.2,2.8-2.5,4-4.1c0.8-1,1.4-2.2,1.6-3.4
	c0.2-1.1,0.3-2.2,0.4-3.3c0.1-1.5,0.2-3,0.6-4.4c1.5-5.4,0.5-10.7-3.1-16.6c-0.1-0.1-0.2-0.3-0.2-0.4c-0.5-1.5-1.5-2.4-3.3-2.7
	l-1.3-0.3c-2.4-0.5-4.8-1-7.1-1.8c-1.9-0.6-3.2-0.3-4.9,1.1c-8.7,6.9-17.4,13.7-24.1,18.8c-0.5,0.4-0.9,0.8-1.4,1.1
	c-2.3,1.9-4.6,3.9-8.3,2.9l-2.1,16.9l-15.7,1.8l7.3,10.6C97.1,274.3,97.2,274.4,97.4,274.6L97.4,274.6L97.4,274.6z"/>
<path class="st0" d="M72.8,312.1c-3.8-4.7-5-9.8-3.6-15.8c0.3-1.2,0.3-2.6,0.3-4c0-0.6,0-1.2,0.1-1.8c-0.3,0-0.7,0.1-1,0.1
	c-4,0.3-7.8,0.7-10.4-3c0-0.1-0.3-0.2-0.5-0.2l0,0c-0.9,0-1.8,0-2.6,0c-2.8-0.1-5.6-0.2-8.4,0.8v1.7c0,0.5,0,1.1,0.1,1.6
	c0.2,2.7,0.4,5.5-2.7,7.6c-0.4,0.3-0.7,1-1,1.7c-0.1,0.3-0.3,0.7-0.4,1c0.3,0.4,0.7,0.8,1,1.2c0.8,1.1,1.7,2.1,2.6,3
	c1.8,1.9,2.7,3.9,2.6,6.5c0,1.4,0.1,2.9,0.3,4.5c0.1,0.6,0.2,1.3,0.2,2.1c6.6-6.2,14.3-7.7,24.6-4.9c-0.1-0.3-0.3-0.5-0.4-0.7
	C73.3,312.9,73.1,312.4,72.8,312.1L72.8,312.1L72.8,312.1z"/>
<path class="st0" d="M287.4,144.6c-0.8-0.5-1.8-1.1-2.6-1c-1.9,0.1-3.8,0.4-5.7,0.8c-0.7,0.1-1.3,0.2-2,0.3l-2,10.2
	c-0.5,2.3-1.2,4.4-4,4.7c-0.1,0.3-0.2,0.6-0.4,1c-0.1,0.2-0.3,0.5-0.4,0.7c-0.1,0.1-0.2,0.2-0.2,0.3c-0.2,0.2-0.4,0.4-0.5,0.5
	s-0.4,0.3-0.6,0.4c-0.2,0.1-0.4,0.3-0.7,0.4c-0.4,0.2-0.8,0.4-1.3,0.5c-0.1,0.1-0.2,0.3-0.3,0.4c-0.2,0.3-0.4,0.6-0.6,0.9
	c-0.1,0.2-0.3,0.3-0.4,0.5c-2.4,2.3-2.4,2.3-1.1,5.8c0.7,0.1,1.4,0.1,2.1,0.2c2,0.2,4.1,0.4,6.2,0.6c0.1,0,0.2,0,0.3,0.1l-0.2-0.2
	l0.6,0.3c0,0,0.1,0,0.1,0.1l-0.2-0.2l0.1,0.1l-0.9-1.2l2.7,2.2h0.1v0.1c0.2,0.1,0.5,0.3,0.7,0.4c0.1,0.1,0.3,0.1,0.4,0.2h0
	c0.5,0.3,1,0.6,1.5,0.9c0.1,0.1,0.2,0.1,0.2,0.2c1.7,1.3,3.3,2.7,5,4.1c2.2,1.8,4.6,3.7,6.9,5.5c1.1,0.9,2.4,1.4,3.4,1.6
	c1.8,0.2,3.6,0.1,5.4,0.1c0.6,0,1.2,0,1.8,0c1.7-4.6,1.8-4.7,4.9-6.9l0.2-0.1l4.5,2.1l0.2-0.3l-2.1-2.8c-2.1-2.8-4.2-5.7-6.5-8.4
	c-0.5-0.6-1.7-1-2.6-1.1c-1.9,0-3.2-0.8-4.4-2.5c-0.5-0.7-1-1.4-1.5-2c-0.3-0.4-0.6-0.8-1-1.2c-2.4-3.1-2.2-5.7,0.6-8.7
	c1.2-1.3,1.2-2.2,0.1-3.4c-0.8-0.8-1.4-1.8-2-2.7c-0.2-0.4-0.5-0.7-0.7-1.1l0,0c-0.3-0.2-0.5-0.4-0.8-0.6c-0.4-0.3-0.8-0.6-1.2-0.9
	C288.1,145.1,287.8,144.9,287.4,144.6L287.4,144.6L287.4,144.6L287.4,144.6z"/>
<path class="st0" d="M263.9,164.1c0.8-0.4,1.7-0.9,2.5-1.4l4.2-3.8c2.8-2.6,3.2-5.9,3.5-9.4c0.1-1.6,0.3-3.2,0.7-4.8l-21.2,2.1
	l-2.6,4.8l-4.4,0.3l-0.4,3.5l4.8,2.5v11.3c2.5,0.6,4.6,0.1,7-1.7c0.3-0.2,0.7-0.5,1-0.7c0.6-0.4,1.3-0.8,2.1-1.3
	c0.4-0.2,0.7-0.4,1.1-0.6C262.8,164.7,263.3,164.4,263.9,164.1L263.9,164.1L263.9,164.1z"/>
<path class="st0" d="M305.8,181c-3.2,1.8-2.7,4.4-2.2,7.4v0.1l5.4,1.9v-7.7L305.8,181"/>
<path class="st0" d="M328.8,220.6l-0.1-0.2c-0.2-0.5-6.4-10.9-7.3-12.1c-2.6-3.3-5.5-7.3-8.2-11.4c-1.7-2.7-3.9-4.3-7.1-5.5
	c-1.4-0.5-2.7-1.4-4-2.3c-0.5-0.4-1.1-0.8-1.6-1.1c-1.8-0.5-3.9-0.6-6.1-0.3c-2,0.3-3.7-0.3-5.5-1.8c-2.4-2.1-4.8-4.1-7.2-6.1
	c-1.8-1.5-3.6-3-5.4-4.5c-0.1-0.1-0.2-0.2-0.3-0.2l0,0c0,0,0,0-0.1-0.1c-0.3-0.3-0.6-0.7-0.9-1.1c0,0,0-0.1-0.1-0.1
	c-0.1-0.1-0.2-0.3-0.3-0.4c-0.6,0-1.3,0-1.9,0c-1.2,0-2.4,0-3.6-0.1h0c-0.1,0-0.2,0-0.3,0c-0.3,0-0.6-0.1-0.9-0.1
	c-3.2-0.6-5.8,0.5-8.1,3.4c0,0,0,0.1,0.1,0.1c0.1,0.2,0.2,0.4,0.4,0.6c2.1,2.9,2,4.5-0.5,6.7c-1.2,1.1-2.5,2-3.8,2.9
	c-0.5,0.4-1,0.7-1.5,1.1c-0.4,1.3-1.4,1.7-2.4,1.8l-0.6,0.4l0.4-0.4c-0.2,0-0.4,0-0.5,0c-0.7,0-1.3,0-2,0c-0.6,0-1.1,0-1.7,0l0,0
	c-0.4,0-0.7,0.1-0.9,0.3c-0.2,0.2-0.3,0.6-0.3,1.2v0.3c0.2,0.9,0.6,1.9,1.1,2.8c0,0.1,0.1,0.1,0.1,0.2c0.3,0.6,0.7,1.2,1.2,1.8l0,0
	l0,0c0.2,0.3,0.4,0.5,0.6,0.8c0.2,0.3,0.4,0.5,0.6,0.8c2.7,3.2,5.4,6.4,8,9.6c3.4,4.1,7,8.4,10.5,12.6c2.1,2.4,2.9,4.7,2.5,7.3
	c-0.5,4.3,1.3,7.1,5.4,8.5c2.3,0.8,4,2.2,5.3,4.6c1.7,2.9,3.4,5.7,5.3,8.7c0.7,1.2,1.5,2.3,2.2,3.5l6.8-5.8l11.3,6.4
	c0.4-0.3,0.7-0.6,1-0.9c0.8-0.7,1.5-1.4,2.2-2.1c3.7-4.4,8.4-7.2,14.3-8.6c4.9-1.1,9.7-3,14.9-5.6c5.9-3.1,8.7-7,8.9-12.6
	c0-0.1,0-0.3-0.1-0.5c0-0.1,0-0.3-0.1-0.4c-3.6-1.2-7.4-1.4-11.1-1.5c-2.8-0.1-5.7-0.3-8.4-0.8L328.8,220.6L328.8,220.6L328.8,220.6
	z"/>
<path class="st0" d="M248.8,165.5c0-0.4,0-0.8,0-1.1c0-1,0.1-1.9,0.2-2.8c0.2-1.2,0-2-0.4-2.6c-0.4-0.5-1.2-0.8-2.2-0.9l-1.4,7.2
	L248.8,165.5L248.8,165.5L248.8,165.5z"/>
</svg>
