<?xml version="1.0" encoding="UTF-8"?><svg id="Layer_1" role="img" aria-describedby="america-title" xmlns="http://www.w3.org/2000/svg" viewBox="0 0 384 636"><defs><style>.cls-1{fill:#42738D;}</style></defs><title id="america-title">Americas region filter</title><path class="cls-1" d="m219.84,372.75l-9.22-2.17,1.7-5.16c.2.04.39.08.57.11.45.08.8.15,1.06.32,3.02,1.96,5.69.66,7.67-.69.22-.15.44-.31.65-.46.58-.41,1.17-.84,1.8-1.13.52-.23,1.26-.27,1.68-.09,1.57.68,3.12,1.44,4.75,2.24.56.27,1.12.55,1.71.84-.02.14-.04.26-.06.38-.04.31-.08.55-.14.77-.36,1.23-.75,2.44-1.2,2.55-.46.12-1.37-.77-2.27-1.69-2.1-2.15-4.92-2.33-7.2-.47-.55.45-.87,1.25-1.04,1.85-.17.59-.24,1.18-.34,1.93-.03.27-.07.56-.11.88Z"/><path class="cls-1" d="m297.85,632.14c3.48.59,6.32-.3,8.9-2.79l-8.9-2.5v5.29Z"/><path class="cls-1" d="m207.92,359.48l-7.62-.63c-.02.33-.07.65-.11.96-.15,1.15-.27,2.06.52,2.78.56.52,1.11,1.04,1.66,1.57,2.06,1.99,4.2,4.04,6.93,5.44l1.7-4.87-3.07-5.26Z"/><path class="cls-1" d="m265.06,575.42c.33-1.34.62-2.51-.8-3.71-1.11,1.48-1.54,2.98-1.16,4.16.25.78.83,1.36,1.7,1.71-.09-.74.09-1.46.26-2.16Z"/><path class="cls-1" d="m289.79,618.31c-.38.04-.73.08-1.05.12-.98.11-1.75.19-2.49.36-1.88.44-3.12.02-4.15-1.41-1.1-1.53-2.42-2.95-3.68-4.27-1.04-1.09-1.52-2.29-1.56-3.89-.13-5.11-.35-10.54-.69-17.61-.08-1.67-.29-3.24-.63-4.67-2.4-10.17-4.88-20.68-7.46-31.04-.99-3.97-1.05-6.9-.2-9.8.33-1.12.53-2.3.73-3.44.15-.88.31-1.8.53-2.69.33-1.35.24-2.66-.3-4.23-.53-1.55-1.04-3.14-1.53-4.68-.73-2.28-1.49-4.64-2.33-6.92-.8-2.17-.92-4.38-.39-7.14,1.08-5.63,1.96-10.63,2.7-15.27.32-2.02.86-4.1,2.62-5.7,1.26-1.15,1.42-2.42.51-4.23-2.01.18-2.92-1.02-3.66-2.87-1.34-3.35-2.82-6.72-4.25-9.98-.43-.97-.85-1.94-1.27-2.91-.26-.59-.55-1.15-.86-1.75-.1-.19-.2-.38-.3-.57-.92.81-.83,1.73-.74,2.7.02.22.04.44.05.65.84,20.33,1.73,40.99,2.59,60.98l.05,1.1c.12,2.71.24,5.42.36,8.14.26,5.84.53,11.88.75,17.83.06,1.58.43,2.79,2.1,3.55,1,.45,1.93,1.02,2.91,1.63.44.27.88.54,1.34.81l.13.08-.84,17.89-.15.06c-.39.15-.8.28-1.2.41-1.95.62-3.64,1.16-2.95,4,.31.21.62.44.95.69.79.6,1.6,1.21,2.51,1.46,3.06.85,3.44,2.97,3.41,5.13-.02,1.33-.22,2.42-1.11,3.45-.56.64-1.04,1.33-1.59,2.13-.22.32-.46.66-.71,1.01.8,1.18,1.62,2.35,2.43,3.51,1.88,2.69,3.83,5.47,5.49,8.34,2.21,3.83,5.81,5.64,9.61,7.55l.34.17c.07-.45.13-.9.18-1.34.15-1.24.29-2.4.76-3.44.45-1,1.22-1.84,2.11-2.81.31-.33.62-.67.94-1.04Z"/><path class="cls-1" d="m292.33,620.45l-4.87,10.75,8.43.92c.52-4.75.93-8.87-3.56-11.67Z"/><path class="cls-1" d="m302.04,478.39c-.83-.79-2.13-1.12-3.97-1-1.47.1-2.95.25-4.51.4-.69.07-1.39.14-2.12.21l-.63,1.73c-.48,1.33-.95,2.61-1.4,3.88q-1.43,4.06,1.41,7.21l.19.21c1.3,1.44,2.51,1.98,4.18,1.83l.25-.02c1.34-.12,2.85-.25,3.99.31,1.82.89,3.55,2.02,5.21,3.11.68.44,1.35.88,2.02,1.3l.15.09-.04.17c-.22.99-.61,1.9-.98,2.79-.76,1.79-1.48,3.48-.55,5.38h1.56c1.58,0,3.08.01,4.6-.02.72-.01,1.08-.16,1.17-.28.36-.5.75-.99,1.13-1.46,1.19-1.49,2.41-3.03,2.69-5q.75-5.35-2.62-9.68l-.08-.1c-.18-.23-.37-.46-.55-.68-.38-.46-.78-.94-1.11-1.46-.57-.89-1.31-1.22-2.56-1.16-1.37.07-2.73.05-4.16.04-.61,0-1.23-.01-1.87-.01h-.25v-.25c0-.42,0-.83,0-1.22,0-.84,0-1.64,0-2.43.04-1.82-.34-3.09-1.17-3.88Z"/><path class="cls-1" d="m257.13,395.36l.02-.2,6.3-.69-.74-16.4c-.98-.32-1.92-.67-2.83-1-2.1-.76-4.07-1.47-6.11-1.87-3.94-.76-6.19-2.91-7.52-7.18-.91-2.93-1.02-5.05,1.1-7.23.6-.62,1.11-1.37,1.59-2.1.22-.33.44-.67.68-.99.88-1.22,1.75-2.45,2.64-3.69l.62-.87c-1.58-.63-2.54.02-3.54.86-5.32,4.46-9.64,8.01-13.61,11.2-1.35,1.08-2.09,2.14-2.41,3.45-.36,1.44-1.05,3.13-3.25,3.5.07.73.13,1.45.19,2.16.15,1.79.3,3.48.51,5.18.26,2.13-.05,4.1-.98,6.21-1.15,2.61-2.19,5.22-3.28,7.98-.43,1.09-.87,2.19-1.31,3.3.17.16.33.29.47.41.32.28.57.49.79.73,3.33,3.57,6.97,5.06,11.14,4.57,1.32-.16,2.33.38,3.18,1.69,1.07,1.65,2.19,3.28,3.27,4.85.41.6.82,1.19,1.21,1.77l8.26.47v5.95h2.62c.26-.86.51-1.72.75-2.56.63-2.15,1.22-4.19,1.91-6.23.54-1.59.28-2.81-.85-4.08-.67-.74-1.38-1.92-1.4-2.99-.02-1.47.18-2.96.37-4.39.08-.6.16-1.2.23-1.8Z"/><path class="cls-1" d="m290.27,371.66c.31-.5.63-1,.96-1.53-3.34-1.43-5.37-3.95-7.5-6.62-.77-.96-1.56-1.95-2.42-2.88-5.04,1.95-10.39,1.86-15.9-.27-1.27-.49-2.58-1-3.53-2.26-.61-.81-1.29-1.55-1.94-2.27-.22-.24-.44-.48-.64-.71-4.06,2.35-4.9,6.18-5.19,9.63l-.02.28-.45-.09c-2.19-.43-4.26-.83-4.44-3.53-2.18,2.08-2.57,3.85-1.36,6.03.5.9.75,1.96.97,2.89.3,1.29,1.06,2.02,2.64,2.52,2.99.96,5.9,1.97,8.98,3.04,1.18.41,2.38.82,3.58,1.24l.16.05v.17c.08,1.44.19,2.87.29,4.25.23,3.18.45,6.19.32,9.22-.15,3.75,1.75,6.07,3.83,8.03,1.13,1.06,4.33,1.4,5.19.55,1.43-1.4,2.76-2.87,4.18-4.42.51-.56,1.03-1.13,1.56-1.7l-4.03-2.15v-.13c-.41-3.84-.42-3.99,1.62-5.58l.12-.1,5.67,2.77c.25-.2.49-.4.73-.59.6-.48,1.16-.94,1.7-1.43,2.28-2.09,3.4-3.94,1.89-6.66-.91-1.64-.06-3.14.66-4.13.83-1.13,1.58-2.33,2.38-3.61Z"/><path class="cls-1" d="m261.5,467.51c.76-4.35,1.03-8.43.81-12.12-.4-6.62-3.89-12.11-7.77-17.6l-5.23,2.54-.13-.14c-.5-.58-1.02-1.16-1.54-1.75-1.4-1.58-2.85-3.22-4.21-4.92-.55-.69-.71-1.82-.62-2.63.1-.96.29-1.91.48-2.84.18-.9.37-1.83.47-2.74.2-1.84.99-3.06,2.55-3.97,1.48-.86,2.89-1.81,4.37-2.81.59-.4,1.19-.8,1.8-1.2l-.75-4.53c-.62-.04-1.24-.09-1.84-.13-1.58-.12-3.08-.23-4.59-.26-1.3-.03-2.17-.57-2.81-1.74-.54-.99-1.14-1.98-1.71-2.94-.34-.56-.68-1.12-1.01-1.69-.63-1.09-1.42-1.5-2.66-1.37.96,3.08-.81,5.07-2.52,7-.17.19-.34.38-.51.58-.91,1.05-1.81,2.13-2.69,3.18-.83,1-1.67,2-2.52,2.98-.44.51-.79.94-1.08,1.3-1.4,1.74-1.52,1.77-4.09,1.14-.37-.09-.79-.19-1.28-.31-4.12-.95-4.32-1.07-5.01-4.99-1.6.98-2.16,2.1-1.81,3.58.06.26.12.51.17.77.23,1.07.47,2.17.97,3.09,6.79,12.54,12.99,23.83,18.95,34.54.63,1.13,1.69,2.25,2.92,3.08,3.49,2.35,7.1,4.66,10.58,6.89,1.15.73,2.29,1.47,3.44,2.2,1.28.82,2.57,1.64,3.94,2.5l1.87,1.18c.35-.61.72-1.2,1.09-1.77.89-1.38,1.73-2.69,1.97-4.08Z"/><path class="cls-1" d="m367.75,416.39l-1.36-.63c-3.45-1.61-7.02-3.27-10.64-4.57-2.87-1.03-5.85-1.92-8.73-2.79-2.46-.74-5.01-1.5-7.48-2.35-3.64-1.25-7.52-1.98-12.21-2.3-1.05-.07-2.08-.23-3.17-.39-.5-.08-1-.15-1.52-.22l-.32-.04.12-.3c.33-.8.7-1.56,1.05-2.3.75-1.57,1.46-3.05,1.68-4.58.24-1.64.01-3.39-.21-5.08-.1-.75-.2-1.53-.26-2.29l-.02-.3c-.18-2.09-.18-2.14-2.55-2.39-.77,1.13-1.38,2.4-1.96,3.63-.99,2.09-2.01,4.26-3.92,5.91l-.12.1-.14-.06c-.24-.1-.49-.19-.73-.27-.55-.19-1.06-.38-1.53-.67-1.65-1-3.33-1.08-5.45-.26-3.04,1.18-6.17,2.25-9.2,3.29-.97.33-1.94.66-2.91,1-.57.2-1.14.35-1.74.51-.27.07-.54.14-.82.22l-.16.04-.1-.13c-.46-.57-.9-1.13-1.33-1.68-.98-1.25-1.91-2.42-2.91-3.55-1.24-1.39-1.63-2.81-1.24-4.59.19-.89.25-1.8.32-2.95.03-.39.05-.8.09-1.24l-4.99,4.88-6.3-3.21-.17,3.09,5.24,3.05-.22.23c-.69.72-1.35,1.42-2,2.09-1.48,1.53-2.87,2.97-4.17,4.48-1.18,1.37-2.49,1.66-4.1,1.66h0c-2.04,0-3.34-.56-4.37-1.86-.58-.74-1.3-1.47-2.26-2.31-.37-.32-1.04-.91-1.58-.92-1.16-.03-2.31.08-3.52.18-.41.04-.82.07-1.23.1-.05.32-.1.64-.15.95-.45,2.88-.84,5.37,1.66,7.45.56.46.8,1.68.61,2.35-.79,2.81-1.65,5.55-2.49,8.19-.26.84-.52,1.65-.77,2.44l-.04.13-.13.04c-.79.25-1.55.44-2.29.63-1.51.39-2.81.72-3.96,1.37-5.42,3.09-5.44,3.21-6.55,9.32l-.05.29c-.03.14-.07.29-.11.43-.07.24-.13.46-.11.66.02.14.03.29.04.45.05.6.11,1.22.4,1.57,1.23,1.45,2.57,2.84,3.76,4.08.38.4.75.79,1.11,1.16l5.84-1.97,3.89,6.21c.82-.35,1.64-.69,2.45-1.03,2.05-.86,3.99-1.68,5.93-2.56,2.07-.94,4.14-1.05,6.31-.36l.13.04.04.13c.21.75.43,1.5.65,2.24.5,1.72,1.02,3.5,1.46,5.26.42,1.67,1.15,2.46,2.63,2.82,1.11.27,2.21.66,3.27,1.03,1.34.47,2.73.96,4.13,1.21,4.6.81,7.11,3.31,7.66,7.66.02.14.07.28.12.43.05.14.1.27.12.41.22,1.06.85,1.55,2.11,1.64,1.11.08,2.22.24,3.28.4.45.07.89.13,1.32.19l.14.02.06.13c.12.27.22.51.32.73.18.42.33.78.51,1.12,1.53,2.87,2.99,6.71.74,10.97-.53,1.01-.4,2.01.38,2.74,1.62,1.52,2.12,3.42,1.59,5.98-.07.32-.03.67.01,1.08.01.14.03.28.04.42.51-.04,1-.08,1.48-.12,1.32-.11,2.56-.21,3.79-.34,1.19-.14,2.04.24,2.78,1.22.67.89,1.38,1.78,2.07,2.64.85,1.05,1.72,2.14,2.53,3.25.53.73,1.04,1.8.86,2.61-.73,3.36.28,5.84,3.07,7.59.17.11.2.32.22.53,0,.08.02.17.04.26l.02.1-1.21,1.84-7.87,11.96,16.24,9.08c.31-.58.59-1.16.88-1.71.67-1.33,1.3-2.59,2.07-3.77,4.11-6.32,5.74-12.64,5-19.32-.19-1.74.44-2.93,2.06-3.87,3.55-2.07,6.17-3.77,8.51-5.49,3.02-2.23,5.89-3.08,9.04-2.68.71.09,1.44.07,2.21.04.32,0,.65-.02.99-.02.51-.86,1.02-1.71,1.52-2.56,1.51-2.54,2.94-4.94,4.34-7.42.4-.72.51-1.7.56-2.47.11-1.69.18-3.37.26-5.06.12-2.65.25-5.39.49-8.07.29-3.24.29-7.02-1.88-10.47-.13-.2-.13-.44-.14-.7,0-.11,0-.23-.02-.35v-.12s.73-.69.73-.69c.5-.47,1-.94,1.51-1.41,1.03-.94,2.06-1.88,3.1-2.82,2.75-2.5,5.6-5.09,8.36-7.68.63-.59,1.33-1.49,1.37-2.24.23-3.55.34-7.04.47-10.73.04-1.18.08-2.37.12-3.57-1.31-.64-2.59-1.28-3.85-1.9-2.96-1.47-5.76-2.86-8.63-4.19Z"/><path class="cls-1" d="m320.59,617.34c.13-.04.25-.07.38-.11,2.67-.77,4.99-1.44,6.25-4.21l-2.44-1.61-4.18,5.93Z"/><path class="cls-1" d="m314.9,614.34l1.95,2.07,3.45-3.7c-2.35-.91-3.86.17-5.4,1.63Z"/><path class="cls-1" d="m293.74,462.26l-.06-.12c-.08-.16-.15-.31-.22-.44-.14-.28-.26-.52-.35-.78-.24-.68-.42-1.42-.6-2.14-.38-1.55-.78-3.14-1.73-4.08-1.06-1.03-2.76-1.49-4.4-1.94-.68-.19-1.39-.38-2.05-.61-2.1-.74-4.2-1.45-6.25-2.15l-2.69-.92-2.37-9.43c-.36,0-.72-.04-1.07-.07-.84-.07-1.63-.13-2.28.11-2.39.89-4.69,1.9-7.12,2.96-.84.37-1.69.74-2.55,1.11.13.24.26.46.39.66.33.55.61,1.02.75,1.54.23.86.49,1.73.74,2.59.74,2.53,1.5,5.15,1.81,7.79.24,2.05.03,4.17-.16,6.21-.1,1.01-.2,2.05-.24,3.06-.07,1.52-.3,3.29-1.48,4.9-.42.58-.61,1.64-.39,2.19,2.05,4.99,4.29,10.22,7.06,16.45.27.61.72,1.02,1.26,1.15.58.14,1.22-.03,1.8-.49.96-.76,1.83-1.67,2.67-2.55l.1-.11c.9-.94,1.85-1.25,3.36-1.12,2.06.18,4.13.15,6.31.11.85-.01,1.72-.03,2.59-.03.26-.65.53-1.31.81-1.98.7-1.69,1.42-3.44,2-5.21.61-1.86,1.68-2.64,3.69-2.69,1.88-.04,3.79-.22,5.48-.38.65-.06,1.29-.12,1.88-.17,3.21-4.81,1.6-8.86-.66-12.52l-6.05-.91Z"/><path class="cls-1" d="m311.04,518.27c-1.11,1-1.98,1.78-1.82,3.38.31,3,.53,5.97.76,9.12.09,1.25.19,2.51.29,3.79.32.09.62.17.92.25.71.18,1.39.36,1.98.68,3.3,1.79,5.87,1.1,8.6-2.3,1.26-1.57,2.69-2.98,4.2-4.48.61-.6,1.23-1.22,1.85-1.85l-16.17-9.18c-.21.2-.42.39-.63.58Z"/><path class="cls-1" d="m314.16,541.94c-1.44-1.72-2.8-3.34-4.07-5.04-.78-1.03-1.28-2.24-1.39-3.3-.2-1.91-.31-3.87-.43-5.75-.11-1.83-.22-3.71-.41-5.56-.19-1.87.46-3.14,1.64-4.72,2.66-3.54,5.26-7.25,7.77-10.84.94-1.35,1.89-2.7,2.85-4.06l-2.23-1.98-4.34,6.53-3.07.18-6.26.36-.07-.15c-1.71-3.46-.43-6.27.99-9.24-.48-.3-.95-.61-1.42-.91-1.21-.79-2.36-1.53-3.56-2.16-1.02-.54-2.2-1.08-3.18-.96-3.65.43-6.44-.91-8.78-4.22-.4-.56-.78-.96-1.17-1.23-.48-.33-1.1-.71-1.69-.77-2.88-.3-5.24-.48-7.42-.55-.86-.01-1.76.21-2.3.61-.93.69-1.77,1.49-2.67,2.34-.33.31-.66.63-1,.95,1.33,2.62.02,4.41-1.45,6.02-.7.76-1.26,1.99-1.51,3.27-1.21,6.21-2.31,12.33-3.26,18.2-.17,1.07-.05,2.4.35,3.64,1.42,4.49,2.82,8.55,4.25,12.4.65,1.75.76,3.46.33,5.38-.63,2.84-1.28,5.77-1.79,8.76-.2,1.15-.17,2.35.07,3.39.37,1.6.73,3.2,1.1,4.79,1.47,6.44,2.98,13.1,4.72,19.58,2.17,8.12,3.29,16.38,3.3,24.52,0,2.02.14,4.07.28,6.05.04.56.08,1.12.11,1.69l.02.33c.03.56.05,1.19.32,1.54,1.24,1.62,2.58,3.22,3.87,4.76.44.53.89,1.06,1.33,1.59l1.15-.13c1.72-.19,3.45-.38,5.17-.58.03,0,.13-.09.21-.15.05-.04.1-.09.17-.14-.15-.33-.31-.67-.46-1-.41-.91-.84-1.85-1.33-2.74-.73-1.31-.68-2.37.17-3.56,1.35-1.9,2.54-3.62,3.5-5.51,1.09-2.15,2.08-4.39,3.04-6.56.39-.88.78-1.75,1.17-2.62l-5.99-4.99.05-.16c.4-1.29.79-2.57,1.18-3.84,1.01-3.28,1.96-6.37,2.98-9.49.48-1.46.5-2.67.07-3.9-.36-1.03-.61-2.09-.89-3.21-.12-.5-.25-1.02-.39-1.56l-.06-.22,7.86-2.79-1.2-8.15h.29c.44,0,.85,0,1.24,0,.8,0,1.51.01,2.23,0,1.6-.05,4.51-.42,5.98-2.4,1.6-2.15,2.91-4.57,4.18-6.91.51-.93,1.03-1.89,1.56-2.82-.58-.7-1.14-1.37-1.69-2.03Z"/><path class="cls-1" d="m102.21,107.07c2.44,2.49,3.06,5.33,2,9.21-.51,1.88.09,3.44.73,5.1.13.33.26.67.38,1,.07.07.55.15.94.21.26.04.54.08.84.14v-9.84h2.97l.7,24.05c.47-.4.93-.78,1.36-1.15,1.36-1.14,2.53-2.12,3.61-3.2.36-.35.48-1.26.39-1.92-.31-2.39-.73-4.8-1.12-7.14l-.19-1.1c-.61-3.6-1.23-7.2-1.87-10.91l-.77-4.47c-.4,0-.8.01-1.19.02-1.08.02-2.11.05-3.13-.07-.75-.08-2.1-.34-2.75-1.08-1.62-1.86-3.17-3.85-4.67-5.78-.57-.73-1.14-1.46-1.72-2.2l-.11-.13,34.6-58.66c-.07-.09-.14-.18-.19-.25-.14-.19-.25-.33-.37-.42-3.37-2.64-6.74-5.28-10.11-7.92-7.45-5.83-14.9-11.67-22.33-17.52-.9-.71-1.69-.72-2.83-.49-8.01,1.58-16.17,3.15-24.06,4.68l-9.64,1.86c-.63.12-1.27.27-1.93.43-.27.06-.55.13-.84.19l-1.43,11.38,8.25,5.02-3.2,8.24-.26-.19c-.34-.25-.65-.47-.94-.68-.56-.4-1.04-.74-1.49-1.11-.89-.72-1.77-1.44-2.66-2.16-1.48-1.21-3.01-2.46-4.54-3.66-.32-.25-1.28-1.01-1.84-.89-2.43.49-4.9,1.11-7.28,1.7-.77.19-1.54.38-2.31.57.17.95.34,1.87.51,2.78.43,2.32.83,4.52,1.15,6.73.2,1.41.81,2.09,2.16,2.41,1.39.33,2.79.71,4.15,1.08,1.19.33,2.43.66,3.64.96,1.74.43,2.41,1.43,2.1,3.14l-.02.14-.13.05c-.16.06-.31.13-.47.19-.36.15-.73.3-1.12.43l-2.13.67c-3.59,1.14-7.31,2.31-10.98,3.42-1.27.39-2.06.96-2.63,1.93-1.1,1.88-2.25,3.77-3.35,5.6-1.43,2.36-2.9,4.8-4.3,7.22-.51.89-.75,2.05-.6,2.89.86,4.85,1.91,9.73,2.84,14.03.14.63.5,1.25.9,1.56,1.06.81,2.16,1.52,3.33,2.28.4.26.8.52,1.19.78l4.79-4.07.07.43c.07.42.19.84.29,1.21.21.79.38,1.42.08,1.78-.48.58-.94,1.21-1.39,1.81-1.36,1.85-2.77,3.77-5.07,4.81-1.97.89-3.94,1.8-5.91,2.7-3.13,1.44-6.37,2.93-9.58,4.34-2.22.97-4.53,1.67-6.5,2.22-2.2.62-4.46,1.17-6.65,1.7-.89.22-1.79.44-2.68.66-.03.26-.06.5-.08.73-.07.61-.14,1.14-.16,1.67-.02.38,0,.76.04,1.21,0,.12.02.25.03.39.25-.06.49-.12.73-.18.68-.16,1.32-.32,1.95-.5,3.37-.97,6.74-1.94,10.11-2.91,8.15-2.35,16.58-4.79,24.9-7.08,2.99-.82,5.02-2.16,6.59-4.34,4.33-6,9.85-12.69,17.95-16.88.08-.04.15-.09.22-.14.09-.06.18-.13.28-.18.37-.19.74-.38,1.3-.65l1.65-.82-5.88,10.24c4.25,1.33,7.94.97,11.57-1.12,1.41-.81,2.91-1.4,4.51-2.04.73-.29,1.49-.59,2.25-.91l.26-.11,2.41,8.9c6.32-.08,10.42,3.55,14.72,7.94Z"/><path class="cls-1" d="m263.81,119.42c2.7-1.62,4.92-2.24,6.76-2.24,3.21,0,5.26,1.89,6.67,3.7l2.74-2.28-11.12-11.91c-3.42,3.29-6.55,7-5.06,12.72Z"/><path class="cls-1" d="m101.55,99.03c.68.91,1.32,1.77,1.96,2.62q3.38,4.45,9.15,4.54c.18,0,.33.07.52.16.09.04.21.1.35.16l.13.05,4.92,26.63-7.98,5.75c.15,2.95.44,5.18,2.56,6.89,1.86,1.49,1.72,3.84,1.45,5.47-.1.59-.24,1.18-.38,1.75-.12.48-.24.98-.33,1.47-.7,3.79-1.08,8.06,3.33,10.74.17.1.29.24.41.37.08.09.17.18.26.25,2.99,2.2,4.59,4.83,4.89,8.04.03.32.2.65.39.99.07.13.13.25.19.38l7.44,1.21c5.71.93,11.37,1.85,17.02,2.78,10.62,1.74,21.23,3.49,31.85,5.23l17.94,2.95c1.24.2,2.48.38,3.72.56,2.76.4,5.62.8,8.36,1.5,2.89.73,5.21,2.58,7.46,4.36.93.74,1.9,1.5,2.89,2.17,1.76,1.19,3.76,2.31,6.39,2.44,4.8.23,8.61,2.88,11.33,7.89,1.3,2.4,2.55,4.3,4.41,5.8.48.39.96.76,1.49,1.17l.94.73-1.57,2.39c-1,1.53-1.93,2.94-2.86,4.35-.98,1.48-1.96,2.95-2.97,4.46l-1.29,1.94,1.69,2.26c1.11-.37,2.21-.75,3.31-1.12,2.63-.9,5.11-1.76,7.7-2.47,3.95-1.09,7.57-2.88,11.05-5.49.5-.38,1.01-.77,1.51-1.17,1.89-1.49,3.84-3.03,6.04-3.7,2.04-.62,4.31-.53,6.51-.44.91.04,1.84.08,2.75.06,1.29-.02,2.58-.01,3.84,0,.49,0,.97,0,1.45,0,.12-.59.2-1.17.27-1.73.19-1.38.34-2.57,1.05-3.37.79-.9,2.06-1.36,3.29-1.8.52-.19,1.05-.38,1.54-.6l.08-.04c.07-.04.14-.07.21-.1.92-.29,1.78-.21,2.43.23.61.41.98,1.12,1.04,1.99.09,1.27.1,2.57.12,3.82,0,.82.02,1.64.05,2.46.02.62.09,1.23.17,1.93.03.24.05.49.08.76l6.25-1.9-.26.52c-.67,1.35-1.57,2.33-2.6,3.38-2.3,2.36-2.33,2.39-.97,5.4,3.8.54,3.82.51,5.95-2.55.04-.05.07-.1.11-.15.08-.1.15-.2.2-.31.7-1.51,2.04-1.73,3.13-1.76,1.38-.03,2.79-.13,4.16-.23.55-.04,1.1-.08,1.66-.12l3.51-6.61c-1.38-.66-2.12-.04-2.77,1.09-.94,1.61-2.59,2.26-4.92,1.96-2.32-.3-3.51-2.6-3.85-4.64-.54-3.21.42-6.08,1.34-8.85.48-1.43.48-2.43.02-2.96-.45-.51-1.4-.64-2.82-.36-1.84.36-3.71.75-5.52,1.14-1.18.25-2.36.5-3.54.75-.41.08-.83.12-1.23.16-.18.02-.37.04-.55.06l-.72.08.51-.51c1.86-1.86,3.84-3.45,5.76-4.99.54-.44,1.08-.87,1.62-1.31,1.06-.87,2.4-1.72,4.27-1.4,1.2.2,2.44.36,3.64.52,2.6.34,5.3.69,7.82,1.48,3.83,1.21,6.32.43,8.3-2.63,1.51-2.33,3.93-3.1,5.87-3.51,2.08-.44,4.1-.97,6.24-1.54.86-.23,1.73-.46,2.6-.68-.02-.38-.06-.75-.09-1.1-.07-.87-.14-1.69-.09-2.5.13-2.04-.56-3.74-2.3-5.68-1.47-1.64-2.9-3.37-4.27-5.05-.99-1.2-2.01-2.45-3.04-3.65-1.25-1.45-1.9-2.88-2.11-4.64-.4-3.32-.94-6.68-1.46-9.93-.15-.92-.29-1.84-.44-2.76-.23-1.49-.5-2.98-.78-4.59-.11-.65-.23-1.31-.35-2.01l-11.86,7.94-5.15-2.93.06-.19c.23-.78.46-1.55.68-2.3.54-1.85,1.05-3.59,1.62-5.33.27-.83.32-1.5-.25-2.27-.94-1.26-1.88-2.56-2.78-3.82-.77-1.07-1.53-2.14-2.31-3.19-.36-.48-.75-.95-1.17-1.11-2.98-1.09-5.92-2.11-9.04-3.19l-2.64-.92c-.72,1.4-1.41,2.78-2.1,4.15-1.64,3.28-3.2,6.38-4.94,9.43-2.45,4.29-3.44,8.12-3.12,12.05.31,3.72-1.34,6.65-2.93,9.49-.37.66-.75,1.34-1.1,2.02l-.06.12-7.69.61c-.05.93-.11,1.83-.17,2.72-.14,2.07-.27,4.02-.21,5.97.12,3.54-1.84,5.84-3.73,8.07-.54.64-1.1,1.29-1.6,1.98l-.15.19-3.89-2.72.02-.15c.05-.48.09-.96.12-1.43.08-1.06.16-2.06.36-3.07.43-2.2.92-4.43,1.39-6.59.33-1.5.65-3.01.97-4.51.13-.63.2-1.29.27-1.93.03-.24.05-.49.08-.73-.96-.42-1.89-.85-2.81-1.26-2.16-.98-4.19-1.91-6.3-2.68-3.2-1.17-5.98-3.12-9.03-6.3l-.6-.62c-2.59-2.69-5.27-5.47-6.34-9.39-.18-.67-1.1-1.33-1.9-1.74-1.03-.52-2.15-.93-3.23-1.32-.46-.17-.91-.33-1.36-.51l-.16-.06v-.18c.08-3.15,1.77-5.34,3.27-7.26.68-.88,1.35-1.76,2.02-2.64,3.04-4.03,6.19-8.19,10.51-11.35,3.85-2.81,7.7-5.38,12.59-5.86,1.79-.18,3.02-1.02,4.24-2.91,1.31-2.04,1.52-3.57.72-5.29-.11-.24-.14-.51-.17-.8-.01-.13-.03-.27-.05-.42l-.04-.23.23-.05c.54-.12,1.06-.23,1.56-.34,1.04-.22,2.03-.44,2.99-.7,4.05-1.14,8.35-1.99,12.41,1.03.4.3,1.26.42,1.66.23,1.81-.85,3.65-1.86,5.47-3,.45-.29.8-1,.92-1.55.68-2.95,1.37-6.2,2.17-10.21.13-.66.1-1.25-.08-1.45-1.5-1.69-3.06-3.33-4.7-5.06-.48-.51-.97-1.02-1.46-1.54l-8.09,12.39-5.78-1.44,4.15-7.5-2.71-1.58-5.48,4.57-.18-6.19c-.14-4.63-.27-9.03-.39-13.43-.05-1.84-.66-3.2-1.7-3.83-1.02-.61-2.38-.52-3.95.25l-.81.4c-.71.35-1.43.7-2.13,1.06-1.39.71-2.32,1.76-2.62,2.96-.28,1.13,0,2.34.81,3.51,1.58,2.26,2.19,4.71,1.94,7.74-.15,1.8-.74,3-1.98,3.99-2.49,2-4.43,3.84-5.75,6.27-.11.2-.33.29-.56.37-.09.03-.19.07-.28.12l-.24.12-.1-.24c-.86-1.96-.72-3.67.42-5.4.61-.93,1.16-1.93,1.69-2.9.22-.41.45-.82.68-1.23,1.67-2.95,1.58-4.05-.73-7.04-.44.28-.9.55-1.35.81-1.19.68-2.42,1.38-3.18,2.39-.54.71-.53,1.94-.51,3.13,0,.45.01.91-.01,1.34-.12,2.02-1.53,3.24-2.79,4.31l-.21.18c-.87.75-3.05.07-3.3-.01-1.3-.43-2.58-.95-3.83-1.46-1.01-.41-2.06-.84-3.11-1.21-3.13-1.11-5.34-2.99-6.75-5.76-.32-.62-.76-1.21-1.23-1.83-.2-.27-.41-.55-.62-.85l-5.49,1.42-1.1,9.29-3.93-.51-.55-6.26c-1.09-.23-2.18-.45-3.26-.68-2.81-.59-5.73-1.2-8.58-1.74-1.29-.25-2.61-.63-3.24-2.31l-.04-.11,3.29-5.53c-.22-.15-.43-.31-.64-.45-.53-.38-.99-.72-1.5-.97-3.16-1.57-5.89-3.93-8.59-7.42-.76-.98-1.6-1.93-2.41-2.86-1-1.14-2.04-2.33-2.95-3.58-1.52-2.1-3.32-2.25-5.55-1.79l-.21,3.88h-4.58l-1.4-10.14c-6.35,3.69-13,3.85-21.48.53-.15.15-.32.3-.49.46-.49.45-1.05.96-1.45,1.54-1.49,2.16-3.34,2.7-5.65,1.65-.2-.09-.35-.14-.49-.15-1.97-.2-3-1.23-3.25-3.23-.25-2.05-1.21-3.9-3-5.79l-33.73,57.31.91,1.22Z"/><path class="cls-1" d="m102.71,150.72l.02.29c.1,1.38.19,2.56,1.58,2.96.42-.21.68-.45.78-.75.12-.35.03-.78-.28-1.37-.65-1.23-.92-2.45-.79-3.67-1.48.43-1.41,1.37-1.31,2.54Z"/><path class="cls-1" d="m106.67,142.92c.08-.13.15-.25.23-.38-.19-.3-.34-.62-.5-.92-.46-.93-.85-1.73-1.93-1.95-2.43,3.11-3.02,4.27-.34,7.83.26-1.19.89-2.38,1.88-3.59.24-.29.44-.63.65-.98Z"/><path class="cls-1" d="m115.29,168.43c-.16-.19-.32-.38-.49-.55-.7-.73-1.39-1.46-2.08-2.2l-.99-1.05c-.39-.42-.76-.61-1.07-.59-.29.02-.58.23-.87.63.38.58.85,1.13,1.32,1.65,1.07,1.21,2.18,2.47,2.19,4.37,0,1.9,1.06,3.2,2.44,4.7,1.26,1.37,2.37,1.58,3.82.71.72-3.48-.07-5.33-2.72-6.34-.62-.24-1.09-.79-1.54-1.32Z"/><path class="cls-1" d="m202.18,69.15c-.01.33-.02.66-.04.97,6.07,2.5,10.01,2.87,17.37,1.63l1.83-2.78,7.19,7.99,4.55-1.59,1.17-5.44,3.1,1.81c1.37-3.92,1.17-4.5-1.83-6.37-1.29-.8-1.79-1.79-1.75-3.39.04-1.53.04-3.09.04-4.59,0-2.51-.01-5.11.21-7.65.27-3.1-1.21-4.51-3.7-5.72l-4,5.15-.19-.12c-.19-.12-.33-.2-.44-.27-.19-.11-.31-.18-.41-.28-.64-.55-1.3-1.08-1.97-1.62-1.5-1.21-3.05-2.46-4.34-3.91-2.84-3.19-5.92-3.89-9.99-2.26-.52.21-1.04.41-1.56.6-2.04.77-3.96,1.51-5.81,2.85-3.02,2.19-3.77,4.71-2.57,8.69l10.89,3.41-2.7,5.81-8-4.81-1.94,3.72c.4.29.79.56,1.15.83.93.67,1.74,1.26,2.59,1.79,1.04.64,1.45,1.48,1.33,2.72-.09.95-.13,1.9-.16,2.83Z"/><path class="cls-1" d="m221.48,17.9c-1.41.68-2.87,1.29-4.28,1.88-.76.32-1.52.64-2.28.97-.03.01-.11.13-.17.22-.05.08-.11.17-.18.27l.17,2.14,10.73,4.12-2.22,3.15,1.46,3.06c.57-.25,1.11-.51,1.65-.77,1.37-.66,2.67-1.27,4.05-1.61,1.5-.37,2.9-.55,4.18-.55.72,0,1.41.06,2.05.18.8.15,1.4,1.06,1.98,1.95.25.38.51.78.77,1.09.21.25.42.48.62.7l.08.08,4.39-4.24-1.06-3.9-3.92,1.07-.02-.3c-.04-.52-.1-1.01-.15-1.48-.12-1.02-.24-1.99-.13-2.93.11-.97.44-1.91.78-2.9.12-.34.24-.69.36-1.05-1.93.1-3.17,1.14-4.38,2.14-.26.21-.51.42-.77.62.39,2.94.21,4.38-.62,5.1-.79.69-2.15.67-4.67-.06l-.22-.06.04-.22c.63-3.58-1.66-5.3-4.08-7.12-.49-.37-.99-.75-1.46-1.14-.94-.78-1.7-.89-2.7-.41Z"/><path class="cls-1" d="m-.47,117.41v2.49c.11,0,.21,0,.32,0,.91.03,1.39,0,1.48-.89.11-1.09-.59-1.37-1.8-1.61Z"/><path class="cls-1" d="m216.51,11.2l2.06,3.86c.27-.05.56-.08.83-.11.7-.08,1.43-.16,1.83-.52,1.17-1.05,2.18-2.25,3.25-3.51.36-.42.72-.85,1.09-1.28l-8.55-3.23c-1.68,3.05-4.89,3.01-8,2.96h-.19c-.42-.01-.9,0-1.48.03-3.51.15-3.71.26-4.75,3.83l9.95,3.57,3.96-5.58Z"/><path class="cls-1" d="m184.18,47.38c.35-.09.66-.17.95-.25.69-.19,1.28-.35,1.87-.43,2.99-.41,5.11-1.94,6.47-4.66.58-1.16,1.25-2.28,2.15-2.62,1.08-.4,2.17-.86,3.23-1.31,2.74-1.16,5.56-2.36,8.65-2.66,1.41-.13,2.83-.26,4.39-.4l1.93-.17-6.1-6.63c-.25.18-.48.34-.69.5-.51.37-.94.68-1.38.97-.85.57-1.67.77-2.42.6-.74-.17-1.38-.68-1.89-1.54-.13-.22-.23-.45-.32-.68-.1-.24-.19-.46-.32-.66-1.49-2.35-3.11-4.38-6.39-3.46-.59.17-1.23.19-1.9.22-.27.01-.54.02-.84.04-.02.19-.04.37-.07.56-.07.52-.14,1.02-.04,1.46.5,2.39-.67,3.9-2.02,5.19-2.13,2.03-4.18,4.22-6.16,6.33l-.48.51c-.74.79-.95,1.28-.9,1.48.5,1.97,1.12,3.94,1.72,5.86.18.58.37,1.17.55,1.75Z"/><path class="cls-1" d="m191.76,336.7c-.23-.04-.46-.08-.68-.13l-.2-.04v-.2c0-.44,0-.87.01-1.29.01-.93.02-1.8-.03-2.67-.04-.7-.34-1.34-.82-1.69-.34-.26-.72-.35-1.12-.26-1.23.27-2.41.67-3.67,1.1-.45.15-.91.31-1.38.46l1.91,4.95-5.29,5.55,6.95,5.14,7.05-8.76c-.36-1.73-1.48-1.92-2.77-2.15Z"/><path class="cls-1" d="m192.92,330.79c-.81,1.29-.74,2.77.19,4.41l3.16-5.76c-1.82-.6-2.71.34-3.35,1.35Z"/><path class="cls-1" d="m208.13,358.13c.35-1.12.76-2.22,1.16-3.29,1.33-3.56,2.59-6.93,1.57-10.83-2.43-.95-4.38-.94-5.93.01-1.75,1.08-3.26,2.49-4.25,3.97-1.88,2.83-3.83,5.76-.36,9.42l7.81.71Z"/><path class="cls-1" d="m182.11,330.9l.29-.05c1-.17,1.94-.51,2.86-.85,2.07-.75,4.02-1.46,6.31-.22,1.17-1.17,2.67-2.27,4.81-1.98.28.05.87-.4,1.11-.8,1.48-2.53,2.93-5.09,4.32-7.56l1.23-2.17c-1.7-2.42-3.43-3.03-5.94-2.12-2.11.77-4.38,1.19-6.57,1.59l-.73.14c-1.11.21-1.68.73-2.05,1.87-.49,1.53-1.03,3.08-1.55,4.57-.22.63-.44,1.25-.65,1.88l-.05.14-.14.03c-.61.12-1.2.24-1.78.35-1.47.29-2.87.57-4.28.78-.66.1-1.44,0-2.14-.26-2.08-.78-4.13-1.63-6.09-2.5-.52-.23-1.44-.73-1.67-1.4-1.21-3.57-2.35-7.22-3.38-10.84-.17-.61-.03-1.3.11-1.96.04-.17.07-.33.1-.49.57-3.18,1.16-6.35,1.76-9.57l.6-3.26c-.35-.23-.68-.46-1.01-.69-.81-.56-1.58-1.09-2.41-1.48-1.67-.78-2.52-2.01-2.83-4.13-.4-2.66-.94-5.54-1.7-9.08-.06-.25-.09-.52-.13-.79-.15-1.09-.28-2.04-1.58-2.4-1.1-.3-1.62.3-2.22,1-.22.25-.45.52-.7.73-.5.42-.98.9-1.44,1.36-.21.21-.42.42-.63.62l-.13.12-.16-.08c-.32-.16-.61-.32-.88-.47-.53-.29-.99-.54-1.46-.71-1.89-.68-2.85-1.99-3.11-4.23-.18-1.54-.52-3.06-.89-4.66-.15-.65-.3-1.31-.44-1.99-1.5-.16-2.99-.33-4.48-.5-4.05-.45-8.23-.92-12.33-1.3-1.56-.14-2.76-.62-3.92-1.53-2.5-1.97-4.62-3.56-6.68-5.01-.98-.69-1.83-1.04-2.5-1.04h0c-1.9,0-3.8.15-5.81.29-.71.05-1.43.11-2.17.15l5.81,18.51-2.47,1.95c-.44,2.48.35,4.17,2.46,5.32.2.11.37.26.53.4.14.12.28.24.42.33,1.52.86,2.17,2.16,1.98,3.96-.1.94-.06,1.92-.03,2.87l.02.77c.01.55.03,1.12.2,1.6.23.63,4.01,3.89,5.62,4.91-.12-.87-.24-1.75-.36-2.62-1.12-8.18-2.28-16.64-5.24-24.57-.96-2.57-.53-5.08-.11-7.5.17-.99.35-2.02.42-3.03l.02-.25.25.02c1.86.12,2.97.51,3.62,1.28.56.67.75,1.63.59,3.03-.12,1.05-.26,2.18-.55,3.27-.46,1.74-.22,3.35.77,5.24,1.43,2.71,2.83,5.5,4.18,8.2,2.11,4.22,4.3,8.58,6.66,12.74,3.56,6.28,4.89,11.82,4.19,17.44,0,.04,0,.07,0,.11,0,.06,0,.13,0,.19-.14,1.2.22,2.22,1.18,3.32,2.15,2.47,4.3,5,6.38,7.45,1.43,1.68,2.86,3.37,4.3,5.04.49.56,1.04,1.2,1.67,1.51,3.48,1.65,7.02,3.27,10.45,4.83l3.12,1.43,5.96-3.4,8.19,6.66,4.85-4.6-1.99-5.9Z"/><path class="cls-1" d="m199.56,347.03c2.56-2.97,5.2-6.04,10.01-5.08-.15-.24-.3-.48-.44-.72-.77-1.31-1.43-2.44-3.22-2.35-1.25.07-2.5.11-3.74.15-1.6.06-3.26.11-4.89.23-.67.05-1.45.4-1.86.83-.78.84-1.49,1.78-2.24,2.78-.26.35-.53.71-.81,1.08,2.6,1.03,3.62,2.92,3.21,5.92-.04.27-.1.76.04,1.01.18.31.46.59.81.94.11.11.22.22.34.34.23-.5.44-.99.63-1.47.5-1.21.94-2.26,1.67-3.11l.48-.55Z"/><path class="cls-1" d="m191.3,345.28l-2.37,3.05,5.02,2.5c.48-3.93.4-4.04-2.65-5.55Z"/><path class="cls-1" d="m111.2,258.33c5.34-.81,9.95.76,13.7,4.66,2.35,2.44,5.32,3.11,9.05,3.37,3.26.23,6.44.55,9.81.9,1.42.15,2.85.29,4.29.43l.18.02.04.18c.17.75.36,1.48.54,2.2.42,1.67.82,3.25,1.04,4.89.32,2.4,1.42,3.83,3.57,4.61l4.13-3.81h.11c2.6.32,3.95,1.66,4.37,4.37.42,2.69,1.05,5.41,1.66,8.03l.32,1.37c.18.78.4,1.76.92,2.18.99.81,2.09,1.48,3.26,2.2.41.25.84.51,1.26.78l.93-1.72c.83-1.53,1.6-2.94,2.38-4.35.08-.15.16-.3.24-.46.31-.59.62-1.2,1.13-1.58,3.26-2.44,6.61-4.88,9.86-7.24l3.25-2.36,1.13.57c4.76,2.41,9.26,4.69,14.75,3.8l.47-4.1h4.13c3.09,0,6.1,0,9.11,0,2.18.01,5.1,1.75,5.45,3.88.07.43.15.85.23,1.28.52,2.89,1.06,5.87-.39,8.83-.3.61-.77,1.75-.59,2.64.32,1.57.78,3.08,1.28,4.68.18.58.36,1.16.53,1.75h4.51c.35-.54.69-1.07,1.03-1.6.87-1.35,1.69-2.62,2.56-3.88.64-.92.67-1.66.12-2.75-2.05-4.06-4.02-9.46-1.09-15.29.15-.3.24-.55.28-.77.3-1.6,1.32-2.64,2.37-3.52,1.24-1.04,2.47-2.1,3.69-3.16,1.83-1.59,3.73-3.23,5.65-4.77,1.11-.89,2.52-1.65,4.19-2.27,1.62-.6,3.25-1.06,4.98-1.55.66-.19,1.32-.38,2-.57-.08-.69-.16-1.37-.23-2.03-.18-1.66-.35-3.23-.66-4.77-.3-1.48.02-2.54,1.11-3.68,3.87-4.08,7.62-8.15,10.77-11.6.91-.99,1.89-1.52,3.2-1.71,2.66-.38,5.29-.84,8.08-1.33,1.02-.18,2.05-.36,3.1-.54l-1.97-7.38,12.96-7.56c0-.83,0-1.65,0-2.47.01-2.02.02-3.94-.03-5.88-.02-.88-.16-1.39-.45-1.6-.29-.21-.8-.2-1.66.04-.77.22-1.51.5-2.29.8-.31.12-.62.24-.94.36l-.93,6.32h-.22c-1.2,0-2.39,0-3.57.02-2.81.02-5.46.04-8.17-.05-2.44-.08-4.51.56-6.48,1.99-.55.4-1.1.81-1.65,1.22-2.42,1.8-4.91,3.66-7.67,4.78-4.27,1.74-8.78,3.15-13.15,4.52-1.84.58-3.75,1.18-5.63,1.79l-.16.05-3.2-3.98,8.58-13.06c-2.29-1.8-3.79-4.09-5.24-6.31-.55-.84-1.11-1.7-1.71-2.51-2.04-2.8-4.99-5.98-9.62-5.71-1.77.1-3.41-.43-5.13-1.68-2.62-1.9-5.44-3.82-8.62-5.88-.98-.64-2.1-1.11-3.16-1.35-1.67-.37-3.39-.63-5.06-.89-.66-.1-1.33-.21-1.99-.31l-12.56-2.07c-19.87-3.27-39.74-6.55-59.61-9.81-1.58-.26-3.18-.47-4.74-.68-.67-.09-1.34-.18-2.01-.27l-1.43,4.45-.23-.05c-.95-.22-1.73-.76-2.49-1.29-1.14-.78-2.12-1.46-3.43-.96-.32.9-.61,1.78-.9,2.65-.65,1.95-1.27,3.79-2.05,5.58-2.18,4.99-4.44,10.05-6.62,14.94-2.04,4.58-4.16,9.32-6.2,14-.53,1.22-.76,2.51-.63,3.55.56,4.55,1.18,9.16,1.79,13.63.51,3.78,1.04,7.69,1.53,11.54.26,2.08.77,3.38,2.6,3.84,2.59.66,3.09,2.66,3.24,4.72.08,1.12.24,2.22.4,3.39.06.46.13.93.19,1.4.32,0,.61.01.88.02.63.02,1.13.04,1.62-.04Z"/><path class="cls-1" d="m234.47,320.9c-.48,1.09-.6,1.67-.44,2.05.16.37.64.66,1.75,1.04,3.87,1.34,6.52-.54,9.51-3.22-1.53-.89-3.03-1.78-4.52-2.65-4.22-2.48-8.2-4.82-12.27-7.11-1.41-.79-3.06-1.22-4.65-1.57-2.9-.64-5.52.42-8.06,1.45-.87.35-1.76.71-2.66,1.01-.06.06-.15.45-.21.7-.03.14-.07.28-.1.43.53.04,1.06.09,1.57.13,2.72.25,5.06.47,7-1.09l.11-.09.14.06c.46.19.87.39,1.27.58.78.38,1.46.71,2.15.77,4.12.4,6.69,3.07,9.18,5.65l.77.79-.28.54c-.11.2-.19.36-.27.53Z"/><path class="cls-1" d="m250.17,328.51l-4.44.69c.06,1.12.11,1.86.32,2.01.19.13.76-.04,1.62-.31l.58-.18c.77-.23,1.61-.31,2.44-.31,1.05,0,2.09.13,2.95.24.56.07,1.01.57,1.49,1.1.16.18.32.36.49.52,2.42-2.45,5.58-2.15,8.92-1.84l.32.03c-.07-.27-.12-.54-.16-.78-.11-.59-.21-1.1-.46-1.28-3.4-2.44-7.26-5.2-12.15-5.69-1.65-.17-2.76.06-3.79,1.69,1.51.68,2.83,1.71,1.91,3.98l-.05.13Z"/><path class="cls-1" d="m288.09,363.61c.23.17.46.34.68.53,1.22-1.68,1.92-3,.93-4.94l-3.21,1.64c-.16,1.46.66,2.07,1.6,2.77Z"/><path class="cls-1" d="m234.64,331.22c.81-.12,1.52-.71,2.15-1.81-2.04-1.83-2.91-1.85-5.86-.09,1.44,1.41,2.7,2.05,3.72,1.9Z"/><path class="cls-1" d="m236.37,12.47c1.76,1.37,3.23.79,5.05-.6.36-.28.69-.87.64-1.15-.06-.3-.6-.76-.99-.84-1.67-.35-3.38-.61-5.04-.86l-1.12-.17c-.05-.01-.16.03-.28.07-.06.02-.12.04-.2.06l-.77,2.08c.3.15.59.28.86.4.71.32,1.32.6,1.85,1.01Z"/><path class="cls-1" d="m219.25,417.02c.06.37.12.74.16,1.12.43.11.86.23,1.28.34,1.09.28,2.12.55,3.16.85,1.3.38,2.19.07,3.09-1.05,2.07-2.61,4.32-5.38,6.77-7.99,1.75-1.87,2.27-3.72,1.65-5.98-.14-.04-.29-.08-.43-.12-.42-.12-.86-.25-1.28-.22-1.92.1-3.53-.58-5.2-2.22-.96-.95-1.99-1.8-3.07-2.71-.42-.35-.85-.71-1.28-1.07-.43.26-.84.52-1.24.78-.99.62-1.92,1.21-2.89,1.73-1.17.63-1.68,1.46-1.77,2.87-.08,1.26-.31,2.5-.58,3.93-.12.62-.24,1.27-.36,1.98l3.51,2.68-.24.2c-1.84,1.51-1.59,3.08-1.3,4.89Z"/><path class="cls-1" d="m235.1,6.86l7.89-.62c-.05-.18-.1-.36-.14-.53-.08-.3-.18-.71-.27-.78-1.42-.38-2.85-.77-4.25-.77-.08,0-.15,0-.23,0-.98.03-2.03.65-2.95,1.2l-.13.08c-.02.06.02.49.04.79.02.2.03.41.04.63Z"/><path class="cls-1" d="m301.78,6.33c1.49.22,2.98.59,4.43.95.65.16,1.3.32,1.97.47l.22.05-.44,4.36c.21.14.4.26.59.38.46.29.86.54,1.22.86,1.74,1.52,3.71,1.81,6.38.95,1.88-.61,3.8-1.04,5.83-1.5.9-.2,1.81-.41,2.75-.64l.31-.08v4.61l-.14.07c-.57.27-1.14.55-1.71.82-1.24.59-2.47,1.19-3.71,1.75-.91.42-1.6.77-2.16,1.05-2.21,1.12-2.33,1.11-4.32-.6-.45-.39-1.01-.87-1.73-1.45-2.23-1.8-4.25-1.73-7.13-.89l5.15,7.38-2.95,1.53-4.28-3.45-2.63,1.83,2.6,4.77,4.65.28-.05.28c-.05.29-.1.56-.14.81-.09.53-.17.99-.27,1.44-.12.53-.27,1.06-.41,1.57l-.21.78-.16.03c-2.44.45-4.3-.22-5.67-2.05-.22-.29-.48-.55-.76-.83-.29-.29-.6-.59-.85-.94-1.14-1.57-2.49-1.88-4.37-1l-.62,2.38-5.64,1.51c.24.31.44.61.63.89.49.71.88,1.28,1.39,1.51.32.14.64.29.96.43,2.2,1.01,4.48,2.04,6.79,2.31,4.14.48,7.82,1.1,10.84,3.89.34.32,1.2.49,1.58.32,1.12-.5,2.19-1.12,3.32-1.78.35-.21.71-.41,1.08-.62l-3.07-3.58.35-.12c.18-.06.33-.12.46-.17.26-.11.46-.19.68-.16,2.16.28,3.81-.43,5.17-2.24.44-.58,1.31-1.03,2.67-1.35,1.34-.32,2.68-.54,4.1-.78.51-.08,1.02-.17,1.53-.26-.13-1.43-1.08-2.02-2.07-2.64-.77-.49-1.58-.99-1.98-1.91l-.04-.08.75-2.77.22.04c.94.16,1.87.32,2.78.48,2.35.41,4.57.79,6.82,1.1,1.08.15,2.19.05,3.05-.27,4.15-1.53,8.33-3.19,12.37-4.8l1.25-.5c.27-.11.52-.3.83-.55.06-.04.11-.09.17-.13l-5.18-1.73.23-.35c1.31-2.02,1.39-2.14,3.22-2.16l1.7-.02c2.48-.03,5.05-.06,7.58.04,1.86.08,2.98-.5,3.73-1.9-.04-.04-.09-.07-.13-.1-.16-.13-.29-.24-.42-.29-3.54-1.26-7.09-2.51-10.63-3.76-6.59-2.33-13.17-4.65-19.75-7.01-1.12-.4-2-.23-3.06.57-1.2.92-2.48,1.8-3.7,2.66-.53.37-1.06.74-1.59,1.11l-.16.11-.15-.12c-.63-.52-1.25-1-1.86-1.48-1.32-1.03-2.56-2.01-3.68-3.11-1.67-1.63-3.49-2.14-5.91-1.62l-1.08,5-.32-.29c-.45-.4-.86-.78-1.26-1.14-.92-.84-1.71-1.56-2.56-2.22-.58-.45-1.36-.89-1.84-.78-1.27.29-2.51.74-3.7,1.17-.39.14-.78.28-1.15.41.2,2.33,1.46,3,3.29,3.28Z"/><path class="cls-1" d="m312,379.94s0-.07,0-.11c-1.92-.94-3.33-.1-4.82.79-.67.4-1.36.81-2.09,1.04l-.12.04-2.48-1.91c-.22.24-.44.47-.65.69-.58.61-1.12,1.18-1.63,1.8-.77.95-1.1,1.69-1.01,2.36.08.61.52,1.2,1.35,1.81,2.65,1.94,3.63,4.28,3.09,7.38,0,0,0,0,0,0,.01,0,.07.08.12.15.03.04.07.09.1.14.35-.14.7-.29,1.05-.44.93-.39,1.89-.8,2.88-1.08,1.97-.56,2.71-1.6,2.55-3.61-.29-3.52.23-6.21,1.63-8.48.08-.13.06-.37.05-.57Z"/><path class="cls-1" d="m316.01,393.86l4.78-9.02-6.88-4.26c-2.07,2.56-1.96,5.36-1.86,8.06.04.99.08,2.02.01,3.01l3.95,2.21Z"/><path class="cls-1" d="m289.7,391.74c1.01,1.54,2.14,3.04,3.23,4.49.38.5.76,1.01,1.13,1.51l7.67-2.95c.54-4.23.51-4.26-2.09-6.98-.2-.2-.39-.41-.58-.62l-.24-.26c-1.81-1.94-1.85-3.11-.19-5.21.54-.68,1.12-1.36,1.73-2.07.24-.28.49-.58.75-.88l-8.61-7.81c-.35.53-.69,1.04-1.02,1.54-.91,1.37-1.77,2.67-2.52,4-.33.59-.5,1.65-.22,2.21,1.86,3.76,1.37,7.6.76,10.92-.13.69-.15,1.61.18,2.1Z"/><path class="cls-1" d="m272.98,34.66c.56.27,1.07.65,1.54,1.02.67.54,1.12,1.37,1.16,2.18.03.56-.14,1.05-.48,1.39-1.28,1.26-1.09,2.57-.88,3.96.07.46.14.95.16,1.43.03,1.05.54,1.62,1.79,2.03,3.21,1.04,6.43,2.1,9.64,3.15,4.65,1.52,9.46,3.1,14.2,4.61.64.21,1.69.17,2.22-.21,1.18-.84,2.28-1.82,3.46-2.87.42-.38.85-.76,1.31-1.15-.57-.46-1.11-.89-1.63-1.31-1.34-1.07-2.51-2-3.64-3-.97-.87-1.91-1.05-3.02-.61-3.99,1.59-8.09,1.02-12.06.47l-.15-.02c-2.29-.32-4.68-2.88-4.91-5.26-.17-1.72-.34-3.44-.5-5.1l-.2-2.01c-.72-.45-1.43-.89-2.14-1.31-1.65-1-3.22-1.95-4.69-3.07l-.35-.26c-1.92-1.47-1.95-1.49-4.3-.05-.52,2.74.59,4.65,3.47,6.01Z"/><path class="cls-1" d="m258.3,14.16c2.47,0,4.37,1.8,6.22,3.56l.29.28c.16.16.33.32.49.38.43.14.88.25,1.36.36.14.03.28.07.43.1,1.33-3.86-.74-5.94-2.92-8.14-.43-.44-.88-.89-1.29-1.34-1.13-1.27-2.47-1.05-4.03-.81-.6.1-1.22.19-1.84.2-.1.82-.51,1.53-.9,2.22-.66,1.17-1.29,2.29-.48,3.84.97-.46,1.85-.66,2.67-.66Z"/><path class="cls-1" d="m272.96,23.07c.41-.23.82-.44,1.21-.66,1-.54,1.95-1.05,2.88-1.6.86-.5,1.34-1.04,1.47-1.66.14-.62-.07-1.31-.64-2.12-.28-.4-.62-.78-.95-1.14-.13-.14-.26-.28-.38-.42-1.7-1.93-2.28-2.08-4.75-.91l1.64,2.29-.15.15c-1.92,1.91-2.03,3.85-.33,6.08Z"/><path class="cls-1" d="m258.85,33.67c-.17.48-.33.93-.48,1.37-.33.95-.64,1.83-.96,2.71-.48,1.29.42,2.1,1,2.47.34.21.68.28,1.02.2.43-.1.83-.43,1.14-.93.93-1.51,1.86-3.01,2.81-4.55l1.19-1.91c-.4-.44-.71-.94-1.02-1.43-.81-1.28-1.5-2.39-3.47-2.12l-.23.03c-2.7.36-5.26.71-6.66,3.53l5.76.32-.11.31Z"/><path class="cls-1" d="m247.05,63.79c.6-.36,1.16-.71,1.69-1.04,1.38-.85,2.56-1.59,3.82-2.2,1.96-.95,2.7-2.24,2.4-4.18-.5-3.12.42-5.59,2.71-7.35-.02,0-.01-.1-.01-.15,0,0,0-.02,0-.02-1.78-2.41-4.19-2.19-6.75-1.96l-.47.04-2.04,4.47-3.64-1.38-1.68,2.27c2.55,3.49,4.58,6.8,3.98,11.49Z"/><path class="cls-1" d="m322.27,208.27c3.55,1.28,7.14,2.6,10.61,3.88l3.96,1.46c3.22-3.04,2.13-6.31.97-9.78l-.09-.26c-3.22.76-6.21,1.03-7.65-2.97l-.05-.14,4.49-4.78-1.67-2.93-12.8,12.25c.07.2.14.39.21.58.45,1.26.8,2.25,2.02,2.69Z"/><path class="cls-1" d="m329.68,109.63l-.08-.22c-.44-1.2-.86-2.38-1.28-3.55-1.09-3.02-2.12-5.87-3.22-8.73-.48-1.24.04-2.11.54-2.95.93-1.55,1.84-3.09,2.79-4.68l.85-1.43-9.11-9.72-5.33,3.53-5.02-10.75-10.48,1.22-2.84-12.84c-.66.45-1.31.89-1.94,1.31-1.89,1.28-3.68,2.48-5.38,3.77-.43.33-.8,1.1-.99,2.11-.24,1.21-.38,2.44-.53,3.74-.06.54-.12,1.09-.2,1.64l-.03.22h-4.87v-.59c.06-3.21.12-6.24,2.33-8.92,1.13-1.37,2.07-2.87,3.07-4.46.38-.61.77-1.23,1.17-1.85-6.77-1.52-12.14.61-15.57,6.18-.41.67-.63,1.3-.6,1.76.21,3.37.47,6.67.74,10.16l.24,3.1c.25.04.49.08.72.12.57.1,1.06.19,1.53.15,6.05-.46,11.95,1.04,18.04,4.59,1.83,1.07,3.58,2.17,4.94,3.87.55.69,1.15,1.35,1.73,2,.73.81,1.49,1.65,2.15,2.54,1.29,1.73,2.69,2.37,4.56,2.06.66-.11,1.35-.08,2.08-.06.36.01.73.03,1.13.03h.3l-.06.3c-.16.86-.29,1.71-.42,2.55-.49,3.19-.95,6.19-2.87,8.86-.61.85-1.15,1.79-1.66,2.69-.26.46-.53.92-.8,1.38-2.25,3.72-7.32,5.66-11.31,4.34-.77-.25-1.45-.72-2.12-1.17-.24-.16-.47-.32-.71-.47-.29.33-.55.63-.8.9q-2.66,2.99-1.17,6.21l.3.65c2.75,1.33,5.03.26,7.44-.87.85-.4,1.74-.81,2.64-1.12l.23-.07,1.28,3.26c1.05,2.68,2.04,5.2,3.07,7.74.32.77.69,1.7,1.28,2.1,2.86,1.95,5.72,3.79,8.75,5.74.94.61,1.89,1.22,2.85,1.84l8.32-10.56-7.12-11.75,4.36-4.91,5.93,9.61,10.1-8.86-1.78-3.78-7.21,2.03Z"/><path class="cls-1" d="m281.11,11.87c1.23,0,2.4-.02,3.59.02h.2c.75.03,1.61.05,2.21.45.68.46,1.42,1.36,1.53,2.19.17,1.31-1.01,1.47-1.79,1.58-.11.02-.23.03-.33.05-1,.17-1.98.29-3.13.44-.38.05-.78.1-1.19.16.29.39.56.75.83,1.09.7.91,1.3,1.7,1.79,2.57,1.97,3.51,5.49,3.46,8.34,3.01,1.96-.3,3.8-1.25,5.76-2.25.78-.4,1.58-.81,2.4-1.18l-12.36-18.65c-2.43,1.11-4.36,1.99-3.5,5.09l.12.44-4.53-1.37c-1.92,1.59-2.3,3.45-1.28,6.35.45,0,.89,0,1.33,0Z"/><path class="cls-1" d="m261.73,58.74c.02.06.1.14.18.21.03.03.07.06.1.1,1.03.35,1.88.35,2.59,0h0s0,0,0,0c0,0,0,0,0,0,0,0,0,0,0,0,0,0,.01,0,.02,0,0,0,0,0,0,0,0,0,0,0,0,0,0,0,0,0,0,0,0,0,0,0,0,0h0s0,0,0,0c.03-.01.05-.03.08-.04h0s0,0,0,0c.56-.33,1.04-.89,1.46-1.71.14-.27.27-.57.39-.9l.15-.4.27.32c1.67,1.94,3.14,2.99,4.89,1.81,1.48-.99,2.85-2.19,4.31-3.46.57-.5,1.17-1.02,1.79-1.54l-2.6-.88c-2.95-1-5.73-1.95-8.49-2.83-.39-.13-1.02-.04-1.47.2-4.73,2.55-5.35,4.09-3.71,9.16Z"/><path class="cls-1" d="m308.69,66.95c.46.05.94.11,1.44.16-.04-.07-.08-.14-.11-.21-.13-.25-.21-.39-.3-.5l-.47-.51c-.97-1.05-1.97-2.13-2.99-3.16-1.13-1.13-2.17-1.64-3.09-1.51-.93.13-1.81.91-2.62,2.32.55,2.27,2.17,2.86,4.43,3.03,1.21.09,2.42.23,3.71.37Z"/><polygon class="cls-1" points="271.35 42.21 265.57 39.93 264.43 42.32 270.07 44.33 271.35 42.21"/></svg>