<?xml version="1.0" encoding="UTF-8"?><svg id="Layer_1" role="img" aria-describedby="asia-title" xmlns="http://www.w3.org/2000/svg" viewBox="0 0 384 636"><defs><style>.cls-1{fill:#42738D;}</style></defs><title id="asia-title">Asia Pacific region filter</title><path class="cls-1" d="m62.32,272.06l.56-1.62-4.6-6-4.09,1.2c.05.3.07.61.1.91.06.68.11,1.32.42,1.66,2.12,2.31,4.3,4.34,7.61,3.86Z"/><path class="cls-1" d="m64.51,269.69c.2-.05.38-.08.55-.08.76,0,1.23.49,1.68.96l.07.07c.31.33.66.62,1.05.97.12.1.24.21.37.32l1.28-4.53,2.96.17c-.75-1.72-2.01-2.74-3.22-3.72-.53-.43-1.07-.87-1.57-1.37l-1.19,2.24-6.29-2.4-.88,1.53c.34.45.68.9,1.02,1.35,1.02,1.36,1.99,2.65,3.01,3.91.27.34.89.64,1.16.58Z"/><path class="cls-1" d="m187.93,216.2c-1.27,1.19-2.47,2.31-3.75,3.36-.53.43-1.55.5-2.19.31-1.85-.54-3.82-1.23-6.04-2.1-1.1-.43-2.18-.94-3.24-1.44-.43-.2-.87-.41-1.31-.61l-1.39,1.83c-.86,1.14-1.68,2.22-2.51,3.31q-2.07,2.75-.56,5.87c.03.06.1.13.18.22.04.04.08.08.12.13.06.01.12.03.19.05.19.05.38.11.57.09.14-.01.27-.02.4-.02,1.72,0,2.59,1.19,3.22,2.37.62,1.18,1.32,2.34,1.99,3.46.29.48.57.95.86,1.43q2.49,4.22,7.33,4.49h.07c1.79.1,3.55.24,5.42.39.85.07,1.72.14,2.61.2h.18s0,.19,0,.19c.24,4.47,3.41,5.57,6.92,6.38,1.06.25,1.83.16,2.65-.29,1.27-.7,2.53-1.37,3.86-2.07.54-.28,1.08-.57,1.63-.86l.11-.06.1.06c.43.27.85.54,1.27.8,1.01.63,1.96,1.23,2.9,1.88.74.51,1.51.7,2.65.65,3.7-.16,6.67-.91,9.36-2.36,1.21-.66,2.54-1.25,4.07-1.82,1.18-.44,2.12-1.17,2.96-2.29,1.13-1.52,2.3-3.05,3.44-4.52,1.18-1.54,2.4-3.12,3.57-4.7,1.13-1.52,2.31-3.08,4.58-2.92l3.26-6.64.06-.03c.55-.27,1.12-.27,1.62-.28.62,0,1.16,0,1.57-.47-2.06-2.3-3.99-2.76-6.42-1.55-1.75.87-3.42.82-5.27-.16l-.11-.06v-7.57c-.45-.05-.89-.1-1.32-.15-1.07-.12-2.07-.23-3.07-.41-2.3-.4-3.83.14-4.95,1.76-.4.58-.92,1.07-1.43,1.55-.33.31-.66.63-.96.96-.79.89-1.64,1.25-2.76,1.15-1.35-.12-2.72-.17-4.05-.22-.45-.02-.9-.03-1.35-.05-1.05-.04-2.35-.1-3.07-1.53-.13-.27-.78-.55-1.23-.53-.34.02-.69.03-1.04.04-1.84.06-3.58.12-5.12,1.46-1.25,1.08-2.84.77-4.25.5-.31-.06-.62-.12-.91-.16-.62-.09-1.11-.8-1.58-1.49-.15-.22-.3-.43-.44-.62-.23-.29-.42-.63-.6-.96-.32-.57-.62-1.11-1.05-1.3-1.81-.8-3.73-1.46-5.58-2.09-.67-.23-1.35-.46-2.02-.7l-2.42,3.45,3.92,3.14-.18.16c-.49.46-.98.91-1.45,1.35Z"/><path class="cls-1" d="m45.26,260.14c2.97,4.29,6.85,5.37,12.22,3.4.89-.33,1.31-.88,1.36-1.79-1-.38-2.01-.75-3.01-1.12-2.5-.93-5.09-1.89-7.6-2.93-1.73-.71-2.93-.46-4.12.87.12.16.23.32.34.46.29.39.56.74.81,1.11Z"/><path class="cls-1" d="m73.97,256.17c1.62.76,3.2,1.73,3.38,4.28l2.72-1.99c.21-.04.41-.06.59-.06,1.35,0,1.98,1.03,2.55,1.95.15.25.31.5.48.74l2.21-.1c.34-1.46.22-2.83-.36-4.43-.96-2.62-1.76-5.02-1.82-7.86v-.14s.13-.05.13-.05c.53-.21,1.08-.49,1.6-.76,1.21-.62,2.46-1.26,3.68-1.18.33.02.67.04,1.01.05,3.04.15,6.18.3,8.22,3.33,1.09,1.62,2.57,2.13,4.95,1.69,1.57-.29,3.19-.41,4.75-.52.68-.05,1.36-.1,2.04-.16h.12s.97,1.35.97,1.35c.62.87,1.2,1.68,1.78,2.51q2.85,4.05,7.62,4.24h.09c1,.04,1.65-.1,2.01-.97.61-1.47,1.7-2.27,3.22-2.39l.64-3,.1-.04c2.28-1.01,3.87.04,5.11,1.29l1.72-3.81,15.42,2.04,2.38-3.22-4.31-5.4.05-.12,5.86-12.77,4.72.24,3.07-7.41c-.42-.05-.82-.09-1.2-.14-1-.12-1.94-.23-2.88-.3-.16-.01-.32-.02-.48-.04-.78-.09-1.67-.26-2.37-.95-.16-.15-.3-.33-.42-.52,0,0,0-.02-.02-.02l-.07-.02v-.07s-.05-.04-.07-.07c0,0,0,0-.01-.01l-.04-.04c-1.61-1.8-3.56-2.33-6.15-1.71-.95.23-1.94.31-2.9.39-.66.05-1.34.11-2,.21-1.16.18-2.06-.14-3.01-1.08-2.67-2.64-5.43-5.29-8.1-7.85l-2.18-2.1c-.35-.33-.71-.65-1.11-1-.16-.14-.32-.28-.49-.43l-4.64,3.98-.12-.05c-1.03-.46-2.07-.91-3.11-1.36-2.38-1.02-4.83-2.08-7.14-3.33-2.67-1.46-4.85-1.43-7.51.08-3.07,1.75-6.28,3.26-9.37,4.73-1.27.6-2.51,1.19-3.73,1.79-1.69,4.18-.64,7.54,3.28,10.58l.25.19-.27.15c-.73.41-1.44.81-2.13,1.2-1.98,1.12-3.85,2.17-5.71,3.17-.37.2-.86.19-1.29.17-.09,0-.18,0-.26,0-.84,0-1.69-.03-2.53-.04-1.51-.03-3.08-.07-4.62-.04-1.54.03-2.46-.48-2.99-1.65-.6-1.31-1.61-1.55-3.2-1.8-3.96-.61-7.47.34-11.06,2.99-1.68,1.24-2.29,2.34-2.42,4.38-.2,3.01.68,4.85,2.93,6.16.58.34,1.05.86,1.51,1.36.17.19.34.38.52.55,1.17.62,1.68.9,2.29.88.07,0,.13,0,.2-.02,0,0,0,0,.01,0,.49-.07,1.11-.33,2.17-.77,1.94-.83,3.88-.79,6.18-.47l.17.02.39,7.07-2.89.23-1.94,3.18c.41.58.74,1.21,1.06,1.83.7,1.34,1.36,2.6,2.77,3.27Z"/><path class="cls-1" d="m3.52,153.42l1.09-.54,2.28-.66.11-.03c.23-.07.46-.13.69-.19h0c.71-.2,1.3-.34,1.86-.47.65-.14,1.42-.09,2.02.14,5.14,1.97,9.78,3.81,14.2,5.62.59.24,1.21.77,1.7,1.45.45.63.82,1.33,1.21,2.07.15.29.31.59.48.9l-2.41,3.66c-.07,0-.14,0-.2,0-3.91,0-7.73-.79-11.44-1.56-1.86-.39-3.78-.78-5.71-1.08l-.24-.04v2.81l.13.05c.39.15.78.31,1.17.46.89.36,1.81.73,2.74,1.04.96.32,1.39.84,1.44,1.73.02.35.08.7.13,1.03.08.48.16.94.12,1.39-.11,1.52.43,2.83,1.57,3.8,1.78,1.52,4.65,1.85,6.56,1.4.47-.11.82-.4.98-.82.2-.5.1-1.12-.25-1.65-.39-.6-.83-1.16-1.33-1.82-.16-.22-.34-.44-.52-.68h8.28l-1.82-3.69,3.29-3.65,4.65,1.15.07-.16c.6-1.43.51-2.66-.31-4.11-1.1-1.96-2.17-3.98-3.2-5.94l-.19-.35c-.17-.33-.31-.68-.43-1.02-.04-.1-.07-.2-.11-.29,2.21-1.85,4.19-1.04,6.29-.18.46.19.93.38,1.4.54.77,2.41-.14,4.53-1.19,6.99l-.14.33,5.38-.73.02-.16c.04-.39.08-.77.12-1.16.09-.88.19-1.79.24-2.7.04-.74.34-1.19,1.02-1.56,2.94-1.6,5.81-3.19,8.85-4.87l2.98-1.65,1.81,2.44.14-.05c.78-.28,1.55-.56,2.33-.83,2.21-.79,4.49-1.6,6.71-2.46.68-.27,1.18-1.11,1.36-1.46.32-.61.54-1.25.81-1.99.1-.28.2-.57.32-.88.76.13,1.51.26,2.26.39,1.75.31,3.55.62,5.33.9,3.18.5,6.49,1.2,9.05,3.78l.14.14.65-.59-.82-5.19-.1-.05c-.39-.17-.77-.34-1.15-.51-.87-.39-1.69-.77-2.55-1.09-.86-.32-1.27-.88-1.39-1.84l-.08-.66c-.16-1.32-.32-2.69-.67-3.98-.33-1.23-.06-1.99.98-2.73.45-.32.86-.72,1.29-1.14.2-.2.42-.41.65-.62l.17-.15-.17-.15c-1.67-1.53-1.25-3.15-.75-5.04.05-.2.11-.41.16-.61,1.78.02,3.52.32,5.35.66.82.15,1.66.31,2.52.44.13.78.28,1.56.42,2.35.34,1.86.7,3.78.86,5.69.23,2.68,1.16,4.82,2.84,6.51,2.57,2.6,3.3,5.21,2.3,8.22-.15.46-.18.96-.21,1.44-.01.19-.02.37-.04.56-.09.93-.5,1.54-1.31,1.97-.8.43-1.55.92-2.35,1.44-.34.22-.69.45-1.05.68l-.12.07.58,3.05,8.24-.75.02-.16c.12-.83.24-1.66.37-2.48.31-1.99.63-4.05.74-6.07.05-.81-.31-1.63-.69-2.5-.16-.38-.33-.76-.48-1.17l1.94-1.59,3.66,1.28.05-.22c.72-3.02.68-3.11-1.91-4.69l-.1-.06-.1.05c-.3.15-.62.3-.93.46-.73.36-1.49.74-2.26,1.06-.67.28-1.18.33-1.56.16-.36-.17-.64-.55-.84-1.19-1.11-3.4-2.2-6.88-3.26-10.23-.7-2.23-1.41-4.45-2.12-6.68-.32-.99.08-1.72.77-2.65l5.19,5.94,3.78-3.03,8.71,3.04,4.4-3.29-8.2-3.45c-.43-2.54.01-4.55,1.46-6.72,3.54-5.31,8.17-10.04,14.15-14.46,3.75-2.77,7.84-5.05,11.81-7.25,1.38-.77,2.81-1.56,4.21-2.37.66-.38,1.33-.75,2.03-1.14l1.24-.69-1.9-2.54,2.32-4.73c1.15-.48,2.07-.23,3.04.8.26.27.51.57.77.87.89,1.03,1.81,2.1,2.93,2.37,1.38.33,3.07-.42,4.57-1.09l.23-.1c4.47-2,8.6-2.08,12.62-.26.4.18.84.3,1.34.43.21.06.44.12.69.19,0,.59,0,1.19.02,1.78.02,1.67.04,3.41-.08,5.1-.05.68-.97,1.5-1.27,1.77l-1.31,1.17c-2.71,2.42-5.51,4.92-8.38,7.22-1.4,1.12-2.59,2.48-1.81,4.8.06.18.09.38.12.63.02.14.04.29.07.46l.03.17h3.97l.06-.09c.06-.08.1-.14.14-.19.08-.1.14-.18.13-.29-.04-3.34,2.08-5.02,4.31-6.79.82-.65,1.67-1.33,2.39-2.09.21-.22.66-.27,1.1-.33.14-.02.28-.04.41-.06,1.59-.28,3.17-.55,4.76-.83,2.82-.49,5.73-.99,8.59-1.52,1.41-.26,2.31,0,3.11.93.56.64,1.19,1.2,1.85,1.8.3.26.6.53.9.82l.1.1,5.05-2.43-1.12-6.89,14.51.7c-.43,1.19-1.01,2.26-1.62,3.38-.54.98-1.09,2-1.55,3.13l-.09.24,15.14,2.67-.79-5.2,15.92-1.87.17-.02.31-3.96-2.46-1.07c.13-.34.26-.69.39-1.03.37-1.01.73-1.97,1.18-2.89.23-.47.81-.96,1.26-1.06,4.63-1,9.54-1.99,15.45-3.14.36-.07.78.04,1.2.15.14.04.27.07.4.1,1.2.27,2.41.54,3.61.8,3.7.82,7.53,1.67,11.28,2.59,1.25.31,2.66.41,3.65-1.12,2.12-3.27,5.15-4.56,9.27-3.96,1.26.19,2.57.11,3.83.04l.4-.02c1.05-.06,1.62.32,2.05,1.33.42,1,.9,1.97,1.41,2.99.22.45.45.9.68,1.38l.08.16.17-.05c.22-.06.43-.12.63-.17.44-.12.85-.23,1.26-.38.91-.36,1.83-.71,2.74-1.06,3.25-1.26,6.6-2.56,9.87-3.92,1.47-.61,2.68-.59,4.05.07,1.12.54,2.28,1,3.51,1.48.56.22,1.14.45,1.74.7l.25.1.66-5.13-.13-.07c-.33-.17-.66-.34-.98-.51-.72-.37-1.41-.72-2.08-1.11-.64-.37-.98-.78-.98-1.19,0-.4.34-.8.99-1.16,1.06-.6,2.01-.97,2.88-1.13,5.46-1.01,11.26-2.03,17.23-3.01.66-.11,1.47-.02,2.28.26,3.08,1.04,6.16,2.1,9.24,3.16,2.75.95,5.49,1.89,8.24,2.82,1.11.38,1.94.99,2.59,1.93.48.68,1.01,1.35,1.57,2.05.27.34.55.69.85,1.07l.2.25,2.97-5.66,10.67,3.7-4.71,6.67,4.31,4.54-.96,3.23c-2.97-.08-6.15-.26-9.28-.99-.23-.05-.46-.14-.7-.23l-.21-.08c-.54-.2-1.1-.38-1.65-.55-1.24-.39-2.52-.79-3.57-1.48-.97-.64-1.75-1.59-2.58-2.6-.38-.47-.78-.95-1.21-1.42l-.17-.18-2.36,3.14.05.11c.14.34.3.72.47,1.13.44,1.08.98,2.41,1.62,3.68.6,1.19.49,1.99-.38,2.83-.57.55-1.05,1.14-1.62,1.83-.26.31-.53.64-.82.99l-.14.16.16.13c.68.56,1.35,1.13,2.01,1.69,1.73,1.46,3.36,2.84,5.1,4.15.56.42,1.32.56,2.05.7.27.05.55.1.81.17.6.15,1.22.28,1.87.41.25.05.52.11.79.17v3.36c-2,0-4.03.03-5.71,1.42l-.18.15c-.7.57-1.42,1.17-1.91,1.92-1.11,1.68-2.37,3.69-3.38,5.76-.74,1.52-1.2,3.19-1.65,4.81l-.02.08c-.47,1.69-.89,3.41-1.34,5.24-.17.7-.34,1.41-.53,2.16-2.15-2.25-4.41-1.54-6.34-.54l-.09.04-.74,3.41-7.88,2.13,1.03,12.7h.2c.27-.03.5-.03.72-.04.44-.01.82-.03,1.2-.09.71-.12,1.21.11,1.69.76,1.14,1.56,2.29,3.08,3.49,4.68l1.35,1.8-2.42,2.97,2.85,6.41c-.03.09-.05.18-.07.25-.02.08-.04.17-.04.18-2.42,1.63-2.68,4.03-2.61,6.38.09,2.76,0,5.58-.07,8.3-.03,1.09-.06,2.18-.08,3.28,0,.31-.04.62-.07.95-.01.11-.02.22-.03.33-1.5.05-2.59-.58-3.57-2.02-4.44-6.59-8.97-13.14-12.41-18.11-.72-1.03-.99-1.98-.88-3.07.35-3.44.25-6.11-.32-8.65-.17-.75.23-1.77.5-2.45,1.94-4.92,4.03-10.22,6.25-15.55.69-1.66.91-3.14.69-4.66-.07-.5-.1-.99-.12-1.46-.02-.46-.06-.91-.1-1.37-.17-2.08-.34-4.24.87-6.31l.18-.31h-5.32l-.06.08c-1.79,2.42-.63,4.48.49,6.47.15.27.3.54.45.81l-3.42,5.4-.34-.05c-.3-.04-.57-.08-.83-.12-1.79-.22-2.74-1.16-3-2.94-.11-.77-.36-1.5-.65-2.35-.14-.4-.28-.83-.42-1.29l-.09-.31-.24.21c-.37.33-.74.64-1.1.95-1.82,1.53-3.54,2.97-4.06,5.58-.45,2.21-1.07,4.36-1.73,6.62-.29.99-.58,1.99-.86,3.02l-.06.2,4.85,1.21.5,2.88c-.16,0-.31.01-.45.02-.38.02-.67.03-.94-.03-1.1-.25-1.82.2-2.57.95-1.02,1.02-2.11,2.01-3.15,2.97-.39.36-.78.71-1.17,1.07-1.4-1.44-1.36-1.5-.27-3.67l.15-.3h-.34c-.62,0-1.25-.04-1.85-.08-2.07-.14-4.03-.27-5.86,1.23-2.56,2.1-5.7,3.04-8.73,3.95-.51.15-1.02.31-1.53.47-1.19.37-2.38.73-3.6,1.1l-1.77.54-.03.12c-.05.22-.1.43-.15.64-.11.45-.21.87-.28,1.3l-.47,3.14c-.57,3.85-1.16,7.82-1.67,11.75-.29,2.2-1.18,4.18-2.14,6.19-.34.7-.65,1.4-1.01,2.22-.17.39-.35.8-.55,1.24l-.09.2,8.86,3.43.48-2.76.28-.07c.32-.08.64-.16.96-.26,1.41-.43,2.43-.06,3.1,1.14.05.08.11.16.19.24,5.65,5.48,8.59,12.69,11.44,19.68l.05.12c.27.65.4,1.47.39,2.31-.08,4.6-.17,9.11-.37,13.56-.06,1.33-.33,2.76-.81,4.27-.52,1.65-1.11,3.31-1.67,4.92-.53,1.52-1.08,3.09-1.58,4.65-.39,1.21-.95,1.74-2.13,2.04-2.02.5-3.58.52-5.1-.93l-.19-.18-1.41,2.42c-.51.06-.89-.01-1.09-.22-.2-.2-.26-.55-.17-1.02.34-1.87-.12-3.42-1.45-4.88-.81-.9-.69-1.96-.56-3.19.05-.46.1-.92.11-1.4l3.97-.4-.54-16.76-.27.09c-3.86,1.37-4.45,1.94-5.32,5.39-2.05.42-3.82.11-5.55-.96-1.62-1-3.3-1.93-4.93-2.84-1.41-.78-2.86-1.59-4.26-2.43-1.07-.64-2.08-1.49-2.93-2.46-2.78-3.16-5.22-6.06-7.46-8.87-.97-1.22-2.02-1.7-3.53-1.6-1.19.08-2.41.06-3.6.04-.52,0-1.05-.02-1.57-.02-3.65,0-3.71.03-6.7,2.98l-.1.1.06.13c.19.45.38.91.57,1.37.44,1.07.89,2.18,1.44,3.24,1.07,2.07,1.32,3.76.79,5.5-.23.77-.35,1.56-.47,2.33-.04.3-.09.59-.14.87-1.76,1.17-3.68,1.53-6.02,1.14-1.39-.23-2.82-.39-4.2-.54-.89-.09-1.77-.19-2.65-.31-1.1-.15-1.9.15-2.57.97-.35.42-.75.81-1.14,1.2-.48.47-.98.96-1.39,1.52-1.14,1.53-2.57,2.08-4.5,1.75-.73-.13-1.48-.17-2.2-.22-.57-.04-1.16-.07-1.73-.15-.77-.1-1.24-.32-1.3-.47-.55-1.38-1.63-1.33-2.58-1.28h-.31c-.33.02-.66.03-.98.03-.82.01-1.66.02-2.48.14-.81.11-1.92.27-2.59.86-1.32,1.17-2.74.95-4.24.72-.26-.04-.51-.08-.76-.11-.36-.05-.89-.71-1.06-1.21-.72-2.12-2.12-3.32-4.57-3.87-1.47-.33-2.88-.83-4.38-1.36-.67-.23-1.34-.47-2.04-.7l-.15-.05-3.53,5.31,3.71,2.74c-.32.29-.63.57-.94.85-.9.82-1.75,1.59-2.65,2.28-.38.29-1.12.43-1.63.31-2.16-.5-3.88-1-5.39-1.55-1.37-.51-2.69-1.1-4.09-1.74-.62-.28-1.25-.56-1.89-.84l-.15-.07-.1.13c-.53.72-1.06,1.42-1.59,2.12-1.26,1.67-2.45,3.25-3.54,4.93-.87,1.34-1.85,1.76-3.49,1.47-1.24-.21-2.51-.35-3.74-.48-.86-.09-1.75-.18-2.62-.31-.1-.01-.19-.03-.29-.05-.16-.03-.33-.07-.49-.11,0,0,0,0,0,0,0,0,0,0-.01,0,0,0-.01,0-.02,0,0,0,0,0-.01,0,0,0,0,0,0,0-.26-.07-.52-.15-.77-.22-.22-.07-.44-.13-.66-.19l-.34-.57c-1.02-2.07-1.89-2.52-4.15-2.35-.39.03-.77.06-1.16.08-1.73.12-3.51.25-5.24.55-1.55.28-2.52-.31-3.5-1.27-2.33-2.3-4.75-4.59-7.09-6.8-.79-.74-1.57-1.49-2.36-2.23-.56-.53-1.12-1.05-1.72-1.59l-.99-.92-4.64,4.07c-.24-.1-.47-.19-.7-.28-.54-.22-1.06-.42-1.55-.64-.85-.38-1.7-.75-2.55-1.13-2.34-1.03-4.76-2.1-7.08-3.26-1.39-.7-2.57-.67-4.08.09-3.46,1.75-7,3.47-10.42,5.14-1.24.6-2.48,1.21-3.72,1.82-.13.06-.27.13-.41.19-.89.4-1.89.85-1.78,2.14.07.8-.11,1.64-.28,2.45-.33,1.57-.68,3.19.62,4.73.22.26.45.5.68.74.22.23.45.47.65.71.26.31.5.64.78,1.01.09.12.17.23.26.36-.5.28-1,.57-1.49.84-1.47.84-2.86,1.62-4.27,2.38-.49.26-1.06.41-1.53.4-2.44-.07-5.04-.15-7.62-.39-.59-.05-1.37-.54-1.53-.94-.73-1.92-2.24-2.12-3.72-2.15h-.54c-.79-.02-1.61-.04-2.38-.17-2.82-.47-5.26.22-7.45,2.12-.48.42-1.09.74-1.68,1.05-1.17.62-2.39,1.26-2.76,2.7-.35,1.33-.4,2.75-.44,4.12-.02.59-.04,1.2-.09,1.8v.08c-.02.15-.04.32.01.49.02.06.04.13.06.2.08.28.16.6.4.76.46.33.93.65,1.39.98.97.68,1.95,1.35,2.94,2.01l1.18.81,1.09,1.55c-.18.23-.36.47-.55.71-.49.64-.99,1.3-1.58,1.86-1.67,1.57-2.3,3.56-2,6.27v.12s2.41,1.1,2.41,1.1c-.82,3.4.5,6.19,3.92,8.3-.03.13-.05.25-.08.36-.07.31-.12.56-.2.8-.06.19-.16.38-.26.57-.02.05-.05.1-.08.15-.06,0-.12,0-.18,0-.17,0-.31,0-.42-.04l-3.25-1.22c-4.51-1.7-9.18-3.45-13.75-5.24-.7-.28-1.4-.51-2.1-.51-.65,0-1.31.21-1.96.78-.69.61-1.5.7-2.55.31-.67-.26-1.37-.5-2.04-.73-.93-.32-1.89-.65-2.81-1.03-.75-.31-1.42-.79-1.84-1.32-1.93-2.41-1.82-4.74.34-7.15.54-.6,1.17-1.3,1.83-1.98.53-.54.98-1.11.66-2.14-.07-.24.12-.62.3-.99.07-.14.14-.29.2-.42,1.09-.48,1.87-1.09,2.4-1.84.02-.04.05-.07.07-.11.48-.73.72-1.58.73-2.59h0c0-.15,0-.31,0-.47-.06-1.08.06-2.17.19-3.33.06-.54.12-1.1.16-1.68l.02-.2-.2-.02c-.98-.1-1.94-.2-2.88-.3-2.36-.25-4.59-.49-6.85-.66-1.21-.09-1.92-.48-2.46-1.36-.29-.47-.63-.92-.95-1.36-.4-.53-.81-1.09-1.13-1.67-1.2-2.21-3.14-3.22-6.13-3.18-.49,0-.98,0-1.45,0h-.48s-.02-.07-.04-.09c0-.01-.01-.03-.02-.04,1.61-2.21,1.32-4.35-.91-6.73-.16-.17-.3-.36-.4-.55-1.59-3.02-4.24-4.63-8.58-5.2-.2-.03-.4-.07-.68-.12-.11-.02-.24-.05-.38-.07.24-1.91-.4-3.72-2.02-5.69-.22-.27-.38-.76-.39-1.25-.03-1.57-.03-3.14-.02-4.66v-1.44s3.98-2.08,3.98-2.08l-2.55-2.08v-2.17l.42-.28-.32-.02,2.51-4h-.01l2.16-3.44.06-.09c.05-.07.11-.15.17-.22.2-.24.37-.45.28-.66-.47-1.06-.95-2.12-1.44-3.17-.29-.62-.58-1.24-.86-1.86l-.55-1.18h.01s-1.5-3.45-1.5-3.45h.02s-1.5-3.45-1.5-3.45h.02s-1.03-2.59-1.03-2.59l-.19-.85c0-.27-.02-.53-.03-.8-.02-.59-.05-1.2-.03-1.8.02-.62.08-1.26.13-1.87.04-.5.09-1.01.12-1.51.01-.2-.07-.39-.14-.55-.03-.06-.05-.12-.07-.18l-.03-.1-1.96-.63-.7-2.33.52-1.97Z"/><path class="cls-1" d="m342.58,426.19v.12c.12,1.39,2.83,4.82,4.1,5.17.2.06.45.02.76-.02.13-.02.27-.04.43-.05l.07-4.53c.1-6.75.2-13.14.25-19.64,0-.44-.36-1.11-.78-1.43-1.28-.96-2.58-1.85-3.97-2.79-.48-.33-.96-.66-1.46-1l-8.27,5.42-4-2.57v-7.06c-3.4-.32-6.19-.34-8.43,2.12.31,1.6,1.16,2.35,2.72,2.44.58.03,1.15.17,1.87.36.37.09.79.2,1.27.3l.38.08-.28.27c-.34.32-.62.6-.88.86-.52.52-.93.92-1.4,1.26-.78.55-.98,1.18-.67,2.11.12.35.22.71.32,1.08.16.58.33,1.17.56,1.72.13.32.58.66.78.66h.01c.21-.02.6-.44.71-.78.29-.88.52-1.79.75-2.68.09-.35.18-.69.27-1.04l.04-.15h2.46l.04.16c.05.21.11.41.16.6.11.4.22.79.26,1.18.18,1.99,1.07,3.49,2.79,4.69.8.56,1.54,1.22,2.26,1.86.86.76,1.74,1.55,2.71,2.15,3.35,2.08,4.71,4.89,4.15,8.57-.03.18-.01.37,0,.57Z"/><path class="cls-1" d="m290.19,394.89c1.87-1.14,3.59-1.99,5.72-.91.65.33,1.4.52,2.12.7l.41.11c1.44.38,2.52.11,3.39-.85.49-.54,1.03-1.04,1.56-1.52.32-.29.63-.57.94-.87.08-.08.14-.2.22-.37.03-.06.06-.13.1-.2l-1.37-1.27c-.22.16-.44.32-.65.46-.52.37-1.02.72-1.45,1.12-1.65,1.5-3.51,1.7-5.69.63-.15-.07-.3-.15-.44-.22-.5-.25-1.01-.52-1.54-.69-1.79-.59-2.94-.18-4.1,1.48-1.44,2.05-2.33,4.23-2.74,6.68v.06c-.26,1.52-.52,3.09-1.07,4.53-.98,2.61-1.17,4.66,1.1,6.19l.13.08-1.49,5.01h3.01c.33-1.36.48-2.75.62-4.1.21-2.02.42-4.1,1.27-6.07l.15-.35.21.32c.48.73.8,1.5,1.01,2.52.39,1.84.77,3.74,1.16,5.8.15.78.39,1.26.75,1.5.3.2.69.24,1.2.14,1.65-2.32,1.95-4.51.93-6.87-.55-1.28-1-2.6-1.48-3.99-.22-.64-.44-1.3-.69-1.98l-.05-.14,4.35-3.29-.86-1.25-1.12.72c-.92.6-1.77,1.15-2.63,1.69-.57.37-1.1.5-1.57.39-.46-.11-.87-.45-1.2-1.02-.13-.22-.27-.42-.42-.63-.14-.2-.28-.39-.4-.6-.44-.73-.59-1.26-.47-1.72.11-.44.45-.82,1.08-1.2Z"/><path class="cls-1" d="m305.3,269.78c-.67,1.1-.68,2.52-.04,3.92,3.68-2.14,3.87-2.48,3.12-5.59-1.35.05-2.47.66-3.09,1.67Z"/><path class="cls-1" d="m311.44,266.29l.13.15c.06.07.12.15.19.22.64.71,1.33,1.04,1.91.91.62-.13,1.14-.75,1.46-1.74.15-.46.3-.92.43-1.34l.15-.46.06-.04c.07-.04.12-.08.16-.11.08-.06.15-.11.24-.12.06-.01.12-.02.17-.04.19-.05.42-.1.63-.06,2.07.41,3.69-.4,5.08-2.56.21-.32.43-.59.67-.8,1.04-.91,1.27-1.93.8-3.54-.71-2.44-1.31-4.89-1.93-7.49-.26-1.07-.52-2.15-.8-3.26l-.04-.14,2.25-1.44-.99-1.51c-1.12-1.7-2.14-3.25-3.16-4.81-.43-.66-.85-1.01-1.58-.77-1,.33-1.86,1.22-2.31,2.37-.46,1.18-.42,2.46.1,3.41.31.55.64,1.2.71,1.86.16,1.51.23,3,.21,4.45,0,.64-.24,1.38-.6,1.91-.49.72-1.04,1.38-1.58,2.02-.21.25-.42.5-.61.73l-.08.1-2.19-.55c-.12.4-.24.78-.37,1.16-.31.95-.61,1.84-.68,2.74-.07.88.08,1.77.26,2.81.08.48.17.99.24,1.53l.05.39-.35-.18c-.24-.13-.44-.22-.6-.29-.3-.14-.5-.23-.65-.39-.64-.68-1.28-1.01-2.03-1.01-.56,0-1.19.18-1.93.54-1.8.87-2.97,2.37-4.11,3.83-.52.67-1.06,1.36-1.66,1.99-.07.16.2,1.11.46,1.25,1.2.67,2.15.66,2.98-.03.97-.8,2.02-1.64,3.13-2.41,2.23-1.54,4.01-1.33,5.77.71Z"/><path class="cls-1" d="m307.72,194.11c-4.41-6.28-8.72-12.37-12.36-17.5-.23-.32-.5-.62-.87-1.04-.14-.15-.29-.32-.45-.51-.02.29-.05.55-.07.79-.06.7-.1,1.22-.16,1.74-.25,2.1.23,3.89,1.49,5.61.98,1.35,1.89,2.78,2.77,4.17.68,1.07,1.38,2.18,2.1,3.24,1.24,1.8,2.01,3.58,2.37,5.44.94,4.96,2.95,9.99,6.32,15.85.72,1.25,1.46,1.78,2.54,1.8,1.48-1.14,2.06-1.82,2.12-2.5.06-.65-.37-1.39-1.52-2.65-.45-.49-.9-.97-1.35-1.46-1.09-1.18-2.22-2.41-3.3-3.64-1.04-1.2-1.09-4.25-.08-5.27,1.69-1.7,1.75-2.23.46-4.07Z"/><path class="cls-1" d="m299.47,277.19c.03.18.07.35.11.53.07.29.12.59.17.89l.02.13c.14.87.31,1.63.93,2.16.11.09.23.18.36.25,1.26-.58,2.16-1.6,2.47-2.82.14-.55.16-1.11.06-1.67-.45-2.46-2.23-4.34-5.01-5.3-1.01.83-1.56,1.73-1.49,2.43.04.38.28.67.69.87,1.31.63,1.5,1.59,1.68,2.52Z"/><path class="cls-1" d="m321.81,219.82c-.44.33-.82.62-1.09.96-.67.87-1.53,1.13-2.62.78l-.31-.1c-.62-.19-1.27-.39-1.77-.78-1.05-.82-2.03-1.69-3.08-2.61-.38-.34-.77-.68-1.17-1.03-.41.15-.7.39-.85.7-.18.37-.17.83.02,1.39.05.13.09.27.14.41.21.63.42,1.28.82,1.71.87.94.94,1.93.89,2.86-.03.56-.06,1.11-.1,1.7l-.05,1-.14.04c-1.8.5-2.31,2.01-2.89,3.77l3.8,5.23c.26-.09.52-.16.78-.22,1.05-.27,1.89-.49,2.03-1.84l-3.02-2.49.17-.16c.33-.31.62-.63.88-.91.55-.6.98-1.08,1.51-1.14.67-.08,1.36.2,2.08.49.22.09.45.18.68.27.2-3.29,2.63-4.56,4.98-5.79.42-.22.85-.45,1.27-.68l-2.45-3.96c-.19.15-.36.28-.53.41Z"/><path class="cls-1" d="m281.48,393l2.46.19c-.38-.91-.81-1.79-1.22-2.65-1.34-2.78-2.6-5.4-2.44-8.66l-3.83.27c-.18.66-.36,1.32-.53,1.97-.5,1.84-.97,3.58-1.5,5.33-.08.26-.51,1.55-1.26,1.83-3.05,1.11-6.19,2.16-9.22,3.17-.94.31-1.88.63-2.83.95l-.13.04-.09-.11c-.34-.4-.68-.78-1-1.15-.71-.81-1.38-1.58-2.01-2.38-.38-.48-.74-.72-1.09-.74-.36-.02-.75.18-1.2.61l.8,3.05c.7,2.67,1.39,5.35,2.1,8.01q.51,1.94,2.38,2.04c2.95.15,5.61,1.24,8.18,2.3.62.26,1.24.51,1.87.75l.11.05.07.57c.03.26.06.48.09.69.04.26.09.53.13.79l.03.19c2.56.04,2.58,0,3.88-1.78.26-.36.51-.72.77-1.08.49-.71,1-1.44,1.56-2.11.91-1.08,1.27-2.22,1.11-3.47-.43-3.25,1.13-5.86,2.64-8.37l.18-.29Z"/><path class="cls-1" d="m255.94,327.35c-2.99-1.39-4.31-.96-6.01,1.94.1.21.19.42.28.63.49,1.16.91,2.16,2.53,1.96,1.54-.19,2.79-1.96,3.21-4.54Z"/><path class="cls-1" d="m285.36,377.28c-.85-.81-1.81-1.48-2.74-2.14-1.71-1.21-3.48-2.46-4.62-4.55-.23.41-.45.81-.66,1.19-.7,1.26-1.3,2.34-1.85,3.48-.21.42-.23,1.1-.05,1.45,1.01,1.97.57,3.63-1.39,5.21l-.08.07-.1-.03c-.11-.03-.23-.06-.35-.08-.27-.06-.54-.12-.81-.23-1.42-.54-2.6-.3-3.84.77-1.46,1.27-2.94,2.35-4.39,3.22-2.02,1.21-2.71,2.62-2.23,4.57.04.16-.05.29-.16.45-.05.07-.11.16-.16.26l-.06.11h-3.13l2.67,3.09c.95-.33,1.9-.66,2.84-.99,2.39-.84,4.86-1.71,7.3-2.48,1.21-.38,1.75-.97,2.01-2.18.36-1.69.81-3.32,1.29-5.04.2-.72.4-1.44.59-2.17l.03-.13.14-.02c.66-.09,1.3-.15,1.92-.21,1.31-.12,2.55-.23,3.62-.67,1.08-.44,2.03-1.21,3.03-2.02.38-.31.77-.63,1.18-.93Z"/><path class="cls-1" d="m281.19,258.69c-.33.48-.59.86-.27,1.51.96,1.97,1.81,3.95,2.7,6.05.34.8.68,1.6,1.03,2.4.32-.04.64-.05.94-.06.68-.03,1.27-.05,1.58-.33l.28-.25c1.64-1.46,3.34-2.96,2.85-5.48-.08-.41-.15-.83-.21-1.25-.23-1.46-.47-2.97-1.25-3.98-1.03-1.32-2.42-2.36-3.9-3.46-.59-.44-1.19-.89-1.78-1.37l-2.88,3.44,1.44,1.55v.09c-.06.46-.31.82-.53,1.14Z"/><path class="cls-1" d="m274.12,377.24l-2.31,2.78c1.76.8,1.79.78,2.36.2h0c.84-.87.83-1.71-.06-2.97Z"/><polygon class="cls-1" points="274.32 380.35 274.32 380.35 274.32 380.35 274.32 380.35"/><path class="cls-1" d="m140.63,272.79h0c.3-.74.51-1.26.71-1.76l-.05-.03.02-.03-.82-.68.26.1h-.01s.03,0,.03,0c-.04-.06-.07-.13-.09-.19,0-.01,0-.02,0-.03-.53-1.75-1.75-2.59-3.87-2.64-.19,0-.37-.06-.53-.11-.06-.02-.13-.04-.19-.05l-.09-.02-.04-.08q-.85-1.63-2.33-1.42c-.17.02-.35.05-.56.07-1.28.16-2.6.09-3.87.02-.83-.05-1.68-.09-2.51-.07-.99.01-1.62-.24-1.82-.77-.31-.81.48-2,1.38-2.8-.2-.2-.85-.62-1.47-.96-.72.67-3.25,4.19-3.77,5.11,2.47.97,2.49,3,2.26,5.36-.04.39,0,.79.07,1.3.02.21.05.44.07.69l3.54-.75c-.03-.39,0-.76.08-1.09h0c.29-1.08,1.17-1.69,2.13-2.26l1.15-1.01-.18.28.09.03c2.07.61,2.12,2.13,2.18,3.47.02.48.04.97.14,1.42h2.15l.4-2.15.11-.04c1.69-.57,3.77-1.28,5.45,1.12Z"/><path class="cls-1" d="m124.98,260.04c.23.2.9.56,1.55.92.76.41,1.47.8,1.77,1.06l.48.41,4.55-1.77c-.44-.15-.86-.29-1.26-.42-1.21-.41-2.26-.76-3.28-1.2-.76-.33-1.48-.79-2.32-1.32-.41-.26-.86-.54-1.36-.84-.62.01-.89.54-1.28,1.39-.3.65-.64,1.38-1.3,1.82l-.05.03h-.06c-.19,0-.39,0-.59-.02-.43-.02-.87-.04-1.29.03-3.63.58-6.14-.7-8.4-4.27-.44-.69-.78-1.27-1.06-1.74q-1.25-2.1-3.61-1.77c-.56.08-1.24.17-2.09.27-.1.01-.19.01-.29.02-.15,0-.29,0-.41.04-3.31.93-6.01-.06-8.06-2.94-.67-.95-1.66-1.44-3.02-1.51-.84-.04-1.68-.24-2.46-.43-2.41-.6-4.3.46-6.29,1.59l2.99,11.5c.28.13.55.16.8.08.32-.1.6-.38.82-.82.11-.22.22-.44.33-.66.33-.66.66-1.35,1.1-1.96.37-.52,1.04-1.09,1.62-1.11,1.3-.05,2.59,0,3.84.06.47.02.93.04,1.38.06h.14s.05.14.05.14q1.21,3.47,4.22,5.47c.67.44,1.32.88,1.98,1.32.78.52,1.56,1.04,2.34,1.56.47.31.94.63,1.41.95,2.65,1.8,5.39,3.67,8.74,4.12l-.19-.25.32.27c.12.01.24.03.36.04.1,0,.18.06.23.1,0,0,0,0,0,0h0s.05.04.07.07c0,0,0,0,0,0,.1.12.19.28.27.43.03.05.05.1.08.15h.06l.02.08h.03v.07l.43.39h-.08s.49.48.49.48l-.38-.19,1.26,1.74c.09,0,.19.02.29.02.32.03.66.07.99.06.3,0,.62-.04.98-.09.13-.02.26-.03.4-.05,0-.4,0-.79,0-1.18,0-1,0-1.94,0-2.9.02-.87-.56-1.18-1.23-1.54-.57-.3-1.21-.65-1.44-1.39l-.03-.11,1.28-1.57c1.86-2.28,2.33-2.86,2.42-2.96h0s1.6-1.87,1.6-1.87l.16.14Z"/><path class="cls-1" d="m228.9,383.77c.17.27.33.54.49.8,1.12,1.85,2.18,3.6,4.27,4.49.57.24,1.09.59,1.6.92.44.29.9.6,1.38.82.71.33,1.48.58,2.37.87.35.11.72.24,1.12.37-.1-4.54-1.86-8.16-3.57-11.67-.59-1.2-1.19-2.45-1.71-3.7-3.43.82-4.25.52-6.09-2.08-.09-.13-.18-.27-.27-.4-.18-.27-.37-.54-.57-.8-.38-.47-.81-.66-1.59-.1,1.52,2.53,2.24,5.53,2.25,9.41,0,.32.13.72.33,1.04Z"/><path class="cls-1" d="m218.17,349.03c1.62.13,2.2,1.21,2.77,2.26.13.24.25.47.39.7.76,1.23.12,2.06-.44,2.8-.39.51-.76.99-.77,1.6l2.33,3.73c1.45-2.33,1.63-6.69.31-8.75-.82-1.27-1.66-2.53-2.47-3.75-.37-.55-.73-1.09-1.08-1.62l-.08-.12.08-.11c1.75-2.51,1.78-4.53.11-6.74-.18-.24-.36-.49-.54-.75-.43-.61-.88-1.25-1.42-1.74-2.2-1.98-2.71-4.47-1.57-7.59.05-.12.12-.23.2-.34.04-.05.08-.11.12-.17l.04-.06.06-.02c.38-.15.76-.31,1.15-.47.88-.37,1.78-.74,2.7-1.05.12-.04.23-.08.35-.12,1.97-.7,3.24-1.61,4.12-2.93h0s0-.06,0-.09c0-.64-.42-.74-1.12-.85l-.14-.02c-.99-.16-1.97-.32-2.97-.48l-1.29-.21-.95-4.75-.7-.29c-.59-.25-1.16-.49-1.74-.72-1.44-.59-2.63-1.92-3.11-3.47-.39-1.25-.26-2.46.37-3.41,1.81-2.74,1.54-5-.91-7.81-.7-.8-1.39-1.47-2.66-1.5,0,.18-.01.37-.01.55,0,.57-.02,1.16-.16,1.71-.27,1.09-.64,1.73-1.1,1.92-2.63,1.11-2.97,3.31-3.12,5.85-.03.53-.08,1.06-.14,1.59-.06.61-.12,1.23-.15,1.85-.1,2.21-.78,4.27-2.09,6.31-.52.81-.85,1.97-.98,3.37l-.02.24c-.12,1.38-.23,2.81-1.65,3.76.47.44.92.87,1.37,1.28,1.15,1.07,2.23,2.09,3.26,3.16l.17.18c1.03,1.06,2.09,2.17,2.77,3.46.65,1.25.94,2.7,1.23,4.09l.08.39c.26,1.28.55,2.27,1.67,2.43,1.14.16,2.04-.36,2.52-1.47.28-.65.67-1.23,1.1-1.84.18-.27.37-.54.55-.83l.15-.24.18.22c2.89,3.43,3.29,7.24,3.25,10.86Z"/><path class="cls-1" d="m139.68,259.79c.18.02.37.05.6.09.64.1,1.29.2,1.96.29l.89.13,5.12-7.09-13.99-1.92-2.17,4.62-.2-.14c-.45-.31-.83-.71-1.2-1.09-.97-1.01-1.74-1.82-3.3-.84v3.42l8.65,3.1-.53.2c-.82.31-1.63.72-2.41,1.13-1.89.97-3.84,1.97-6.1,1.58-.2-.05-.69.63-1.09,1.48,1.11.11,5.2.47,7.11.2,1.18-.17,1.71-.34,1.86-.4.38-.54,3.22-4.5,3.72-4.71h0c.29-.12.62-.11,1.07-.05Z"/><path class="cls-1" d="m136.55,312.89c-.12-.09-.23-.18-.34-.27-.08-.07-.16-.14-.24-.21,0,0,0,0,0,0,0,0,0,0,0,0-.4-.37-.76-.79-1.12-1.2-.1-.11-.2-.23-.3-.34v.42l-.37-.77-1.3-.98.05-.14c1.01-3.09,1.09-3.15,4-3.29l.42-.02c.36-.02.71-.03,1.07-.04h.01c.72,0,1.17-.31,1.51-1.02,1.67-3.52,3.36-7.04,5.09-10.63l1.73-3.61c-3.58-2.18-5.29-4.98-5.21-8.56v-.18s9.38-.98,9.38-.98c-.53-.76-1.04-1.49-1.53-2.2-1.25-1.8-2.43-3.51-3.66-5.14-.97-1.29-2.81-1.51-4.18-.5-.24.18-.5.3-.76.43-.03.01-.05.03-.08.04h0s0,0,0,0c-.15.07-.29.15-.43.23-1.44.87-2.87,1.74-4.33,2.64l-1.41.86,1.8,3.41-.15.1c-2.12,1.44-2.72,3.75-3.05,6.04-.67,4.59-2.86,7.58-6.68,9.14-1.26.52-1.94,1.51-1.96,2.87-.04,2-.97,3.12-3.14,3.74-1.84.53-3.63,1.2-5.52,1.9-.74.28-1.49.56-2.25.83.2.3.39.59.57.86.46.69.9,1.34,1.29,2,.56.93.73,1.64.54,2.24-.19.59-.72,1.07-1.68,1.5-2.31,1.04-2.36,1.06-1.96,3.8.29,0,.59.03.88.05,1.31.09,2.54.18,3.71-.74.44-.35,1.14-.36,1.76-.37h.25c.66-.03,1.33-.02,1.97-.01.81,0,1.65.02,2.46-.03.09,0,.17,0,.26,0,1.1,0,2.03.4,2.97,1.29,1.21,1.13,2.45,2.2,3.76,3.34.49.42.98.85,1.49,1.29l1.27-2.79h4.71c.67-2.37.29-3.82-1.3-4.98Z"/><path class="cls-1" d="m321.47,560.03c-1.07,3.66-2.08,7.11-.98,10.82,2.93.22,5.65.08,7.09-3.33.43-1.01,1.08-1.93,1.72-2.82.32-.44.64-.9.93-1.36.28-.44.53-.89.82-1.42.1-.19.21-.38.33-.58l-9.6-2.41c-.11.37-.21.73-.32,1.09Z"/><path class="cls-1" d="m194.21,305.32l-.33-2.35-5.69.7c1.19,2.18,2.1,2.41,6.02,1.65Z"/><path class="cls-1" d="m82.1,273.97l-.11.32c-.12.35-.24.71-.3,1.06l-.04.26c-.15.82-.18,1.34.53,1.66.72.32,1.26.1,1.8-.73.34-.52.73-1.11,1.23-1.59.34-.33.87-.77,1.47-.95,2.83-.85,5.61-1.47,8.47.17.84.48,1.79.8,2.71,1.12.46.16.92.31,1.37.49,1.06.41,2.12.83,3.15,1.24l1.43.57.37,3.2c.48.05.95.11,1.42.16,1.4.16,2.71.31,4.06.4.44.03,1.08-.12,1.38-.42,1.84-1.85,3.64-3.75,5.38-5.58.52-.55,1.04-1.09,1.55-1.63l-.54-2.35h-.04v-.03c-3.06-.43-5.99-1.58-8.94-3.54-.4-.26-.79-.54-1.18-.82-1.91-1.4-3.97-2.66-5.97-3.89l-.34-.21c-1.9-1.17-3.87-2.37-3.63-5.26-.42,0-.83,0-1.23-.01-1.11-.02-2.16-.03-3.17.06-.45.04-1.02.5-1.31.92-.51.75-.94,1.54-1.39,2.38-.19.35-.38.7-.58,1.05l-.06.11h-6.18l-.89,2.44-3.86.3c-.42,3.16-.38,3.19,2.02,4.79.52.35,1.01.7,1.5,1.05.22.16.45.32.67.48l.12.09-.34,1c-.2.6-.38,1.14-.56,1.68Z"/><path class="cls-1" d="m108.63,299.37c-.39.33-.8.68-1.08,1.07l5.11,4.1c.89-.32,1.75-.64,2.61-.95,2.25-.82,4.37-1.6,6.54-2.32.99-.33,1.47-.89,1.46-1.71-.05-2.94,1.87-4.29,3.75-5.21.33-.16.64-.37.95-.57.3-.2.61-.41.95-.58,1.24-.63,1.75-1.6,2.14-2.88.28-.91.49-1.87.69-2.8.54-2.49,1.09-5.06,3.08-7.02l-1.77-3.38,6.27-4.04c-.95-.98-1.86-.79-2.81-.6-.15.03-.3.06-.45.09l-.64,2.35h-3.95v-.19c-.03-.32-.04-.61-.06-.9-.03-.59-.05-1.14-.11-1.68-.01-.09-.02-.18-.03-.26-.11-.75-.3-1.1-.73-1.34-.25-.14-.6-.25-1.13-.37-.02,0-.04,0-.07-.01l-1.6,3.54-.05.03c-1.72,1.15-3.84,1.45-6.49.93-1.57-.31-2.73.12-3.88,1.45-.92,1.06-1.92,2.09-2.88,3.08-.73.75-1.48,1.53-2.2,2.31-.86.95-1.75,1.27-3,1.08-1.15-.18-2.32-.24-3.56-.31-.48-.03-.97-.05-1.47-.09l1.59,12.31,3.78,1.01.04.07c1.14,1.96,0,2.93-1.01,3.79Z"/><path class="cls-1" d="m373.39,435.26c-.63-.43-1.22-.94-1.78-1.43-.24-.21-.47-.41-.71-.62-2.72-2.27-4.8-5.99-5.43-9.69l-.02-.14,2.1-1.34c-.16-.35-.3-.71-.44-1.07-.35-.89-.68-1.73-1.27-2.19-.57-.45-1.46-.55-2.4-.66-.44-.05-.89-.1-1.32-.19l-.13-.03-.03-.13c-.06-.25-.13-.51-.2-.76-.16-.59-.33-1.21-.41-1.83-.14-.97-.59-1.65-1.46-2.22-1.25-.82-2.51-1.67-3.72-2.49-1.39-.94-2.84-1.92-4.28-2.85-.45-.29-.96-.46-1.62-.68-.26-.09-.53-.18-.83-.29v24.68c2.15.44,3.66-.17,4.75-1.91.51-.81,1.19-1.53,1.85-2.22.14-.14.27-.29.41-.43.31-.33.78-.78,1.28-.87.4-.07.8-.11,1.2-.11,1.49,0,2.96.49,3.98,1.36.98.84,1.47,1.97,1.42,3.27-.02.69.09,1.41.21,2.1.08.51.17,1.03.2,1.55.06.95.44,1.51,1.29,1.93,2.2,1.09,4.01,2.04,5.68,3,1.18.67,2.12.61,3.05-.2.43-1.49-.01-2.62-1.38-3.54Z"/><path class="cls-1" d="m175.37,375.31c.54-.28,1.06-.61,1.56-.93.18-.12.36-.23.54-.34-.07-.64-.11-1.27-.15-1.89-.1-1.54-.19-3-.64-4.35-.4-1.2-1.86-2.2-2.93-2.93"/><path class="cls-1" d="m224.55,357.44c-.1.8-.2,1.64-.5,2.39-.56,1.4-1.2,2.79-1.82,4.14-.29.63-.59,1.27-.87,1.9-.07.16-.17.4-.17.61,0,.96.89,2.54,2.15,3.76.97.94,1.92,1.49,2.66,1.44.07,0,.13,0,.2,0,1.89,0,2.72,1.05,3.61,2.41,1.23,1.89,1.24,1.92,3.68,1.35.35-.93-.23-1.43-.91-2l-.16-.14c-3.16-2.72-5.22-5.38-6.48-8.37-.06-.14-.13-.29-.2-.43-.23-.48-.46-.97-.45-1.48.08-4.48.21-8.16.39-11.59.05-.86.2-1.32.54-1.59.42-.34,1.07-.32,2.05-.17l.13.02.04.12c.1.33.17.68.24,1.02.15.73.3,1.41.69,1.83.89.96,2.1,1.67,3.27,2.36l.28.17c.35.2.7.24.99.09.33-.17.56-.54.61-1.02.11-.92.11-1.56-.78-2.12-1.47-.91-1.76-2.16-.9-3.82.33-.64.71-1.25,1.14-1.92.96-1.52,1.36-1.64,3.03-.89.64.29,1.3.52,1.99.77.24.08.47.17.71.26.84-3.47.25-5.76-1.97-7.65-.11-.09-.21-.19-.31-.3-.13-.14-.25-.3-.36-.46-.26-.37-.48-.78-.69-1.17-.07-.12-.13-.24-.2-.36-.07-.13-.15-.26-.22-.39h-.09v-.07l-.04-.02s-.09-.04-.14-.06c-.17-.07-.34-.14-.5-.23-.1-.06-.19-.12-.27-.19q-1.72-1.5-3.8-.51c-.18.08-.35.17-.52.26-.34.17-.68.35-1.05.49-.53.2-1.07.36-1.76.57-.33.1-.69.21-1.1.34l-.29.09.02-.3c.26-3.65,0-7.34-3.56-9.72-.39.16-.78.34-1.17.51-1.02.45-2.08.92-3.18,1.28-1.4.46-1.81,1.33-2.06,2.67-.24,1.32,0,2.24.84,3.19.65.74,1.26,1.53,1.85,2.29.26.33.51.67.77,1,2.14,2.71,2.36,5.37.67,8.36.13.2.25.4.38.61.33.55.68,1.12,1.11,1.59,2.17,2.36,3,5.16,2.56,8.57-.02.17-.04.33-.06.5Z"/><path class="cls-1" d="m200.19,325.09h0c.02-.19.06-.39.09-.61.12-.81.31-2.03,0-2.27-.86-.66-1.09-1.55-1.31-2.4-.15-.6-.3-1.18-.66-1.65l-.91-.12c-1.17-.16-1.84-.49-2.1-1.04-.26-.56-.09-1.3.55-2.33.23-.37.42-.77.67-1.27.09-.19.19-.39.3-.62-.6-.04-1.16-.05-1.71-.06-1.33-.02-2.47-.04-3.46-.47-1.05-.46-1.91-1.3-2.82-2.2-.34-.34-.69-.68-1.06-1.01l-1.11,2.13c.07.15.14.29.2.42.14.3.25.53.38.75,1.54,2.63,3.45,5.9,2.92,9.8-.05.33.06.78.32,1.29.16.33.48.66.65.67.33.01.66.05,1,.09,1.35.15,2.62.28,3.63-.94.23-.28.52-.49.77-.68.1-.07.19-.14.27-.2l.06-.05h.08c1.77.03,1.97,1.16,2.13,2.15.09.51.17,1,.44,1.37.07-.07.15-.13.22-.19.23-.19.47-.4.49-.56Z"/><path class="cls-1" d="m246.39,405.03c-.61-.41-1.14-.77-1.71-1.08-1.22-.66-2.47-1.6-2.49-3.56-.02-1.9-1.2-3.16-2.35-4.14-5.4-4.59-10.85-9.31-16.11-13.87-2.15-1.87-4.31-3.73-6.46-5.59-.36-.31-.73-.59-1.13-.9-.13-.1-.26-.2-.39-.3-.51.89-.46,1.7.13,2.68.94,1.55,1.87,3.11,2.79,4.67.96,1.62,1.92,3.23,2.9,4.84.34.56.78.99.99.99.07,0,.15,0,.22,0,1.48,0,2.04,1.01,2.59,1.98.08.14.15.27.23.41.44.75.9,1.5,1.35,2.25.31.51.62,1.03.93,1.54l2.98,4.98c2.33,3.9,4.66,7.81,7,11.71.08.13.15.26.22.39.35.64.64,1.19,1.49,1.25,1.14.07,2.26.2,3.45.33.46.05.92.1,1.39.15l2.78-8.19c-.28-.18-.54-.36-.79-.53Z"/><path class="cls-1" d="m213.87,312.77c.65,1.8,1.52,2.64,3,2.88,1.76.29,2.69,1.38,2.75,3.24.02.51.15,1.04.29,1.6.06.23.12.46.17.7l4.78.33c.42-1.28.95-2.46,2.41-3.06,1-.41,1.97-.94,2.9-1.45.62-.34,1.26-.69,1.91-1,2.56-1.24,5.59-.64,7.55,1.5.9.99,1.81,1.96,2.71,2.92l.99,1.06c.61-.13,1.19-.38,1.76-.63.81-.35,1.64-.7,2.52-.7.58,0,1.18.15,1.82.57l.05.04.18.43c.12.3.25.62.39.93.38.83.87,1.32,1.37,1.34.42.02.89-.33,1.26-.99,1.15-2.01,2.91-3.27,5.55-3.97,4.32-1.15,7.86-3.59,11.15-7.67,3.68-4.58,5.85-8.65,7.02-13.2.91-3.56.77-7.01.47-10.22l-3.32-.92.05-.22c.05-.13.09-.24.12-.33.06-.17.1-.29.19-.39l.12-.14c.89-.99,1.65-1.85,1.27-3.34l-.12-.48c-.3-1.22-.58-2.37-1.6-3.32-1.88-1.74-3.7-3.6-5.46-5.4-.57-.58-1.14-1.17-1.71-1.75-1.59-1.61-1.89-5.34-.59-7.27,1.45-2.14,3.04-3.46,5-4.13v-2.44h-6.66l-1.4,3.53h-.13c-2.98.19-4.48-1.56-5.93-3.26-.5-.58-1.01-1.19-1.58-1.7l-.11-.1.06-.14c.33-.79.61-1.59.89-2.36.93-2.59,1.81-5.03,3.96-6.93,1.84-1.63,2.18-1.8,4.81-.8l.15.06v.16c-.05.39-.07.78-.1,1.17-.06.89-.13,1.81-.25,2.72-.19,1.49.31,2.33,1.66,2.8.23-.23.46-.47.69-.7.59-.6,1.19-1.21,1.83-1.78.66-.59,1.36-1.13,2.1-1.71.29-.23.59-.46.89-.7-.79-2.05.21-3.54,1.59-5.27,1.31-1.65,2.71-3.06,5.23-2.35.12-.35.23-.68.35-1.01.29-.84.57-1.63.81-2.42l.07-.22c.34-1.11.68-2.26,2.06-2.81.28-.11.56-.72.65-1.23.27-1.42.41-2.78-.98-3.81-.43-.32-.79-1.02-.82-1.63-.07-1.11-.06-2.2-.05-3.35,0-.45,0-.91,0-1.37v-.18l3.57-.48c.41-4.2.12-11.91-.38-13.62-1.88.29-2.29,1.68-2.71,3.15-.14.48-.28.97-.48,1.42l-.05.1-.11.02c-3.63.53-4.16.45-7.01-1.15-.81-.46-1.63-.91-2.44-1.37-2.37-1.33-4.83-2.7-7.22-4.1-.94-.55-1.8-1.27-2.48-2.06-2.89-3.36-5.24-6.19-7.41-8.93-.88-1.11-1.84-1.55-3.18-1.49-2.06.1-3.85.07-5.45-.07-2.05-.18-3.48.51-4.59,2.25.21.49.43.99.65,1.49.61,1.38,1.23,2.8,1.81,4.23.37.91.5,1.61.43,2.21-.17,1.39-.42,2.79-.69,4.26-.11.6-.22,1.21-.33,1.85l-.02.12-6.06,1.95v5.86c1.33.52,2.34.49,3.26-.1,1.87-1.19,3.73-1.14,5.68.15.54.36,1.13.63,1.76.93.29.14.59.28.89.43l.12.06-.14,2.59-3.89.6-.66,1.43c-.59,1.26-1.19,2.55-1.76,3.84-.33.74-.84,1.57-2.03,1.48-1.25-.09-1.92.66-2.6,1.58-2.59,3.49-5.26,7-7.91,10.41-.67.86-1.37,1.47-2.07,1.8-.57.27-1.14.55-1.71.83-2.22,1.09-4.51,2.21-6.89,2.91-3.31.97-7.84,2.3-11.55-1.19-1.07-1.01-2.05-1.06-3.49-.18-.28.17-.57.35-.86.54-1.38.88-2.81,1.8-4.29,1.9-1.2.08-2.42-.38-3.6-.82-.69-.26-1.41-.53-2.11-.69-1.39-.31-2.16-1.07-2.6-2.55-.22-.74-.52-1.46-.81-2.16-.11-.27-.22-.53-.33-.8-.96-.06-1.89-.15-2.82-.23-2.2-.19-4.27-.37-6.35-.31-2.52.07-4.02-.83-5.19-3.12-.7-1.37-1.55-2.7-2.37-3.99-.53-.83-1.07-1.68-1.58-2.54-.56-.95-1.08-1.67-2.26-1.5-1.07.15-1.8-.35-2.23-1.53-.18-.5-.42-1-.64-1.48l-.15-.31c-.89-1.92-.9-1.95-3.36-1.76l-3.55,8.59h-4.93l-5.01,10.95,4.36,5.67-9.1,12.55h-.11c-.25-.01-.53-.04-.84-.08-.33-.05-.66-.11-.98-.17-1.06-.2-2.07-.39-2.99-.02-.21.08-.82.86-1.18,1.32-.25.32-.44.57-.56.69-1.09,1.07-1.14,2.1-.17,3.36l3.63.62,1.28,3.6c.15.07.3.14.45.21.41.2.8.39,1.18.42,1.83.11,2.88,1.18,3.75,2.33,3.11,4.13,5.88,7.7,8.47,10.9.99,1.22,1.39,2.45,1.31,3.97-.07,1.19-.05,2.39-.04,3.56,0,.46.01.91.01,1.36.17.11.33.21.47.3.33.21.61.39.87.6,2.69,2.21,5.23,2.78,7.98,1.77,1.43-.52,2.65.03,3.66.65.46.28.92.57,1.38.86,1.61,1.02,3.27,2.07,5.04,2.69l.18.06c4.43,1.54,9.01,3.14,13.87,1.73.26-.07.52-.07.79-.07.25,0,.48,0,.68-.06.27-.08.55-.16.82-.24.95-.27,1.94-.55,2.77-1.04,1.62-.96,3.22-2.02,4.77-3.04.89-.59,1.79-1.18,2.69-1.76,1.2-.77,2.37-1.01,3.39-.71.96.28,1.75,1.05,2.29,2.22.4.87.77,1.39,1.52,1.48,1.31.15,1.98,1.01,2.63,1.84.2.25.4.52.62.75,2.37,2.56,2.6,5.15.72,7.91-.63.93-.69,1.88-.17,3.28Z"/><path class="cls-1" d="m256.67,422.81c.79.16,1.69.33,2.11.88,1.22,1.57,2.87,1.63,4.47,1.7,1.31.05,2.66.26,3.69,1.44.65.74,1.47.86,2.43.34.57-.3,1.11-.7,1.62-1.09.16-.12.31-.23.47-.34-.59-.42-1.16-.83-1.71-1.22-1.51-1.08-2.93-2.1-4.38-3.05-.65-.43-1.48-.66-2.2-.82-1.61-.37-3.23-.72-4.85-1.07-2.98-.65-6.07-1.31-9.07-2.1-1.92-.51-3.34-.07-4.74,1.46.09,1.25.81,1.49,1.82,1.69,3.14.63,6.37,1.31,9.87,2.1.15.03.3.06.46.1Z"/><path class="cls-1" d="m282.08,234.63c-.44.18-.78.67-1.13,1.66-.36,1.01-.69,2.04-1.01,3.03-.14.44-.28.87-.42,1.29l-.04.13h-.14q-3.53.34-5.82,3.13l-.07.09s-.06.07-.08.1c-1.18,1.49-.95,3.18.62,4.51.44.37.81,1.07.92,1.72.2,1.22.32,2.47.44,3.67.04.42.08.84.13,1.25.27.06.52.11.75.16.23.05.44.1.64.14.15.03.3.06.43.08.01,0,.03,0,.04,0,.14.02.26.04.38.05.01,0,.02,0,.04,0,.12.01.23.02.34.01h0c1.11-.02,1.73-.89,3.8-3.73l.15-.21c-1.9-3.32-.51-5.86.71-7.49.13-.18.27-.36.42-.53.36-.43.77-.89,1.29-1.44l-1.25-2.51,1.31-4.56c-1.21-.6-1.95-.77-2.45-.57Z"/><path class="cls-1" d="m246.3,348.16c.02-.38-.02-.77-.06-1.26-.01-.15-.03-.31-.04-.48-.25.17-.48.34-.7.5-.69.5-1.28.92-1.94,1.25-.68.34-1.57.21-1.92.14-1.04-.21-2.08-.55-3.05-.88-.74-.26-1.48-.55-2.19-.84-.26-.1-.51-.2-.76-.3-.8.9-1.29,1.5-1.62,2-.07.11-.14.21-.2.32-.02.03-.03.06-.05.09-.14.25-.23.48-.27.69-.02.11-.03.21-.03.31,0,.71.55,1.33,1.68,2.24.15.12.3.24.47.37l.06.05v.08c.07.34.11.66.11.97,0,.69-.15,1.33-.44,1.9-.24.47-.57.9-1,1.3l3.81,4.01c.43-.32.84-.64,1.25-.96.98-.76,1.9-1.48,2.91-2.07,2.88-1.66,4.04-3.65,3.76-6.45-.06-.62.02-1.24.1-1.85.05-.37.1-.75.11-1.11Z"/><path class="cls-1" d="m364.08,492.55c-.42-.55-.84-1.1-1.28-1.65l-.12-.16,2.06-1.69c-.3-.95-.61-1.89-.92-2.83-.72-2.2-1.47-4.48-2.08-6.74-.86-3.15-2.16-4.93-4.36-5.94-1.52-.7-1.67-1.97-1.6-3.23.09-1.61.14-3.25.18-4.84.07-2.54.15-5.16.4-7.73.3-3.03-.5-4.73-2.74-5.88-1.44-.73-1.72-2.03-1.8-3.2-.13-1.89-.36-3.74-.61-5.7-.09-.74-.19-1.49-.27-2.25h-1.94l-7.23,23.92h-.14c-.4.06-.81.14-1.21.22-1.17.24-2.39.5-3.33-.37-2.16-1.98-4.24-4.11-6.25-6.16-.81-.83-1.62-1.65-2.43-2.47l-.09-.09,5.03-13.5-2.14-.41c-2.25-.44-4.37-.85-6.52-1.22-.57-.1-1.19.01-1.61.13-1.19.32-2.37.66-3.55.99-1.56.44-3.16.9-4.76,1.31-.82.21-1.24.62-1.5,1.45-.55,1.74-1.22,3.79-2.03,5.83-.25.62-.81,1.4-1.46,1.65-.8.31-1.66.46-2.57.62-.4.07-.82.15-1.25.24l-.23.05-.38-5.69-18.89,11.49c0,.13,0,.25-.02.36-.01.25-.02.44.02.61.8,2.84-.59,4.95-1.89,6.48-.75.88-1.48,1.21-2.47,1.17-1.54-.07-3.02-.07-4.42,0-1.03.06-1.86.22-2.55.5-2.07.84-4.16,1.73-6.18,2.58-2.22.94-4.51,1.9-6.78,2.82-1.03.42-1.6,1.02-1.98,2.07-.54,1.51-1.11,3.03-1.67,4.51-.81,2.15-1.65,4.38-2.39,6.6-.52,1.55-.82,3.19-.85,4.73-.18,7.92-.22,15.75-.24,21.7,0,1.41-.44,2.25-1.46,2.83-.2.11-.38.26-.58.41-.2.16-.4.32-.62.44-1.43.82-1.95,2-1.57,3.61.23.16.47.3.7.45.56.35,1.08.68,1.55,1.1,2.06,1.87,4.3,1.72,6.4,1.27.73-.16,1.46-.32,2.2-.48,3.87-.87,7.87-1.76,11.98-1.4,2.03.18,3.25-.45,3.99-2.05.53-1.15,1.48-1.8,3.05-2.08,2.56-.46,5.17-.96,7.68-1.43,1.55-.3,3.11-.59,4.66-.88l.2-.04c.43-.09.92-.18,1.34-.06,2.63.77,5.21,1.56,7.95,2.39l2.78.85-.04.19c-.62,2.77-.93,5.7.97,8.44l1.01-.17c.86-.14,1.75-.29,2.64-.44.96-.15,1.93-.3,2.86-.44l1.28-.19.07.11c.9,1.31.75,2.28-.49,3.14-1.02.71-2,1.47-2.95,2.2-.35.27-.7.54-1.04.8.92,1.52,1.91,1.15,3.06.73.73-.27,1.48-.54,2.24-.32l.16.05-.02.17c-.06.7-.12,1.38-.18,2.06-.13,1.51-.25,2.94-.4,4.39q-.53,4.95,3.32,7.92c.08.06.16.12.24.17.2.14.4.28.56.46,1.85,2.11,3.99,2.46,6.52,1.08.17-.09.35-.1.6-.1.14,0,.3,0,.5-.03h.15s.06.13.06.13c.9,2.2,2.59,1.88,4.54,1.52.21-.04.43-.08.64-.11l.37-.06c2.28-.39,4.63-.79,6.97-.96,1.5-.11,2.22-.83,2.89-1.95,1.47-2.42,2.98-4.87,4.45-7.23,1.73-2.79,3.51-5.67,5.22-8.52,1.03-1.72,2.16-2.52,3.76-2.66,1.29-.12,2.17-.8,2.94-2.29,1.28-2.48,2.63-4.97,3.94-7.39.94-1.74,1.89-3.47,2.81-5.22.42-.8.93-1.85,1.11-2.9.31-1.77.57-3.58.83-5.32.29-1.93.58-3.92.93-5.87.19-1.06-.03-1.83-.77-2.74-1.03-1.25-2-2.51-3.02-3.85Z"/><path class="cls-1" d="m380.97,416.96c-.03-.66-.06-1.34-.18-2.01-.05-.28-.25-.55-.47-.84-.05-.07-.11-.14-.16-.22-.07.06-.14.12-.22.18-.26.21-.53.43-.57.65-.46,2.41-2.28,3.02-4,3.3-.88.14-1.75.3-2.66.48-.36.07-.72.13-1.09.2l.14,1.73c3.44.04,6.71.03,9.24-2.78-.01-.22-.02-.46-.03-.69Z"/><path class="cls-1" d="m243.22,365.76c.22-.29.45-.57.66-.85.51-.64.99-1.25,1.4-1.9.83-1.3,2.08-2.84,4.35-3.15.47-.06,1-.32,1.07-.52l.29-.8c.61-1.69,1.24-3.44,1.52-5.21.14-.86,0-1.76-.17-2.71-.09-.54-.18-1.1-.22-1.65-.14-2.21-.84-4.02-2.2-5.71l-.1-.12c-1.33-1.65-2.58-3.21-4.28-4.42l-.05-.04c-.59-.42-1.25-.89-1.63-1.51-1.26-2.06-2.48-4.17-3.67-6.21-.42-.73-.85-1.46-1.27-2.19l-.06-.1,3.58-6.13c-.35-.4-.71-.78-1.06-1.16-.85-.92-1.65-1.78-2.3-2.77-1.14-1.73-2.8-2.34-5.42-1.97-.91.13-1.78.6-2.7,1.11-.38.21-.77.42-1.18.62l.21,1.09c.19.97.36,1.87.54,2.77.13.66.53.97,1.43,1.11.84.13,1.67.29,2.55.46.38.07.76.15,1.15.22l.12.02,1.39,3.96-2.05,1.23c.21.24.39.45.55.65.38.45.68.8,1,1.12.94.94,1.9,1.87,2.85,2.8,1.55,1.51,3.14,3.08,4.69,4.65.17.18.35.37.53.6.25.31.49.64.71.95l.13.18c.06.08.11.16.17.23v-.25h0s0-.2,0-.2l.38.96c.11.13.25.25.38.37.34.32.69.64.78,1.06.28,1.26.4,2.51.37,3.7-.04,1.16-.12,2.33-.21,3.47-.1,1.28-.2,2.6-.22,3.91-.03,1.54-.58,2.56-1.84,3.41-1.58,1.06-3.13,2.21-4.63,3.32-.58.43-1.16.86-1.74,1.28l1.51,4.04,2.66.3Z"/><path class="cls-1" d="m172.83,305.94c2.73.23,5.52.41,8.22.58l1.84.12c.36.02.73.02,1.16.01.16,0,.32,0,.49,0l-.47-2.7c-.32-.1-.63-.19-.93-.29-.72-.23-1.4-.44-2.09-.59-4.5-.97-7.87-2.42-10.61-4.54"/><path class="cls-1" d="m226,328.14s.04.03.05.05c.14.13.25.28.35.43.09.12.17.24.27.33.92.91,1.22,1.96.95,3.31-.13.66-.17,1.36-.21,2.17-.02.31-.03.64-.05,1l6.18-2.78,1.49,1.79-.07-.14.85,1.06h0s.04.05.04.05v-.12l.34.53h.11v.11s.21.21.21.21h0l.63.63h-.02c.19.19.39.38.59.57,2.31,2.22,4.49,4.69,3.48,8.46-.03.11,0,.27.02.39.09.49.36.86.74,1.02.39.16.86.09,1.3-.21.36-.24.71-.54,1.04-.82.16-.13.31-.27.47-.39.2-.16.39-.31.55-.46.21-.18.39-.34.54-.49t0,0h0c.84-.86.84-1.43.15-3.17-.06-.16-.13-.34-.21-.52-1-.93-1.99-1.85-2.99-2.78l-2.26-2.1c-1.77-1.64-3.53-3.29-5.28-4.95-1.24-1.17-1.24-1.93-.02-3.38.13-.16.26-.32.39-.49l.13-.16-.89-2.39c-.28-.06-.56-.13-.84-.2-.67-.17-1.31-.33-1.94-.34-1.64-.02-2.46-.78-2.73-2.54-.1-.63-.31-1.23-.54-1.87-.08-.23-.16-.46-.24-.69-1.63.36-2.43,1.07-2.71,2.42-.08.37-.22.73-.39,1.08l.1-.1-.38.71h.01s-.28.51-.28.51c-.2.53-.3,1.02-.3,1.5,0,.84.31,1.61.94,2.33.12.14.26.28.41.42Z"/><path class="cls-1" d="m171.3,343.59c1.67-1.76,3.35-3.58,4.96-5.34,2.1-2.29,4.28-4.65,6.48-6.92,1.96-2.02,3.54-3.94,3.03-6.85-.02-.11.02-.19.06-.29.02-.04.04-.09.06-.15l.03-.08,2.99-1.4c.2-2.7.06-4.92-1.27-6.95-.34-.52-.61-1.09-.87-1.65-.22-.47-.46-.96-.73-1.41-.63-1.04-.61-1.98.08-2.96.3-.43.56-.87.86-1.38.14-.24.29-.49.46-.76l.13-.21.18.17c.35.32.69.61,1.01.9.68.6,1.32,1.16,1.89,1.78.87.96,1.94,1.4,3.35,1.37.85-.02,1.68.03,2.48.07.33.02.66.04.97.05h.14s.05.14.05.14c.63,1.83-.22,2.83-1.04,3.8-.28.33-.39.63-.3.85.09.24.41.42.89.5.43.07.86.1,1.33.13.22.01.44.03.66.04h.14s1.02,3.56,1.02,3.56c1.46-1.74,2.42-3.22,2.69-5.04l.11-.69c.24-1.53.49-3.12.48-4.67-.01-3.83,1.34-6.02,4.37-7.09,0-.37.02-.72.03-1.07.04-.82.07-1.59-.06-2.31-.3-1.69-.93-2.78-1.8-3.15-.83-.35-1.9-.1-3.2.74-1.17.76-2.33,1.53-3.49,2.31-1.11.74-2.23,1.49-3.3,2.21l-1.13.76c.04.24.08.46.11.65.08.48.15.86.18,1.25.03.38.02.76.02,1.2,0,.21,0,.43,0,.68v.21h-.21c-.48,0-.95,0-1.41-.01-1.05-.02-2.04-.03-3.03.04-1.49.1-2.51-.38-3.31-1.56l-.09-.14c-.44-.66-.83-1.24-1.83-.69v3.7l-3.1-.21c-2.25-.15-4.43-.3-6.62-.47"/></svg>