<?xml version="1.0" encoding="utf-8"?>
<!-- Generator: Adobe Illustrator 28.3.0, SVG Export Plug-In . SVG Version: 6.00 Build 0)  -->
<svg version="1.1" id="Layer_1" xmlns="http://www.w3.org/2000/svg" xmlns:xlink="http://www.w3.org/1999/xlink" x="0px" y="0px"
	 viewBox="0 0 413.3 636" style="enable-background:new 0 0 413.3 636;" xml:space="preserve">
<style type="text/css">
	.st0{fill:#42738D;}
</style>
<path class="st0" d="M136.6,283.1c4.1-4.5,7.8-7.9,13.1-9.6c5.6-1.8,5.6-2,6.4-7.6l0.1-0.5c0-0.3,0.1-0.6,0.1-1.1c0-0.2,0-0.5,0-0.8
	c-0.9-0.6-1.7-1.4-2.6-2c-2-1.7-4.1-3.4-6.5-4.3c-3.9-1.5-5.9-3.5-6.8-6.9c-0.2-0.9-0.6-1.8-0.9-2.8c-0.2-0.5-0.4-1-0.5-1.5
	l-0.1-0.2l8.6-5l0.2,0.1l13.1,6.9l4-4.3l-6.7-4.1l0.2-0.3c0.3-0.4,0.5-0.8,0.8-1.1c0.5-0.8,1-1.5,1.5-2.2c1.2-1.6,2.3-3.2,3.5-4.8
	c2.4-3.3,4.9-6.6,7.4-10c0.9-1.2,1.3-2.2,1.1-2.8c-0.4-2-1-3.9-1.6-5.8c-0.2-0.7-0.4-1.3-0.6-2l-6.8-0.5l0.1-0.4
	c0.1-0.4,0.2-0.8,0.3-1.1c0.2-0.7,0.3-1.4,0.4-2c0.6-3.5,2.5-5.8,5.9-6.9c2.2-0.7,3.9-1.6,5.1-2.5c4.3-3.6,8.4-7.2,12.7-11.1
	c1.5-1.3,3.1-2.7,4.6-4.1c-0.3-0.3-0.6-0.6-0.8-0.9c-0.6-0.7-1.2-1.3-1.6-1.9c-1.4-2.1-3.3-2.8-6.1-2.4c-4.7,0.6-9.4,1-14,1.3
	c-1.9,0.1-3.3,0.8-4.8,2.4c-1.5,1.6-3.1,3.1-4.6,4.6c-0.7,0.6-1.3,1.3-2,1.9l-0.2,0.2l-1-0.7l4.9-11.4l-6.4-1.5l-4.1,6.8l-0.3-0.2
	c-0.3-0.2-0.6-0.5-0.9-0.6c-0.5-0.4-1-0.7-1.3-1.1c-1.9-2.3-4.3-3-8.1-2.4c-2.2,0.4-4.5,0.6-7.1,0.9c-1.2,0.1-2.4,0.2-3.8,0.4
	l-0.7,0.1l4.7-7.6l25.6-1c-0.5-0.7-1-1.3-1.4-1.9c-1.3-1.7-2.4-3.2-3.4-4.7c-0.8-1.2-1.8-1.8-3.3-2c-4.4-0.8-8.9-1.6-13.3-2.5
	c-3.5-0.7-7-1.3-10.5-2c-3.4-0.6-10.6,0.4-13.5,2v5.1l-11.8-3.9l-0.3-3.9l-7.6,1.6l-1.5,3.9l8.7,3.4l-9.9,7l-0.2-0.3
	c-4.3-6.6-8.9-9.5-15.1-9.5h-0.1l-1.6,6.3h-9.6l-0.1-0.2c-0.3-0.6-0.6-1.1-0.8-1.7c-0.6-1.2-1.2-2.3-1.6-3.5
	c-0.5-1.4-1.5-2.1-3.3-2.4c-1.4-0.2-2.8-0.4-4.2-0.6c-2-0.3-4.1-0.6-6.2-0.9c-0.9-0.1-2,0.1-2.8,0.4c-1.6,0.7-3.2,1.5-4.7,2.3
	c-0.5,0.3-1.1,0.6-1.6,0.8l-1,5.4l-0.3,0c-1.1-0.1-2.1-0.3-3.2-0.4c-4.5-0.7-8.6-1.3-12.5,2.2v8.9l-0.3,0.1
	c-1.1,0.2-2.2,0.4-3.2,0.7c-2.5,0.6-4.9,1.1-7.4,1.1l0,0c-1.4,0-2.8-0.9-4.2-1.7c-0.6-0.4-1.1-0.7-1.7-1l-3.1,4.9
	c0.8,0.9,1.4,1.6,1.9,2.2c1.9,2.3,4,3.3,6.4,3c0.9-0.1,2.1-0.3,3.6-0.4c0.4,0,0.8-0.1,1.2-0.1c0.5-0.1,1-0.1,1.5-0.2
	c0.3,0,0.6,0,0.9,0.1c0.1,0,0.3,0.1,0.5,0.1l0.2,0l0.8,3.6l-0.2,0.1c-0.6,0.3-1.3,0.6-1.9,0.9c-1.4,0.7-2.8,1.3-4.1,2
	c-1.6,0.9-3,0.9-4.7-0.1c-1.1-0.6-2.3-1.2-3.6-1.7c-0.5-0.2-0.9-0.4-1.4-0.6L3,193.8l3.6,4l-1.5,4.1l5.2,6.6
	c1.4-0.2,2.8-0.4,4.1-0.6c3.3-0.5,6.5-1,9.6-1.6c1.9-0.3,3.3,0.1,4.8,1.6l0.2,0.2c8.3,8.6,8.4,8.7,12.6,19.9
	c0.2,0.4,0.3,0.8,0.4,1.2c0.3,0.8,0.5,1.6,0.9,2.4c1.9,3.2,1.7,6.5-0.5,10.2c-1.2,2-2.3,3.9-2.8,6.3c0.4-0.1,0.8-0.1,1.2-0.1
	c1-0.1,1.8-0.2,2.7-0.3c3.1-0.5,5.2-0.1,6.6,1.2c1.4,1.4,1.8,3.6,1.2,6.9l0,0.2l-8.1,0.5c2.2,4,5.8,5.4,10.5,6.1l0.5,0.1l-0.3,0.4
	c-0.3,0.5-0.7,1-1,1.4c-0.6,0.8-1.1,1.5-1.6,2.2c-1.1,1.5-2.3,3.1-3.4,4.6c-2.2,2.9-4.4,5.9-6.6,8.8c-0.8,1-1.5,2.1-1.7,3.2
	l-0.2,0.7c-1.1,5.5-2.3,11.1,0.5,16.6c1.2,2.5,0.6,4.7-0.2,6.6c-0.3,0.8-0.8,2.3-0.5,3.5c1.7,6.6,3.7,12.8,9.1,17.5
	c1.5,1.3,2.7,1.9,4.5,1.3c0.8-0.2,1.7-0.4,2.6-0.6c0.5-0.1,1-0.2,1.5-0.3l0.4-0.1l0,0.4c0,0.7,0,1.3,0.1,1.9c0,1.3,0.1,2.3,0.3,3.4
	c0.4,1.7,1.1,4,2.8,5.1c1,0.6,2.3,0.7,3.8,0.3c0.4-0.1,0.8-0.2,1.3-0.4l0.5-0.1c0.2-0.5,0.3-1.1,0.5-1.6c0.4-1.3,0.8-2.5,1-3.8
	c1.2-7.8,5.4-13.9,9.8-19.3c3.7-4.6,8.4-9.5,15.9-11.4c7.4-1.9,13.3-6.3,17.5-12.9c1-1.6,2.3-3.1,3.7-4.6c0.6-0.7,1.3-1.5,1.9-2.2
	l0.2-0.2l0.2,0.2c3.4,2.6,7.1,2.7,11,2.7c0.7,0,1.4,0,2.1,0C132.7,286.1,134.7,285.2,136.6,283.1L136.6,283.1z"/>
<path class="st0" d="M145,319.4c1.7,0.5,3.5,1.1,5.2,1.7c2.3,0.9,4.6,0.9,6.9,0.1c5.6-1.9,9-6.2,11.5-10.2c1.1-1.7,1.1-5.8-0.1-6.9
	c-1.3-1.2-2.6-2.3-4.2-3.5c-0.6-0.5-1.3-1-1.9-1.6c-0.1,0.2-0.3,0.5-0.4,0.7c-0.4,0.6-0.7,1.1-1.1,1.6c-1.9,2.1-2.5,2.1-4.6,0.5
	c-2.9-2.2-3.5-2.2-6.2,0c-1.3,1-2.6,2.2-3.8,3.3c-0.6,0.5-1.1,1-1.7,1.5l-0.2,0.2l-0.2-0.2c-2.1-1.6-1.4-3.4-0.9-4.8
	c0.2-0.4,0.3-0.9,0.4-1.3c-3.3-2.8-3.3-2.8-6.5-0.6c-1.3,0.9-2.6,2-3.8,3.2c-0.3,0.3-0.5,0.8-0.7,1.4c-0.1,0.2-0.1,0.4-0.2,0.5
	l5.2,1.4l-1.8,5.6l4.5,0.8l0.3,5l0.6,0.2c0.5,0.2,1,0.4,1.4,0.5C143.3,318.9,144.2,319.2,145,319.4L145,319.4z"/>
<path class="st0" d="M186.8,477.8c0.1-0.9,0.2-1.7,0.3-2.5c0.2-1.9,0.4-3.8,0.7-5.6c0.3-1.9,0.6-3.8,0.9-5.6c0.4-2.3,0.8-4.7,1.2-7
	c0.1-0.9,0.1-1.9,0-2.9c0-0.4-0.1-0.8-0.1-1.2h-6.3c-0.1,1-0.2,2-0.3,3c-0.2,2.8-0.5,5.4-0.6,8c-0.1,1.4-0.3,2.9-1.8,4
	c-0.6,0.4-1,1-1.1,1.5c-0.1,0.4,0,0.7,0.3,1.1c1.8,2.4,1.5,4.9,0.9,7.3L186.8,477.8L186.8,477.8z"/>
<path class="st0" d="M274,473.7c2.1,1.2,4.4,2.4,6.7,3.6c0.7,0.4,1.5,0.8,2.2,1.2c0-0.5,0-1.1,0-1.5c0-1.2,0-2.2,0-3.2
	c0-1.3-0.3-2-0.8-2.5c-0.5-0.4-1.2-0.6-2.5-0.5c-1.5,0.1-3.1,0.4-4.8,0.7c-0.6,0.1-1.3,0.2-2,0.3c0.1,0.2,0.2,0.5,0.3,0.7
	C273.5,473,273.7,473.5,274,473.7L274,473.7z"/>
<path class="st0" d="M180.2,387.4c-1.3,0.8-2.4,1.6-3.6,2.4c-0.5,0.4-0.8,0.8-0.8,1.2c0,0.5,0.2,1,0.8,1.5c1.6,1.5,3.7,1.8,6.3,1
	c3.1-0.9,6.1-2,9-3.2c1.2-0.5,2.4-0.9,3.6-1.3l1.1-8.8c-2.6,0.3-4.7-0.1-6.2-1.3c-1.3-1.1-2.1-2.6-2.4-4.7l-1.7,3.6h-5.1
	c-0.9,2.6-0.6,5,0.9,8.1l0.1,0.3l-0.2,0.2C181.3,386.7,180.8,387.1,180.2,387.4L180.2,387.4z"/>
<path class="st0" d="M221.9,459.9c1.1-0.9,2.2-2,3.3-2.9c1.2-1.1,2.4-2.2,3.7-3.3c2.1-1.8,2.9-3.6,2.5-6.3c-0.6,0-1.2,0-1.8,0
	c-1.7,0-3.4,0-5.2-0.1l0,0c-1.5-0.1-3.3-0.2-4.6-1c-5.1-3.2-11-4.5-18.1-3.9c-1.1,0.1-2.2,0.1-3.3,0c-0.6,0-1.2,0-1.8,0h-0.5
	c-2.9,0-6,0.1-8.8-1.5c-1.4-0.8-2.3-0.4-3.3,1.3c-1.6,2.8-1.7,5.3-0.3,8.3l1.1,0.1c1,0.1,2.1,0.2,3.2,0.3c3.4,0.3,4.4,1.5,4.1,4.9
	c-0.1,1.1-0.3,2.1-0.5,3.2c-0.1,0.4-0.1,0.7-0.2,1.1c-0.3,1.5-0.6,3.1-0.8,4.6c-0.5,2.9-1.1,5.9-1.6,8.8c-0.6,3.5-0.2,3.9,2.6,5.6
	c2.9,1.7,6.3,2.2,10.3,1.5c2.7-0.5,5.4-1.2,8-1.9c0.7-0.2,1.5-0.4,2.2-0.6c0.7-0.2,1.5-0.4,1.9-0.9c0.5-0.7,1.1-1.3,1.6-1.9
	c2.7-3.1,5.2-6,4.3-10.6C219.5,462.8,220.2,461.3,221.9,459.9L221.9,459.9z"/>
<path class="st0" d="M246.2,353.7c1.8,0.4,3.9-0.4,5.8-2.3c2-2,3.9-4,5.9-6.2c0.9-1,1.8-1.9,2.7-2.9l0.4-0.5l1.2,5.2l0.1-0.2
	c2.6-4.2,4.8-7.8,4.5-12.6c-0.3-3.9-0.2-8-0.1-11.8c0-1.9,0.1-3.8,0.1-5.7c0-1.4,0-2.9,1.7-3.6c2.4-1,2.9-2.8,2.9-5.4
	c0.1-2.6,0.3-5.2,0.7-7.8c0.3-1.7,0.9-3.2,1.6-4.4c1.6-2.5,3.4-5,5.1-7.4c1.5-2.1,3-4.2,4.4-6.4c1-1.5,2.4-2.6,4.4-3.4
	c1.4-0.6,3.2-1.4,4.4-2.6c1.4-1.4,2.6-1.8,4.5-1.2c2.5,0.8,5,1.6,7.5,2.4l2.8,0.9c0.2-0.6,0.3-1.2,0.5-1.8c0.4-1.7,0.9-3.5,2-4.9
	c1.1-1.3,2.7-2.1,4.4-3c0.7-0.4,1.5-0.8,2.2-1.2l0.3-0.2l0.2,0.3c0.4,0.6,0.7,1.3,1.1,1.9c0.8,1.4,1.5,2.6,2.3,3.8
	c0.3,0.4,0.9,0.7,1.4,1c0.2,0.1,0.5,0.2,0.7,0.4l1.5-0.8c0-0.2,0-0.4,0-0.6l0-0.8c0-0.6,0-1.6-0.3-1.9c-1.1-0.9-1.7-1.8-1.7-2.8
	c0-1.2,0.9-2.4,1.9-3.4c-0.1-0.1-0.3-0.1-0.4-0.2c-0.4-0.2-0.8-0.4-1.1-0.6c-4.6-2-9.4-1.4-14-0.8c-0.3,0-0.6,0.1-0.8,0.1
	c-2.1,0.2-2.9,0.3-3.2,3.3c0,0.4-0.3,0.8-0.6,1.3c-0.2,0.3-0.4,0.6-0.6,1l-0.2,0.4l-4.5-4.4l-4.4,0.3c-0.4,0.8-0.5,1.6-0.6,2.5
	c-0.2,1.8-0.4,3.6-3,4l-0.2,0l-2.1-2.3l-10.9,8.8l1.8,3.2l-0.4,0.1c-3.6,0.8-4.9,3.6-6.2,6.3c-2.2,4.7-4.5,9.1-6.5,12.9
	c-0.8,1.5-1.6,2.7-2.6,3.5c-1.3,1.1-2.1,1.9-2.1,2.4c0,0.4,0.9,1,2.3,1.9c0.2,0.1,0.4,0.3,0.7,0.5c0.1,0.1,0.3,0.2,0.4,0.4l0.2,0.1
	l-1.1,4.2l-8.4-1.6c-0.1,0.1-0.2,0.2-0.3,0.3c-0.5,0.5-1.1,1.2-1.8,1.9c-0.3,0.3-0.6,0.6-0.9,0.9c-1.5,1.5-3,2.8-2.9,5.2
	c0,0.9-1.5,1.8-2.1,2c-0.6,0.3-1.2,0.4-1.8,0.5c-0.5,0.1-1.1,0.2-1.5,0.4l-0.2,0.1c-0.8,0.3-1.9,0.8-2.1,1.3
	c-0.2,0.4-0.3,0.9-0.5,1.3c-0.9,2.1-1.7,4.3-1.6,6.4c0.3,5.7,0.7,11.8,2.8,17.5C242.9,351.8,244.4,353.4,246.2,353.7L246.2,353.7z"
	/>
<path class="st0" d="M323.8,290.1c0.1-1.4,0.3-2.8,0.5-4.3c0.1-0.5,0.1-1.1,0.2-1.6l-3.6-1.2l-0.3-5.1l-5-8.3
	c-5,1.4-5.9,5.3-6.8,9.4c-0.1,0.6-0.3,1.2-0.4,1.8l-0.1,0.4l-0.4-0.2c-0.4-0.2-0.7-0.4-1-0.5c-0.6-0.3-1.1-0.6-1.6-0.8
	c-3.5-1.3-6.4-2.3-9-3.2c-0.8-0.3-1.4-0.3-1.9,0c-0.4,0.2-0.7,0.7-0.9,1.4c1.2,1.8,2.8,2.6,5.2,2.5c0.2,0,0.4,0,0.5-0.1
	c0.2,0,0.3,0,0.5-0.1c0.1,0,0.2,0,0.4,0l0,0c0.6,0,1.4,0.2,1.7,1.4l1.1,0.5h-0.6c2,2.1,3.2,4.3,3.8,6.7c0.2,1,0.3,2,0.3,3
	c0,1.5,0,3.5,0.3,5.4c0.1,0.8,0.8,1.9,1.4,2.1c2.3,1,3.1,2.8,4,5.1l0.1,0.2l-0.1,0.1c-0.3,0.4-0.6,0.7-0.8,1.1
	c-0.6,0.8-1.3,1.7-2,2.5c-1.5,1.7-3,3.3-4.5,5c-0.9,1-1.9,2-2.8,3.1c-4.2,4.6-4.8,11.3-1.4,16.5c0.3,0.4,0.7,0.8,1,1
	c1.7,1.3,3.4,2.5,5.1,3.8l1.6,1.2l1.2-0.6c1.5-0.8,3.1-1.5,4.6-2.2c0.6-0.3,1.2-0.5,1.8-0.8c4.5-1.9,8.2-2.6,12-2.5l3.7-6h0l3.8-6.1
	c-0.3-0.7-0.5-1.4-0.8-2c-0.7-1.7-1.4-3.5-2-5.3c-0.3-0.8-0.5-1.7-0.7-2.5c-0.1-0.4-0.2-0.8-0.3-1.1l0-0.2l-2.3-5.2l0,0
	c0,0,0-0.1,0-0.1l0,0l-2.3-5.3l0,0l-1.6-3.9l-0.3-1.3c-1.5-0.7-1.3-2-1.2-3C323.7,290.4,323.7,290.2,323.8,290.1L323.8,290.1z"/>
<path class="st0" d="M360,419.9c0.5,0,0.9,0,1.4,0c0.9,0,1.8,0,2.7,0c2.5,0.3,4.6-0.5,6.8-2.4c1.3-1.1,2.7-2.1,4.1-3
	c0.6-0.4,1.2-0.8,1.8-1.2l0.6-0.7l0,0l0,0c0.4-0.4,0.7-0.8,1.1-1.2c0.2-0.3,0.5-0.5,0.7-0.8c0.1-0.1,0.2-0.3,0.3-0.4
	c0.5-0.5,0.9-1.1,1-1.6c0.2-2.3,0.3-4.6,0.4-7c0-0.8,0.1-1.6,0.1-2.4l-2.3-0.3c-1.9-0.2-3.6-0.4-5.4-0.6c-0.9-0.1-1.9-0.1-2.8-0.1
	c-2.1,0-4.4-0.1-6.1-1c-2.3-1.3-3.8-3.8-5.3-6.3c-0.2-0.3-0.4-0.6-0.6-0.9c-1.5-2.4-3.7-3.7-6.8-4.1c-1.4-0.2-2.8-0.1-4.1-0.1
	c-0.5,0-1.1,0-1.6,0l-3.1,7h-0.2c-1,0-1.9,0-2.9,0c-2.3,0-4.5,0-6.6-0.1c-1.6-0.1-3.2-0.4-4.6-0.9c-5-1.9-8.6-1.5-12.1,1.6
	c1.8,3.6,0.2,6.7-1.3,9.8c-0.3,0.6-0.6,1.2-0.9,1.7c-0.4,1-0.9,2.1-1,3.2c-0.2,1.6,0,2.6,0.5,3.3c0.5,0.6,1.5,1,3.2,1l1.2,0.1
	c2.5,0.2,5.1,0.3,7.7,0.3c1.2,0,2.6-0.5,3.7-1.2c2.8-1.8,5-1.5,6.9,0.6c1.3,1.5,2.4,3.1,3.5,4.7c0.5,0.7,0.9,1.3,1.4,2l0.1,0.2
	l-3.8,7.2l4.3,1.2l1.4-1.6c1.1-1.2,2.1-2.5,3.2-3.6c2-2.2,2.9-2.4,5.4-1.3c0.9,0.4,1.7,1,2.4,1.5c0.4,0.2,0.7,0.5,1.1,0.7l0.3,0.2
	l-2.6,4c3.5,6.6,3.7,6.6,6.6,6.1c0.4-0.1,0.7-0.1,1.2-0.2c0.8-2.8,2.9-4.5,6.3-4.9v-2.8l-8-1.5l0.4-4.1L360,419.9L360,419.9z"/>
<path class="st0" d="M268.8,324.9c-0.1,4-0.2,8.2-0.2,12.3c0,2.3-0.6,4.3-1.9,6.4c-1.1,1.6-2.1,3.4-3,5c-0.4,0.7-0.8,1.3-1.2,2
	c0.6,1,1.3,1.9,1.9,2.9c1.5,2.2,2.9,4.3,4,6.5c1.1,2.3,1.8,4.8,2.6,7.3c0.3,1.1,0.6,2.1,1,3.2c0.9,0.3,1.7,0.3,2.2,0.1
	c0.4-0.2,0.7-0.6,0.9-1.2c1-3.4,3.6-4.6,6.1-5.2c0.6-0.1,1.1-0.4,1.6-0.7c0.2-0.1,0.4-0.2,0.5-0.2c0-0.9,0-1.7,0-2.5
	c0-2,0.1-4-0.1-5.9c-0.2-3.2,0.6-5.2,2.9-7c3.2-2.5,4.9-5.4,4.9-8.9c-0.5-0.4-1-0.7-1.5-1.1c-1.3-1-2.7-2-4-3
	c-1.1-0.9-1.7-1.7-2-2.5c-1.6-5.3,1-9.4,4-13.5c0.2-0.2,0.5-0.5,0.9-0.6c3.1-0.1,4.3-2.2,5.6-4.4c0.6-1,1.2-2,2-2.9
	c0.5-0.5,0.6-1.6,0.5-2.3c-0.5-3,0.7-5.1,3.8-6.9c0.5-0.3,1-0.7,1.5-1c0.4-0.3,0.9-0.6,1.3-0.9c1.1-0.7,1.5-1.5,1.3-3
	c-0.1-0.9-0.2-1.8-0.3-2.7c-0.4-4.1-0.7-7.9-3.2-11.3c0,0-0.1-0.1-0.1-0.2c0,0,0,0,0,0c-0.1-0.2-0.1-0.4-0.1-0.7c-0.5,0-1,0-1.5,0
	c-1.5,0.1-3.1,0.1-4.6-0.4c-0.2-0.1-0.4-0.1-0.6-0.2c-0.4-0.2-0.8-0.4-1.1-0.7c-0.2-0.1-0.4-0.3-0.5-0.5c-0.2-0.2-0.3-0.4-0.5-0.5
	c-0.2-0.2-1-0.3-1.5-0.2c-2.3,0.6-4.7,1.3-6.2,3.8c-1.5,2.5-3.3,4.9-4.9,7.2c-1.3,1.8-2.6,3.7-3.9,5.6c-0.8,1.2-1.4,2.7-1.5,4.1
	c-0.3,2.7-0.5,5.5-0.6,8.2l-0.1,1.5c-0.1,1.5-0.4,3.2-2.5,4c-0.4,0.2-0.8,0.4-1.3,0.8c-0.2,0.1-0.5,0.3-0.7,0.5v1.1c0,1,0,1.9,0,2.9
	C268.8,321.1,268.8,323,268.8,324.9L268.8,324.9z"/>
<path class="st0" d="M192.9,378.6c1.8,0.6,3.9-0.6,5.1-3c-2.8-4.5-2.9-4.6-7.6-3.1C189.9,376.5,190.4,377.7,192.9,378.6L192.9,378.6
	z"/>
<path class="st0" d="M196.4,365.4l2.5,0.5l0.1,0.1c0.1,0.1,0.1,0.2,0.1,0.2c0.1,0.1,0.2,0.3,0.2,0.4c0,1.3,0,2.6,0.1,3.9
	c0,3,0.6,3.6,3.4,3.9c0.9,0.1,1.7,0.2,2.6,0.3l1.6,0.2l0.8,9.4l-4.2,0.8l-4.4,9.9l6,1l0.3,1.2l-10.7,6.4c3.1,2,3.2,2,6.1,0.6
	l0.5-0.2c0.6-0.3,1.3-0.6,1.9-0.9c3.9-2.1,8.3-3.8,13.6-2.6c2.8,0.6,5.4-0.6,6.9-3.4l-1.8-2.4l0.8-0.7c0.4-0.3,0.7-0.6,1-0.9
	c1.8-1.5,2.2-3,1.3-5c-0.9-1.9-2-2.9-3.6-3.4c-1.7-0.4-2.7-1.3-3.4-2.8c-0.8-1.8-1.6-3.5-2.5-5.2c-1-2.1-2.1-4.2-2.9-6.4l-0.1-0.2
	c-1.2-3.1-2.6-6.2-0.2-9.6c0.3-0.4,0.2-1,0.2-1.8c0-0.3,0-0.6,0-1c-0.5,0-1,0-1.5,0c-1.2,0-2.4,0-3.5,0c-1.2-0.1-2-0.4-2.4-1
	c-0.3-0.6-0.2-1.4,0.3-2.5c0.4-0.7,0.8-1.3,1.3-2.1c0.2-0.4,0.5-0.7,0.7-1.1l-1.3-1.2c-6.5,2-7.8,6.9-9.2,12
	c-0.2,0.8-0.4,1.7-0.7,2.5c-0.1,0.2-0.1,0.5,0,0.9C196.4,365.3,196.4,365.3,196.4,365.4L196.4,365.4z"/>
<path class="st0" d="M272.8,416.4c-2.1,1.1-4.3,1.7-6.9,1.7c-1,0-1.7,0.2-2,0.7c-0.4,0.5-0.4,1.2-0.2,2.1c0.2,0,0.4,0,0.6,0
	c0.6,0,1.2,0,1.7,0c0.9-0.1,1.8-0.2,2.7-0.2c1.7,0,3.4,0.4,4.8,2c0.3,0.4,1.2,0.6,1.8,0.5c4.6-0.4,8.3-1.7,11.3-4.1
	c1-0.8,1.5-1.8,1.6-2.7c0-1.1-0.5-2.2-1.7-3.4c-2.6-2.5-5.6-2.6-9.5-2c0.6,3-1.4,3.9-3.3,4.9C273.4,416.1,273.1,416.2,272.8,416.4
	L272.8,416.4z"/>
<path class="st0" d="M217.4,408c-1.8-0.8-2.7-1.2-3.2-1c-0.5,0.2-0.9,1.2-1.6,3c-0.1,0.3-0.3,0.5-0.5,0.8c-0.1,0.2-0.3,0.4-0.5,0.7
	l-0.1,0.1h-9.3c-0.4,1.7,0.4,2.3,1.4,3c0.1,0.1,0.3,0.2,0.4,0.3l0.5,0.3c3.7,2.7,7.4,5.5,11.1,8.2c0.9,0.7,1.8,1.5,1.8,2.2
	c0,0.6,0.1,1.3,0.1,2c0.2,2.6,0.4,5.2-1.2,7.7c-0.8,1.2-1.5,2.5-2.2,3.9c-0.3,0.5-0.6,1.1-0.9,1.6c0.9,0.5,1.8,0.9,2.6,1.4
	c1.9,1,3.7,2,5.6,2.5c2.6,0.6,5.5,0.6,8.2,0.6c0.7,0,1.4,0,2.1,0l0,0c0.4,0,0.9-0.5,1.3-0.9c0.1-0.1,0.2-0.2,0.3-0.3
	c2.2-2.1,5.7-2.7,8.5-1.4c4.7,2.1,7.2,1.4,10.1-3.2c-0.2-0.2-0.3-0.4-0.5-0.6c-0.4-0.6-0.9-1.3-1.5-1.8c-2.1-2-2.1-4.5-1.8-6.4
	c0.3-2,0.2-3.1-0.3-3.6c-0.5-0.6-1.6-0.8-3.9-0.7h-0.2l-0.1-0.1c-1.2-1.9-0.1-3,0.7-3.9l0.2-0.2c0.5-0.6,1.1-1.2,1.6-1.8
	c1-1.1,2.1-2.3,3.1-3.5c1.2-1.4,1.7-2.9,1.4-4.4c-0.3-1.4-1.2-2.6-2.8-3.4c-1.6-0.9-3.3-1.7-4.9-2.5c-1.5-0.8-3.1-1.6-4.7-2.4
	c-1-0.5-2-1.2-2.9-1.8c-0.5-0.3-0.9-0.6-1.4-0.9c-3.6-2.3-4.9-2.2-8,1c-1.4,1.4-2.8,3-4.2,4.6C220.3,408.4,219,408.7,217.4,408
	L217.4,408z"/>
<path class="st0" d="M245.8,406.1c0.5-3-0.1-4.5-2.4-5.7c-0.2-0.1-0.5-0.2-0.8-0.3c-0.5-0.2-1.1-0.3-1.4-0.8
	c-1.7-2.2-4.1-2.5-6.6-2.8c-0.5-0.1-0.9-0.1-1.4-0.2l-0.9,2c1.6,0.9,3,2,4.5,3C239.6,403.3,242.4,405.3,245.8,406.1L245.8,406.1z"/>
<path class="st0" d="M243.8,396c0.4-2.1,1-4.6,4.4-5l-1.6-8.1l-6.1,3l0.2,1c0.2,1.1,0.5,2.1,0.6,3.1c0.1,0.3-0.2,0.5-0.5,0.8
	c-0.1,0.1-0.2,0.2-0.3,0.4l-0.2,0.3l-2.6-2.5c-0.4,0.5-0.7,1-1.1,1.5c-0.9,1.2-1.6,2.3-2,3.5l8.6,3.7
	C243.5,397.2,243.7,396.6,243.8,396L243.8,396z"/>
<path class="st0" d="M245.3,423.6c0,0,0.1,0,0.1,0c1.9,0,2.9,1.3,3.9,2.5c0.3,0.4,0.7,0.8,1,1.2c1.2-0.6,2.3-0.8,3.3-0.8
	c1.6,0,3,0.6,4.3,1.9l4.5-6.7c-2.9-0.2-5.3-0.8-6.6-3.7c-0.1-0.4-0.6-0.6-1.4-0.8c-1.4-0.3-3.1,0.1-3.7,0.7c-1.5,1.5-2.9,3-4.3,4.5
	C246.1,422.8,245.7,423.2,245.3,423.6L245.3,423.6z"/>
<path class="st0" d="M256.6,438.5c0.3,0,0.5,0,0.8,0c1.8,0,3.2,0.7,4.5,2.4c0.9,1.1,1.8,2.2,2.7,3.2c1,1.2,2.1,2.4,3.1,3.6
	c3.7,4.9,7.5,7.5,12.5,8.7c3.2,0.7,6.8,3.3,7,8.3c0.1,1.6,0.3,3.1,0.6,4.9c0.1,0.7,0.2,1.5,0.4,2.2c3.3-2.7,4.5-6,4-10.6l0-0.2
	l0.3-0.3c0.1-0.1,0.1-0.1,0.2-0.2c0.5-0.4,1.1-0.5,1.8-0.5c1.1-0.1,1.7-0.2,1.7-1.4c0-1.2-0.9-1.5-2-1.9c-0.4-0.1-0.9-0.3-1.3-0.5
	c-1-0.6-2.1-1.1-3.1-1.6c-1.8-0.9-3.7-1.8-5.3-3.1c-2.9-2.3-5.8-5.2-8.9-8.8c-2.9-3.4-6.2-7.2-5.5-12.8l0-0.2l4.5-1.3
	c-0.5-3.4-2.1-5.4-4.8-6c-3.5-0.8-6.3,0.5-7.9,3.5c-0.4,0.8-1,1.4-1.4,2c-1.1,1.3-2.5,2.4-4.8,1c-1.6-1-3.9-0.6-4.9,0.5
	c-1.1,1.2-1.3,2.8-0.8,4.4C250.9,436.8,253.8,438.8,256.6,438.5L256.6,438.5z"/>
<path class="st0" d="M304.2,447.6c-2.9,3.8-2.6,9.4,0.5,13.3c1.3-0.4,1.8-1.5,2.3-2.7c0.3-0.6,0.5-1.2,0.9-1.7
	c-1.2-1.2-1.4-2.8-1.6-4.3C306.1,450.4,305.8,448.8,304.2,447.6L304.2,447.6z"/>
<path class="st0" d="M291,373.9c-1.8,0.6-3.5,1.1-5.2,1.6c-3.2,0.9-5.4,3.2-7.1,5.4c-0.6,0.8-0.5,2.2-0.4,3.6c0,0.6,0.1,1.2,0.1,1.8
	c0,1.1,0,2.3,0.1,3.5c0.3,3,1.8,5.4,4.4,7.1c4.5,3,8.7,5.6,12.8,8c2.4,1.4,5,2.5,8.1,1.2c0.9-0.4,2-0.3,3-0.2c0.5,0,1,0.1,1.5,0
	c0.3,0,0.6,0,1,0c0.8,0,1.6,0,2.1-0.3c2.8-1.8,4.2-8.3,3-11.5c-0.1-0.3-0.2-0.7-0.4-1c-0.8-2.1-1.7-4.6-1.2-6.6
	c0.6-2.7-0.3-4.4-1.5-6.4c-0.1-0.2-0.3-0.5-0.4-0.8c-1.1-2-2.5-2.8-5-2.7c-2.9,0.1-5.8,0-8.7-0.1c-1.2,0-2.5-0.1-3.7-0.1h-0.3v-3.2
	C292.4,373.4,291.7,373.7,291,373.9L291,373.9z"/>
<path class="st0" d="M334.4,424c0.2,0.6,0.3,1.2,0.5,1.9c1.5-1.2,2.3-2.8,3.2-4.5c0.4-0.8,0.8-1.6,1.3-2.4c-0.5-0.6-0.9-1.1-1.3-1.6
	c-1-1.2-1.9-2.4-2.9-3.5c-1.1-1.2-1.9-1.8-2.6-1.8l0,0c-0.8,0-1.7,0.6-3,2.1c0.3,0.5,0.6,0.9,0.9,1.4c0.9,1.2,1.7,2.5,2.4,3.9
	C333.6,420.9,334,422.4,334.4,424L334.4,424z"/>
<path class="st0" d="M301.5,365.5l-1.7,9.3c0,0,0,0,0.1,0c0.3,0,0.5,0.1,0.7,0.1c0.8,0,1.5,0,2.3,0c0.4,0,0.8,0,1.1,0
	c1.2,0,2.4,0,3.6,0.1c1.5,0.1,2.6,0.4,3.3,1c3.2,2.5,6.5,2.2,8.8-0.8c0.2-0.3,0.5-0.6,0.7-0.9c0.6-0.8,1.3-1.6,1.9-2.5
	c0.8-1.2,1.1-2.4,0.9-3.5s-1-2.1-2.2-2.9c-0.6-0.4-1.2-0.7-1.8-1c-1-0.5-2-1.1-2.9-1.8c-0.1-0.1-0.3-0.2-0.5-0.3
	c-1.7-1.1-3.4-1.6-5.3-1.6c-0.6,0-1.2,0.1-1.9,0.2C307.2,363.8,304.7,365.4,301.5,365.5L301.5,365.5z"/>
<path class="st0" d="M313.8,351.4c2.4,0.7,4.9,1.1,7.5,1.5c1,0.1,2,0.3,3,0.5c0-0.5,0-0.9,0-1.4c0-1.2,0-2.2,0-3.2
	c0-1.3-0.1-2.6-0.2-4.1c0-0.6-0.1-1.2-0.1-1.9c-0.6,0-1.1,0-1.7,0c-1.3,0-2.4,0-3.5-0.3c-0.5-0.1-1-0.2-1.5-0.2c-2.2,0-4,1.2-6,2.4
	c-0.3,0.2-0.6,0.4-0.9,0.5c-0.6,0.4-0.9,0.9-1,1.4c-0.1,0.5,0.1,1,0.4,1.5C311.1,349.6,312.4,351,313.8,351.4L313.8,351.4z"/>
<path class="st0" d="M323.8,355.2c-2.2-0.7-4.5-1-6.7-1.2c-0.9-0.1-1.8-0.2-2.6-0.4c-1.1,4,0,6.5,3.4,7.9c1.4,0.6,2.8,1.5,3.7,2.3
	c2.1,1.6,4.2,1.7,6.5,0.2c0-0.3,0-0.7,0-1c0-0.8,0.1-1.4-0.1-2C327.4,358.7,326.4,356,323.8,355.2L323.8,355.2z"/>
<path class="st0" d="M343.6,373.6c-0.4-0.5-0.7-1-1.1-1.5c-4-5.6-10.9-7.5-17.5-4.8c0.7,2.9-0.7,4.9-2,6.7c-0.4,0.6-0.8,1.1-1.2,1.7
	c-2,3.3-5.1,3.8-8.6,3.8c2.1,2.4,1.8,4.7,1.5,7l0,0.3c-0.1,1,0.1,2,0.5,3.1c0.1,0.4,0.2,0.9,0.3,1.3c0.3-0.1,0.5-0.2,0.7-0.4
	c0.6-0.3,1-0.5,1.4-0.8c2.9-1.9,6.5-2.2,10-0.8c3.3,1.3,6.7,1.2,9.9,1.1c1.4,0,2.8-0.1,4.2,0c0.5-0.9,1-1.9,1.4-2.8
	c1.3-2.5,2.5-4.9,3.6-7.4c0.3-0.8-0.1-2.2-0.6-3.3C345.4,376,344.5,374.8,343.6,373.6L343.6,373.6z"/>
<path class="st0" d="M298.2,442.6c0.8-1,1.4-2,2-2.9c0.7-1.2,0.7-3-0.2-4.7c-0.8-1.5-2-2.5-3.2-2.6c-2.3-0.2-4.6-0.1-6.9,0
	c-0.9,0-1.9,0.1-2.8,0.1l-0.2,0.7l10.4,10.8C297.6,443.5,297.9,443.1,298.2,442.6L298.2,442.6z"/>
<path class="st0" d="M281.2,434.1c0.2,0.3,0.4,0.6,0.5,0.9c0.5,0.7,1,1.5,1.2,2.4c0.5,2.9,2,4.6,5.1,5.7c1.2,0.4,2.4,1,3.5,1.5
	c0.7,0.4,1.5,0.7,2.2,1c0.4,0.2,0.9,0.2,1.4,0.3c0.2,0,0.3,0,0.5,0.1l0.4-0.5c-1.8-2.2-3.7-4.2-5.8-6.4c-1.8-1.9-3.7-3.8-5.5-5.9
	l-0.2-0.2l0.2-0.2c2.3-2.1,5-2.1,7.6-2.1c1.6,0,3.2,0,4.7-0.5l0.5-2.2l-9.7-1c-0.3,0.2-0.6,0.5-1,0.9c-1,0.9-2.1,2-3.5,2.5
	c-1.4,0.6-2.9,0.7-4.5,0.9c-0.6,0.1-1.3,0.1-1.9,0.2l-0.2,3.7l4.4-1.3L281.2,434.1L281.2,434.1z"/>
<path class="st0" d="M260.9,362c-0.4-1.6-1-3.2-1.7-5c-0.3-0.7-0.5-1.4-0.8-2.1c-0.6,0.7-1.2,1.4-1.8,2c-1.3,1.4-2.4,2.7-3.6,3.8
	c-1.9,1.8-2.5,4-1.8,7.1c0.4,1.8,1.1,3.4,1.9,5.2c0.3,0.7,0.6,1.4,0.9,2.2l4.1-1c0-0.2,0-0.4,0-0.6c0-0.4,0-0.8,0-1
	c-0.4-2.7-0.4-5.5,2.2-7.7C260.9,364.3,261.1,362.9,260.9,362L260.9,362z"/>
<path class="st0" d="M252.8,414.9c0.5,0.2,1.1,0.4,1.7,0.6c1.7,0.5,3.7,1,4.5,3.5c0.1,0.3,0.4,0.5,0.6,0.5c0.6,0.1,1.5-0.1,2.1-0.8
	c0.3-0.3,0.5-0.8,0.8-1.4c0.2-0.3,0.4-0.7,0.6-1.1l0.1-0.2l0.2,0c3.1,0.7,6,0,9.5-2c1.4-0.8,2.1-1.6,2.2-2.5
	c0.1-0.8-0.4-1.7-1.4-2.8c-0.6-0.6-1.2-1.1-1.8-1.7c-0.7-0.7-1.5-1.3-2.1-2c-0.5-0.5-0.9-1.1-1.3-1.7c-0.2-0.3-0.4-0.6-0.6-0.9
	l-0.2-0.3l0.3-0.2c0.6-0.4,1.2-0.8,1.8-1.2c3-2,5.9-3.9,10-4.4c-3.3-3-3.5-6.6-3.6-10c0-0.5,0-1.1-0.1-1.6c0-0.2,0-0.5,0-0.7
	c0-0.4,0-0.8-0.1-1.1l-0.1-0.4c-0.3-0.9-0.6-1.9-1.2-2.4c-2.8-2.8-5.4-3.3-8.3-1.8c-2.2,1.2-4.2,1-5.5-0.4c-1.9-2.1-3.8-1.7-6.1-0.9
	l-0.7,3.8l-5.3,1.3l1.2,9.5l-0.8,0.5c-0.4,0.2-0.8,0.5-1.1,0.7c-1.4,0.8-2.4,2.2-2.7,3.7c-0.2,1.3,0,2.6,0.8,3.6
	c1.7,2.1,1.8,4.3,1.6,6.4C251.8,409.8,251.9,410,252.8,414.9L252.8,414.9z"/>
<path class="st0" d="M285.4,426.9c1.1-1.2,1.4-2.9,1-4.8l-10.7,3.5l1.3,3.4C280.8,429.5,283.8,428.7,285.4,426.9L285.4,426.9z"/>
<path class="st0" d="M307.2,356.8L307.2,356.8C307.2,356.8,307.2,356.8,307.2,356.8c-0.2-0.2-0.4-0.3-0.6-0.5l0,0c0,0,0,0,0,0
	c-0.2-0.1-0.4-0.2-0.6-0.4c-0.5-0.2-0.9-0.3-1.2-0.3c-1,0-1.7,0.8-2.5,1.9c-0.4,0.5-0.8,1-1.1,1.4l-0.3,0.4
	c-1.1,1.4-1.7,2.4-0.7,3.2c0.8,0.6,2.3,0.6,3.6,0.5h0.1c0.3,0,0.6-0.3,1-0.6c0.2-0.2,0.5-0.4,0.7-0.6c0.7-0.4,1.4-0.8,2-1.2l0.6-0.3
	c0-0.3,0.1-0.6,0.1-0.9C308.2,358.4,307.9,357.5,307.2,356.8L307.2,356.8L307.2,356.8z"/>
<path class="st0" d="M276.1,399.4c-1.4,0.6-2.7,1.5-4,2.5c-0.5,0.4-1,0.7-1.6,1.1c0.5,0.5,0.9,0.9,1.4,1.4c1.2,1.2,2.3,2.4,3.6,3.4
	c0.8,0.6,2,1.4,3.1,1.4c0,0,0,0,0,0c0.3,0,0.6,0,0.9,0c2.8,0,5.7,0.4,8.2,2.7l6.9-5.8c-1.1-0.7-2.2-1.3-3.3-1.9
	c-2.7-1.6-5.2-3-7.7-4.6C280.9,397.7,278.3,398.4,276.1,399.4L276.1,399.4z"/>
<path class="st0" d="M311.1,435.6c-1.1-2.5-2.8-4.7-4.5-7c-0.7-0.9-1.4-1.9-2.1-2.9c-0.4,0.2-0.8,0.4-1.2,0.6c-1.1,0.6-2,1-2.9,1.6
	c-0.5,0.3-0.9,0.9-1.1,1.2c-0.9,1.5-0.1,2.4,1,3.7c3.4,4,3.4,5.3,0.4,9.6c-0.2,0.3-0.5,0.7-0.7,1c-0.4,0.6-0.9,1.2-1.3,1.8
	c-0.4,0.5-0.5,1.1-0.4,1.6c0.1,0.4,0.3,0.8,0.8,1c0.7,0.5,1.8,0.8,2.7-0.3c0.5-0.5,0.9-1,1.4-1.5c0.2-0.2,0.4-0.4,0.6-0.6l0.2-0.2
	l0.2,0.1c3.2,2,4.6,1.9,8.8-0.6c-0.2-0.9-0.3-1.8-0.4-2.7C312.3,439.9,312,437.6,311.1,435.6L311.1,435.6z"/>
<path class="st0" d="M336,446.2c0-0.3-0.1-0.6-0.2-0.9c-0.2-0.9-0.4-1.8-0.4-2.7l0,0c0-0.9,0.1-1.8,0.2-2.7c0-0.4,0.1-0.7,0.1-1.1
	c-1.7-1.4-3.7-1.5-5-0.2c-2,1.9-4.1,2-6.3,1.9c-0.6,0-1.1,0-1.7,0c-2.7,0-5.6,0.1-8.2-1.9c-0.5,5.6,0.4,9.3,3.1,12.8
	c0.7,0,1.4,0,2,0c2.1,0,4.2,0,6.4,0c0.6,0,1.4-0.2,2-0.6c1.9-1.1,3.8-2.2,5.8-3.4L336,446.2L336,446.2z"/>
<path class="st0" d="M337.8,453.5c0.9-0.4,1.5-1,1.6-1.6c0.1-0.6-0.2-1.4-1-2.2c-0.3-0.3-0.7-0.6-1.2-0.9c-0.2-0.1-0.4-0.2-0.6-0.4
	l-3.5,1.6v5c0.5-0.1,0.9-0.3,1.3-0.4C335.7,454.2,336.8,453.9,337.8,453.5L337.8,453.5z"/>
<path class="st0" d="M336.6,428c-1.3-0.1-2.6-0.2-3.7-0.8l-0.1-0.1l0-0.1c0-0.1-0.1-0.2-0.1-0.2c-0.1-0.3-0.2-0.6-0.2-0.9
	c0.6-3.3-1.1-5.7-2.8-8.2c-0.5-0.7-0.9-1.3-1.4-2c-0.3-0.4-1.1-0.8-1.7-0.8c-2.7-0.2-5.5-0.3-7.9-0.4l-2.1-0.1
	c-0.6,0.6-1.2,1.2-1.7,1.7c-1.2,1.3-2.3,2.4-3.4,3.4c-1.2,1.1-2.6,2.2-3.9,3.4c-0.5,0.5-1.1,0.9-1.7,1.4l2.1,3.1
	c1.5,2.3,3,4.5,4.6,6.7c3.2,4.7,10.1,7.2,17,3.2c1.6-0.9,4-2,6.5-0.4c0.3,0.2,0.7,0.3,1.1,0.5c0.1,0,0.3,0.1,0.4,0.1l4.8-5.5
	C341.4,428.4,339,428.2,336.6,428L336.6,428z"/>
<path class="st0" d="M330.7,451.2c-2.6,2.7-5.5,2.4-8.1,2c-3.6-0.4-6.9,0.2-10.2,2.2c-3.5,2-4.9,5.3-6.2,9.1l12.2,6.1l-0.8,0.2
	c-0.7,0.2-1.4,0.5-1.9,0.6c-1.1,0.4-1.9,0.7-2.8,0.9c-1,0.2-1.6,0.5-1.9,0.9c-0.2,0.4-0.2,1,0.1,1.9c0.8,2.6,3.8,4.4,6.6,4.1
	l3.2-9.1l-1.6-2c-1.6-1.9-3.3-4-5.1-6.1c-1.1-1.3-1-2.7,0.4-4.2c0.6-0.6,2.3-0.1,3.1,0.3l0,0l0.1,0c1.3,0.7,2.1,1.1,2.5,1
	c0.4-0.2,0.8-1.1,1.4-2.7c0.1-0.3,0.3-0.5,0.5-0.7c0.1-0.1,0.2-0.3,0.4-0.5l0.1-0.1h7.8L330.7,451.2L330.7,451.2z"/>
<path class="st0" d="M311.7,416.8l0.1-0.1c1.3-1.1,2.1-1.9,1.4-3c-0.2-0.4-0.5-0.7-0.8-0.8c-0.6-0.2-1.4,0.3-2.1,0.7l-0.3,0.2
	c-4.4,2.6-9.4,3.7-15.1,3.4c-0.7,0-1.4,0-2.1,0.1h-0.2c-2.8,0.2-4,1.5-4,4.5c-0.1,2.9,0.7,3.8,3.8,4.1c0.9,0.1,1.8,0.1,2.6,0
	c0.4,0,0.8,0,1.2,0h0.1c2.9,0.8,5.2,0,7.8-2.4c1.8-1.7,3.7-3.3,5.6-4.8C310.3,417.9,311,417.4,311.7,416.8L311.7,416.8z"/>
<path class="st0" d="M311,411.1v-2.5c-0.3-0.1-0.7-0.2-1-0.3c-0.7-0.2-1.4-0.4-2-0.5c-0.2,0-0.4,0-0.6-0.1c-1.1-0.1-2.1-0.3-3,0
	c-2.1,0.8-4.1,0.9-6.6,0.3c-0.9-0.2-2.1,0-2.9,0.5c-1.4,1-2.8,2.1-4.1,3.2c-0.5,0.4-1,0.8-1.5,1.2l1,2.5
	C298.4,415.9,305,415.3,311,411.1L311,411.1z"/>
<path class="st0" d="M309.6,454.6l5.8-2.7l-2.4-4.6l-5,1.9c0,0.4,0,0.9,0,1.3C308.1,452.1,308,453.5,309.6,454.6L309.6,454.6z"/>
<path class="st0" d="M409.8,459.7c-0.8-0.7-1.5-1.3-2.2-1.7c-2-1.3-4.5-3.4-3.6-7.3l-11-3.8c-0.1,0.1-0.1,0.2-0.2,0.4
	c-0.4,0.6-0.8,1.5-1.5,2.2c-0.5,0.6-1.5,1.2-2.3,1.2c-1.2,0-2.5,0-3.6,0c-5.1,0-10.3,0-15.2-3.4c-4.9-3.5-10.3-3.3-14.7,0.6
	c-3.9,3.4-8.1,4.8-12.7,4.4c-0.4,0-0.8,0.1-1.2,0.2c-0.1,0-0.3,0.1-0.4,0.1l-1.2,4.8h-0.3c-0.8,0-1.6,0-2.4,0
	c-1.8,0-3.5,0.1-5.2-0.1c-2.4-0.2-3.7,1.3-5.1,2.9c-0.2,0.3-0.4,0.5-0.7,0.8c-0.2,0.2-0.3,1.2-0.1,1.4c2.9,2.2,2.2,5,1.6,7.7l0,0.1
	c0,0.2,0.2,0.6,0.4,0.9c0.1,0.1,0.2,0.2,0.2,0.3c3.4-1,3.6-0.9,6.3,2.6l0.1,0.1l-1.5,4c1.2,1.7,2.8,2,4.6,2.2
	c0.9,0.1,1.8,0.3,2.6,0.6c2.1,0.8,3.9,0.1,5.7-0.7c0.6-0.3,1.2-0.5,1.9-0.7c1-0.3,1.1-1,1.2-1.9c0.1-0.9,0.3-1.8,1.3-2.5l0.2-0.1
	l0.2,0.1c0.6,0.3,1.1,0.6,1.7,0.9c1.4,0.7,2.8,1.4,4.2,2.1c4,2.3,8.9,1.9,12.5-1.1l0.2-0.2c0.9-0.8,1.9-1.6,3.6-0.5l0.1,0.1l0.6,3.2
	c0.8,0.3,1.5,0.3,2,0.1c0.6-0.3,1-0.9,1.3-1.8c0.7-2.2,2.2-3.2,5-3.5c7.1-0.7,13.6-1.4,19.7-2.1c0.8-0.1,1.6-0.2,2.5-0.2
	c2.2-0.2,4.5-0.4,6.8-1.2c-2.5-3.3-2.6-6.6-0.4-10.2C410.4,460.1,410.1,459.9,409.8,459.7L409.8,459.7L409.8,459.7z"/>
</svg>
